<svg width="26" height="13" viewBox="0 0 26 13" fill="none" xmlns="http://www.w3.org/2000/svg">
<mask id="mask0_3475_14412" style="mask-type:alpha" maskUnits="userSpaceOnUse" x="0" y="0" width="26" height="14">
<rect y="0.00195312" width="26" height="13" rx="1" fill="#D9D9D9"/>
</mask>
<g mask="url(#mask0_3475_14412)">
<path d="M0 0.00195312H26.172V13.0879H0V0.00195312Z" fill="#CE1720"/>
<mask id="mask1_3475_14412" style="mask-type:luminance" maskUnits="userSpaceOnUse" x="0" y="0" width="4" height="14">
<path d="M0.136719 0.00195312H3.04471V8.84226H3.16103V12.9716L3.04471 13.0879H0.136719V0.00195312Z" fill="white"/>
</mask>
<g mask="url(#mask1_3475_14412)">
<path d="M0.65929 0.00195312V0.205513H0.528431V0.409073H0.368491V0.641712H0.252171V0.830732H0.0195312V0.350913H0.252171V0.089193H0.0195312V0.00195312H0.65929ZM1.03733 1.12153V1.33963H0.92101V1.51411H0.80469V1.33963H0.68837V1.12153H0.57205V0.830732H0.68837V0.612632H0.80469V0.438152H0.92101V0.612632H1.03733V0.830732H1.15365V1.12153H1.03733ZM0.79015 1.10699H0.93555V0.845272H0.79015V1.10699ZM0.412111 2.66277H0.528431V2.40105H0.412111V2.66277ZM1.19727 2.66277H1.31359V2.40105H1.19727V2.66277ZM0.0195312 4.43665H0.223091V4.62567H0.310331V4.85831H0.441191V5.07641H0.61567V4.85831H0.74653V4.62567H0.86285V4.43665H0.68837V4.21855H0.99371V4.36395H1.18273V4.61113H1.34267V4.88739H1.22635V5.09095H1.12457V5.27997H1.03733V5.48352H0.90647V5.658H0.80469V5.81794H0.67383V6.0215H0.484811V5.8034H0.353951V5.59984H0.252171V5.46899H0.0195312V5.13457H0.252171V4.84377H0.0195312V4.43665Z" fill="white"/>
<path d="M2.5204 0.00195312V0.205513H2.65126V0.409073H2.8112V0.641712H2.92752V0.830732H3.16016V0.350913H2.92752V0.089193H3.16016V0.00195312H2.5204ZM2.14236 1.12153V1.33963H2.25868V1.51411H2.375V1.33963H2.49132V1.12153H2.60764V0.830732H2.49132V0.612632H2.375V0.438152H2.25868V0.612632H2.14236V0.830732H2.02604V1.12153H2.14236ZM2.38954 1.10699H2.24414V0.845272H2.38954V1.10699ZM2.76758 2.66277H2.65126V2.40105H2.76758V2.66277ZM1.98242 2.66277H1.8661V2.40105H1.98242V2.66277ZM3.16016 4.43665H2.9566V4.62567H2.86936V4.85831H2.7385V5.07641H2.56402V4.85831H2.43316V4.62567H2.31684V4.43665H2.49132V4.21855H2.18598V4.36395H1.99696V4.61113H1.83702V4.88739H1.95334V5.09095H2.05512V5.27997H2.14236V5.48352H2.27322V5.658H2.375V5.81794H2.50586V6.0215H2.69488V5.8034H2.82574V5.59984H2.92752V5.46899H3.16016V5.13457H2.92752V4.84377H3.16016V4.43665Z" fill="white"/>
<path d="M1.53169 0.00195312V0.467232H1.64801V0.00195312H2.11329V0.205513H1.99697V0.409073H1.82249V0.641712H1.70617V0.830732H1.47353V0.641712H1.35721V0.409073H1.18273V0.205513H1.06641V0.00195312H1.53169ZM1.50261 3.98591V3.82597H1.41537V3.63695H1.31359V3.43339H1.19727V3.22983H1.08095V3.08443H0.95009V2.88087H0.77561V3.08443H0.64475V3.22983H0.54297V3.43339H0.426651V3.63695H0.339411V3.82597H0.252171V4.07315H0.0195312V3.43339H0.252171V3.14259H0.0195312V2.66277H0.252171V2.86633H0.397571V3.06989H0.54297V2.86633H0.68837V2.66277H0.80469V2.40105H0.68837V2.19749H0.54297V1.99393H0.397571V2.19749H0.252171V2.40105H0.0195312V1.80491H0.252171V1.52865H0.0195312V1.12153H0.252171V1.31055H0.368491V1.54319H0.528431V1.73221H0.65929V1.95031H0.76107V2.12479H0.96463V1.95031H1.06641V1.73221H1.19727V1.54319H1.35721V1.31055H1.47353V1.12153H1.70617V1.31055H1.82249V1.54319H1.98243V1.73221H2.11329V1.95031H2.21507V2.12479H2.41863V1.95031H2.52041V1.73221H2.65127V1.54319H2.81121V1.31055H2.92753V1.12153H3.16017V1.52865H2.92753V1.80491H3.16017V2.40105H2.92753V2.19749H2.78213V1.99393H2.63673V2.19749H2.49133V2.40105H2.37501V2.66277H2.49133V2.86633H2.63673V3.06989H2.78213V2.86633H2.92753V2.66277H3.16017V3.14259H2.92753V3.43339H3.16017V4.07315H2.92753V3.82597H2.84029V3.63695H2.75305V3.43339H2.63673V3.22983H2.53495V3.08443H2.40409V2.88087H2.22961V3.08443H2.09875V3.22983H1.98243V3.43339H1.86611V3.63695H1.76433V3.82597H1.67709V3.98591H1.50261ZM1.53169 1.55773V1.95031H1.64801V1.55773H1.53169ZM1.47353 2.40105V2.19749H1.32813V1.99393H1.18273V2.19749H1.03733V2.40105H0.92101V2.66277H1.03733V2.86633H1.18273V3.06989H1.32813V2.86633H1.47353V2.66277H1.70617V2.86633H1.85157V3.06989H1.99697V2.86633H2.14237V2.66277H2.25869V2.40105H2.14237V2.19749H1.99697V1.99393H1.85157V2.19749H1.70617V2.40105H1.47353ZM1.53169 3.06989V3.46247H1.64801V3.06989H1.53169Z" fill="white"/>
<path d="M0.65929 13.0881V12.8846H0.528431V12.681H0.368491V12.4484H0.252171V12.2594H0.0195312V12.7392H0.252171V13.0009H0.0195312V13.0881H0.65929ZM1.03733 11.9686V11.7505H0.92101V11.576H0.80469V11.7505H0.68837V11.9686H0.57205V12.2594H0.68837V12.4775H0.80469V12.6519H0.92101V12.4775H1.03733V12.2594H1.15365V11.9686H1.03733ZM0.79015 11.9831H0.93555V12.2448H0.79015V11.9831ZM0.412111 10.4273H0.528431V10.689H0.412111V10.4273ZM1.19727 10.4273H1.31359V10.689H1.19727V10.4273ZM0.0195312 8.65344H0.223091V8.46442H0.310331V8.23178H0.441191V8.01368H0.61567V8.23178H0.74653V8.46442H0.86285V8.65344H0.68837V8.87154H0.99371V8.72614H1.18273V8.47896H1.34267V8.2027H1.22635V7.99914H1.12457V7.81012H1.03733V7.60656H0.90647V7.43208H0.80469V7.27214H0.67383V7.06858H0.484811V7.28668H0.353951V7.49024H0.252171V7.6211H0.0195312V7.95552H0.252171V8.24632H0.0195312V8.65344Z" fill="white"/>
<path d="M2.5204 13.0881V12.8846H2.65126V12.681H2.8112V12.4484H2.92752V12.2594H3.16016V12.7392H2.92752V13.0009H3.16016V13.0881H2.5204ZM2.14236 11.9686V11.7505H2.25868V11.576H2.375V11.7505H2.49132V11.9686H2.60764V12.2594H2.49132V12.4775H2.375V12.6519H2.25868V12.4775H2.14236V12.2594H2.02604V11.9686H2.14236ZM2.38954 11.9831H2.24414V12.2448H2.38954V11.9831ZM2.76758 10.4273H2.65126V10.689H2.76758V10.4273ZM1.98242 10.4273H1.8661V10.689H1.98242V10.4273ZM3.16016 8.65344H2.9566V8.46442H2.86936V8.23178H2.7385V8.01368H2.56402V8.23178H2.43316V8.46442H2.31684V8.65344H2.49132V8.87154H2.18598V8.72614H1.99696V8.47896H1.83702V8.2027H1.95334V7.99914H2.05512V7.81012H2.14236V7.60656H2.27322V7.43208H2.375V7.27214H2.50586V7.06858H2.69488V7.28668H2.82574V7.49024H2.92752V7.6211H3.16016V7.95552H2.92752V8.24632H3.16016V8.65344Z" fill="white"/>
<path d="M1.53169 13.0881V12.6229H1.64801V13.0881H2.11329V12.8846H1.99697V12.681H1.82249V12.4484H1.70617V12.2594H1.47353V12.4484H1.35721V12.681H1.18273V12.8846H1.06641V13.0881H1.53169ZM1.50261 9.10418V9.26412H1.41537V9.45314H1.31359V9.6567H1.19727V9.86026H1.08095V10.0057H0.95009V10.2092H0.77561V10.0057H0.64475V9.86026H0.54297V9.6567H0.426651V9.45314H0.339411V9.26412H0.252171V9.01694H0.0195312V9.6567H0.252171V9.9475H0.0195312V10.4273H0.252171V10.2238H0.397571V10.0202H0.54297V10.2238H0.68837V10.4273H0.80469V10.689H0.68837V10.8926H0.54297V11.0962H0.397571V10.8926H0.252171V10.689H0.0195312V11.2852H0.252171V11.5614H0.0195312V11.9686H0.252171V11.7795H0.368491V11.5469H0.528431V11.3579H0.65929V11.1398H0.76107V10.9653H0.96463V11.1398H1.06641V11.3579H1.19727V11.5469H1.35721V11.7795H1.47353V11.9686H1.70617V11.7795H1.82249V11.5469H1.98243V11.3579H2.11329V11.1398H2.21507V10.9653H2.41863V11.1398H2.52041V11.3579H2.65127V11.5469H2.81121V11.7795H2.92753V11.9686H3.16017V11.5614H2.92753V11.2852H3.16017V10.689H2.92753V10.8926H2.78213V11.0962H2.63673V10.8926H2.49133V10.689H2.37501V10.4273H2.49133V10.2238H2.63673V10.0202H2.78213V10.2238H2.92753V10.4273H3.16017V9.9475H2.92753V9.6567H3.16017V9.01694H2.92753V9.26412H2.84029V9.45314H2.75305V9.6567H2.63673V9.86026H2.53495V10.0057H2.40409V10.2092H2.22961V10.0057H2.09875V9.86026H1.98243V9.6567H1.86611V9.45314H1.76433V9.26412H1.67709V9.10418H1.50261ZM1.53169 11.5324V11.1398H1.64801V11.5324H1.53169ZM1.47353 10.689V10.8926H1.32813V11.0962H1.18273V10.8926H1.03733V10.689H0.92101V10.4273H1.03733V10.2238H1.18273V10.0202H1.32813V10.2238H1.47353V10.4273H1.70617V10.2238H1.85157V10.0202H1.99697V10.2238H2.14237V10.4273H2.25869V10.689H2.14237V10.8926H1.99697V11.0962H1.85157V10.8926H1.70617V10.689H1.47353ZM1.53169 10.0202V9.62762H1.64801V10.0202H1.53169Z" fill="white"/>
<path d="M0.0195312 5.93431H0.252171V6.13787H0.353951V6.25419H0.470271V6.45775H0.57205V6.63223H0.470271V6.83579H0.353951V6.95211H0.252171V7.15567H0.0195312V5.93431ZM3.16017 5.93431V7.15567H2.92753V6.95211H2.82575V6.83579H2.70943V6.63223H2.60765V6.45775H2.70943V6.25419H2.82575V6.13787H2.92753V5.93431H3.16017ZM1.03733 6.67585H1.15365V6.41413H1.03733V6.67585ZM2.14237 6.67585V6.41413H2.02605V6.67585H2.14237ZM1.53169 5.81799H1.64801V5.55627H1.53169V5.81799ZM1.53169 7.27199V7.53371H1.64801V7.27199H1.53169ZM0.80469 6.18149H1.00825V6.02155H1.15365V5.87615H1.22635V5.73075H1.31359V5.52719H1.42991V5.32363H1.48807V5.13461H1.69163V5.32363H1.74979V5.52719H1.86611V5.73075H1.95335V5.87615H2.02605V6.02155H2.17145V6.18149H2.37501V6.90849H2.17145V7.06843H2.02605V7.21383H1.95335V7.35923H1.86611V7.56279H1.74979V7.76635H1.69163V7.95537H1.48807V7.76635H1.42991V7.56279H1.31359V7.35923H1.22635V7.21383H1.15365V7.06843H1.00825V6.90849H0.80469V6.18149ZM1.53169 6.31235V6.09425H1.41537V5.94885H1.29905V6.31235H1.41537V6.44321H1.48807V6.64677H1.41537V6.77763H1.29905V7.14113H1.41537V6.99573H1.53169V6.77763H1.64801V6.99573H1.76433V7.14113H1.88065V6.77763H1.76433V6.64677H1.69163V6.44321H1.76433V6.31235H1.88065V5.94885H1.76433V6.09425H1.64801V6.31235H1.53169Z" fill="white"/>
</g>
<path d="M3.04688 8.72594H26.1724V13.0879H3.04688V8.72594Z" fill="#007C30"/>
</g>
</svg>
