<svg width="26" height="13" viewBox="0 0 26 13" fill="none" xmlns="http://www.w3.org/2000/svg">
<path d="M0 0.00195312H26V13.002H0V0.00195312Z" fill="white"/>
<path d="M11.3719 0.00195312H13.9719V13.002H11.3719V0.00195312ZM-1.07812 5.20195H26.4219V7.80195H-1.07812V5.20195Z" fill="#FF0000"/>
<path d="M6.6875 1.27226C6.99092 1.31211 7.29824 1.31211 7.60166 1.27226C7.42552 2.15011 7.42552 3.05421 7.60166 3.93206C7.29824 3.89221 6.99092 3.89221 6.6875 3.93206C6.86364 3.05421 6.86364 2.15011 6.6875 1.27226Z" fill="#FF0000"/>
<path d="M8.47656 2.14507C8.43671 2.44848 8.43671 2.75581 8.47656 3.05923C7.59871 2.88308 6.69461 2.88308 5.81676 3.05923C5.85661 2.75581 5.85661 2.44848 5.81676 2.14507C6.69461 2.32121 7.59871 2.32121 8.47656 2.14507Z" fill="#FF0000"/>
<path d="M17.7383 1.27197C18.0417 1.31182 18.349 1.31182 18.6524 1.27197C18.4763 2.14982 18.4763 3.05392 18.6524 3.93177C18.349 3.89192 18.0417 3.89192 17.7383 3.93177C17.9144 3.05392 17.9144 2.14982 17.7383 1.27197Z" fill="#FF0000"/>
<path d="M19.5273 2.14473C19.4875 2.44815 19.4875 2.75547 19.5273 3.05889C18.6495 2.88275 17.7454 2.88275 16.8675 3.05889C16.9074 2.75547 16.9074 2.44815 16.8675 2.14473C17.7454 2.32087 18.6495 2.32087 19.5273 2.14473Z" fill="#FF0000"/>
<path d="M6.6875 9.07202C6.99092 9.11187 7.29824 9.11187 7.60166 9.07202C7.42552 9.94987 7.42552 10.854 7.60166 11.7318C7.29824 11.692 6.99092 11.692 6.6875 11.7318C6.86364 10.854 6.86364 9.94987 6.6875 9.07202Z" fill="#FF0000"/>
<path d="M8.47656 9.94482C8.43671 10.2482 8.43671 10.5556 8.47656 10.859C7.59871 10.6828 6.69461 10.6828 5.81676 10.859C5.85661 10.5556 5.85661 10.2482 5.81676 9.94482C6.69461 10.121 7.59871 10.121 8.47656 9.94482Z" fill="#FF0000"/>
<path d="M17.7383 9.07202C18.0417 9.11187 18.349 9.11187 18.6524 9.07202C18.4763 9.94987 18.4763 10.854 18.6524 11.7318C18.349 11.692 18.0417 11.692 17.7383 11.7318C17.9144 10.854 17.9144 9.94987 17.7383 9.07202Z" fill="#FF0000"/>
<path d="M19.5273 9.94482C19.4875 10.2482 19.4875 10.5556 19.5273 10.859C18.6495 10.6828 17.7454 10.6828 16.8675 10.859C16.9074 10.5556 16.9074 10.2482 16.8675 9.94482C17.7454 10.121 18.6495 10.121 19.5273 9.94482Z" fill="#FF0000"/>
</svg>
