<svg width="21" height="14" viewBox="0 0 21 14" fill="none" xmlns="http://www.w3.org/2000/svg">
<path d="M0 1C0 0.447716 0.447715 0 1 0H20C20.5523 0 21 0.447715 21 1V13C21 13.5523 20.5523 14 20 14H1C0.447715 14 0 13.5523 0 13V1Z" fill="white"/>
<path d="M0 0.999999C0 0.447714 0.447715 0 1 0H20C20.5523 0 21 0.447715 21 1V3.66667C21 4.21895 20.5523 4.66667 20 4.66667H1C0.447715 4.66667 0 4.21895 0 3.66667V0.999999Z" fill="#FF6820"/>
<path d="M0 10.3333C0 9.78097 0.447715 9.33325 1 9.33325H20C20.5523 9.33325 21 9.78097 21 10.3333V12.9999C21 13.5522 20.5523 13.9999 20 13.9999H1C0.447715 13.9999 0 13.5522 0 12.9999V10.3333Z" fill="#046A38"/>
<path d="M10.5021 9.15822C11.6941 9.15822 12.6604 8.1919 12.6604 6.99989C12.6604 5.80787 11.6941 4.84155 10.5021 4.84155C9.31007 4.84155 8.34375 5.80787 8.34375 6.99989C8.34375 8.1919 9.31007 9.15822 10.5021 9.15822Z" fill="#07038D"/>
<path d="M10.4995 8.86663C11.5304 8.86663 12.3661 8.0309 12.3661 6.99997C12.3661 5.96904 11.5304 5.1333 10.4995 5.1333C9.46855 5.1333 8.63281 5.96904 8.63281 6.99997C8.63281 8.0309 9.46855 8.86663 10.4995 8.86663Z" fill="white"/>
<path d="M10.4983 7.37338C10.7045 7.37338 10.8717 7.20623 10.8717 7.00004C10.8717 6.79386 10.7045 6.62671 10.4983 6.62671C10.2921 6.62671 10.125 6.79386 10.125 7.00004C10.125 7.20623 10.2921 7.37338 10.4983 7.37338Z" fill="#07038D"/>
<path d="M10.5036 5.1333L10.5732 6.25005C10.5735 6.2544 10.5733 6.25877 10.5728 6.26309C10.5625 6.34445 10.4447 6.34445 10.4344 6.26309C10.4339 6.25877 10.4337 6.2544 10.434 6.25005L10.5036 5.1333Z" fill="#07038D"/>
<path d="M10.7393 5.23021C10.7841 5.2361 10.8251 5.20462 10.831 5.1599C10.8369 5.11519 10.8054 5.07416 10.7607 5.06828C10.7159 5.06239 10.6749 5.09387 10.669 5.13859C10.6631 5.1833 10.6946 5.22433 10.7393 5.23021Z" fill="#07038D"/>
<path d="M10.5042 8.8667L10.4346 7.74995C10.4344 7.7456 10.4345 7.74123 10.435 7.73691C10.4453 7.65555 10.5632 7.65555 10.5734 7.73691C10.5739 7.74123 10.5741 7.7456 10.5738 7.74995L10.5042 8.8667Z" fill="#07038D"/>
<path d="M10.2724 8.76979C10.2277 8.7639 10.1866 8.79538 10.1808 8.8401C10.1749 8.88481 10.2063 8.92584 10.2511 8.93172C10.2958 8.93761 10.3368 8.90613 10.3427 8.86141C10.3486 8.8167 10.3171 8.77567 10.2724 8.76979Z" fill="#07038D"/>
<path d="M10.9817 5.19707L10.7599 6.29378C10.759 6.29805 10.7577 6.30223 10.7561 6.30627C10.7251 6.38221 10.6113 6.3517 10.6224 6.27046C10.623 6.26614 10.624 6.26189 10.6254 6.25775L10.9817 5.19707Z" fill="#07038D"/>
<path d="M11.1809 5.35085C11.2226 5.36811 11.2704 5.34833 11.2876 5.30666C11.3049 5.26499 11.2851 5.21721 11.2434 5.19995C11.2017 5.18269 11.154 5.20248 11.1367 5.24415C11.1195 5.28582 11.1392 5.33359 11.1809 5.35085Z" fill="#07038D"/>
<path d="M10.0183 8.80317L10.2401 7.70647C10.241 7.70219 10.2423 7.69801 10.2439 7.69397C10.2749 7.61804 10.3887 7.64855 10.3776 7.72978C10.377 7.7341 10.376 7.73836 10.3746 7.74249L10.0183 8.80317Z" fill="#07038D"/>
<path d="M9.81909 8.64915C9.77742 8.63189 9.72964 8.65167 9.71238 8.69334C9.69512 8.73501 9.71491 8.78279 9.75658 8.80005C9.79825 8.81731 9.84602 8.79752 9.86328 8.75585C9.88054 8.71418 9.86076 8.66641 9.81909 8.64915Z" fill="#07038D"/>
<path d="M11.4317 5.38339L10.9336 6.38532C10.9317 6.38922 10.9294 6.39293 10.9267 6.39641C10.8772 6.46175 10.7751 6.4028 10.8069 6.32723C10.8086 6.32321 10.8107 6.31936 10.8131 6.31572L11.4317 5.38339Z" fill="#07038D"/>
<path d="M11.5865 5.58384C11.6222 5.61129 11.6735 5.60455 11.701 5.56876C11.7284 5.53298 11.7217 5.48171 11.6859 5.45426C11.6501 5.4268 11.5988 5.43355 11.5714 5.46933C11.5439 5.50511 11.5507 5.55638 11.5865 5.58384Z" fill="#07038D"/>
<path d="M9.56438 8.61661L10.0625 7.61468C10.0644 7.61078 10.0667 7.60707 10.0694 7.60359C10.1189 7.53825 10.221 7.5972 10.1892 7.67277C10.1875 7.67679 10.1854 7.68064 10.183 7.68428L9.56438 8.61661Z" fill="#07038D"/>
<path d="M9.40964 8.41616C9.37386 8.38871 9.32259 8.39545 9.29513 8.43124C9.26768 8.46702 9.27443 8.51829 9.31021 8.54574C9.34599 8.5732 9.39726 8.56645 9.42472 8.53067C9.45217 8.49489 9.44542 8.44362 9.40964 8.41616Z" fill="#07038D"/>
<path d="M11.819 5.67987L11.0786 6.51874C11.0757 6.52201 11.0725 6.525 11.0691 6.52767C11.0043 6.57796 10.9209 6.4946 10.9712 6.42983C10.9739 6.42639 10.9769 6.4232 10.9802 6.42032L11.819 5.67987Z" fill="#07038D"/>
<path d="M11.9162 5.91325C11.9437 5.94903 11.995 5.95578 12.0307 5.92832C12.0665 5.90086 12.0733 5.8496 12.0458 5.81381C12.0184 5.77803 11.9671 5.77128 11.9313 5.79874C11.8955 5.8262 11.8888 5.87746 11.9162 5.91325Z" fill="#07038D"/>
<path d="M9.18488 8.31989L9.92533 7.48102C9.92821 7.47775 9.9314 7.47476 9.93484 7.47209C9.99961 7.4218 10.083 7.50515 10.0327 7.56992C10.03 7.57337 10.027 7.57655 10.0237 7.57944L9.18488 8.31989Z" fill="#07038D"/>
<path d="M9.08768 8.08651C9.06022 8.05073 9.00895 8.04398 8.97317 8.07144C8.93739 8.09889 8.93064 8.15016 8.9581 8.18594C8.98555 8.22172 9.03682 8.22847 9.0726 8.20102C9.10839 8.17356 9.11514 8.12229 9.08768 8.08651Z" fill="#07038D"/>
<path d="M12.1209 6.06648L11.1886 6.68512C11.185 6.68753 11.1811 6.6896 11.1771 6.69129C11.1015 6.7231 11.0426 6.62101 11.1079 6.57146C11.1114 6.56883 11.1151 6.56653 11.119 6.56459L12.1209 6.06648Z" fill="#07038D"/>
<path d="M12.1499 6.31667C12.1671 6.35834 12.2149 6.37812 12.2566 6.36086C12.2983 6.3436 12.318 6.29583 12.3008 6.25416C12.2835 6.21249 12.2358 6.1927 12.1941 6.20996C12.1524 6.22722 12.1326 6.275 12.1499 6.31667Z" fill="#07038D"/>
<path d="M8.87906 7.93327L9.8114 7.31463C9.81503 7.31222 9.81888 7.31016 9.8229 7.30847C9.89848 7.27665 9.95742 7.37874 9.89208 7.42829C9.88861 7.43093 9.88489 7.43323 9.88099 7.43517L8.87906 7.93327Z" fill="#07038D"/>
<path d="M8.85012 7.68309C8.83286 7.64142 8.78508 7.62163 8.74341 7.63889C8.70174 7.65615 8.68196 7.70392 8.69922 7.74559C8.71648 7.78726 8.76425 7.80705 8.80592 7.78979C8.84759 7.77253 8.86738 7.72476 8.85012 7.68309Z" fill="#07038D"/>
<path d="M12.3072 6.51708L11.2465 6.87333C11.2424 6.87472 11.2381 6.87572 11.2338 6.87631C11.1526 6.88748 11.122 6.77361 11.198 6.74266C11.202 6.74102 11.2062 6.73976 11.2105 6.73889L12.3072 6.51708Z" fill="#07038D"/>
<path d="M12.2706 6.76733C12.2765 6.81204 12.3175 6.84352 12.3622 6.83763C12.4069 6.83175 12.4384 6.79072 12.4325 6.74601C12.4266 6.70129 12.3856 6.66981 12.3409 6.6757C12.2962 6.68159 12.2647 6.72261 12.2706 6.76733Z" fill="#07038D"/>
<path d="M8.69673 7.48317L9.75741 7.12691C9.76154 7.12552 9.7658 7.12452 9.77011 7.12393C9.85135 7.11276 9.88186 7.22663 9.80593 7.25758C9.80189 7.25922 9.79771 7.26049 9.79343 7.26135L8.69673 7.48317Z" fill="#07038D"/>
<path d="M8.73331 7.23292C8.72742 7.1882 8.6864 7.15672 8.64168 7.16261C8.59696 7.1685 8.56548 7.20952 8.57137 7.25424C8.57726 7.29895 8.61828 7.33043 8.663 7.32455C8.70772 7.31866 8.73919 7.27764 8.73331 7.23292Z" fill="#07038D"/>
<path d="M12.3672 6.99993L11.2504 7.06952C11.2461 7.0698 11.2417 7.06966 11.2374 7.06911C11.156 7.05887 11.156 6.94099 11.2374 6.93075C11.2417 6.93021 11.2461 6.93007 11.2504 6.93034L12.3672 6.99993Z" fill="#07038D"/>
<path d="M12.2688 7.23299C12.2629 7.27771 12.2944 7.31873 12.3391 7.32462C12.3838 7.3305 12.4249 7.29903 12.4307 7.25431C12.4366 7.20959 12.4052 7.16857 12.3604 7.16268C12.3157 7.15679 12.2747 7.18827 12.2688 7.23299Z" fill="#07038D"/>
<path d="M8.63281 7.00007L9.74956 6.93048C9.75391 6.9302 9.75828 6.93034 9.7626 6.93089C9.84396 6.94113 9.84396 7.05901 9.7626 7.06925C9.75828 7.06979 9.75391 7.06993 9.74956 7.06966L8.63281 7.00007Z" fill="#07038D"/>
<path d="M8.73119 6.76701C8.73708 6.72229 8.7056 6.68127 8.66088 6.67538C8.61616 6.6695 8.57514 6.70097 8.56925 6.74569C8.56337 6.79041 8.59484 6.83143 8.63956 6.83732C8.68428 6.84321 8.7253 6.81173 8.73119 6.76701Z" fill="#07038D"/>
<path d="M12.3022 7.48314L11.2055 7.26133C11.2012 7.26046 11.197 7.2592 11.193 7.25756C11.1171 7.22661 11.1476 7.11274 11.2288 7.12391C11.2331 7.1245 11.2374 7.1255 11.2415 7.12689L12.3022 7.48314Z" fill="#07038D"/>
<path d="M12.1499 7.68311C12.1326 7.72478 12.1524 7.77255 12.1941 7.78981C12.2357 7.80707 12.2835 7.78729 12.3008 7.74562C12.318 7.70395 12.2983 7.65617 12.2566 7.63891C12.2149 7.62165 12.1671 7.64144 12.1499 7.68311Z" fill="#07038D"/>
<path d="M8.6978 6.51686L9.79451 6.73867C9.79878 6.73954 9.80297 6.7408 9.807 6.74244C9.88294 6.77339 9.85243 6.88726 9.77119 6.87609C9.76687 6.8755 9.76262 6.8745 9.75849 6.87311L8.6978 6.51686Z" fill="#07038D"/>
<path d="M8.85012 6.31689C8.86738 6.27522 8.84759 6.22745 8.80592 6.21019C8.76425 6.19293 8.71648 6.21271 8.69922 6.25438C8.68196 6.29605 8.70175 6.34383 8.74342 6.36109C8.78509 6.37835 8.83286 6.35856 8.85012 6.31689Z" fill="#07038D"/>
<path d="M12.1134 7.93342L11.1115 7.43532C11.1076 7.43338 11.1039 7.43108 11.1004 7.42844C11.0351 7.37889 11.094 7.2768 11.1696 7.30862C11.1736 7.31031 11.1775 7.31237 11.1811 7.31478L12.1134 7.93342Z" fill="#07038D"/>
<path d="M11.9145 8.0867C11.887 8.12248 11.8937 8.17375 11.9295 8.2012C11.9653 8.22866 12.0166 8.22191 12.044 8.18613C12.0715 8.15035 12.0647 8.09908 12.029 8.07162C11.9932 8.04417 11.9419 8.05091 11.9145 8.0867Z" fill="#07038D"/>
<path d="M8.87875 6.06682L9.88068 6.56492C9.88458 6.56686 9.88829 6.56917 9.89177 6.5718C9.95711 6.62135 9.89817 6.72344 9.82259 6.69163C9.81857 6.68994 9.81472 6.68787 9.81108 6.68546L8.87875 6.06682Z" fill="#07038D"/>
<path d="M9.07773 5.91355C9.10519 5.87776 9.09844 5.8265 9.06266 5.79904C9.02688 5.77158 8.97561 5.77833 8.94815 5.81412C8.9207 5.8499 8.92745 5.90116 8.96323 5.92862C8.99901 5.95608 9.05028 5.94933 9.07773 5.91355Z" fill="#07038D"/>
<path d="M11.8177 8.32025L10.9788 7.5798C10.9756 7.57691 10.9726 7.57373 10.9699 7.57029C10.9196 7.50551 11.003 7.42216 11.0677 7.47245C11.0712 7.47512 11.0744 7.47811 11.0772 7.48138L11.8177 8.32025Z" fill="#07038D"/>
<path d="M11.5858 8.41647C11.55 8.44393 11.5432 8.4952 11.5707 8.53098C11.5982 8.56676 11.6494 8.57351 11.6852 8.54605C11.721 8.5186 11.7277 8.46733 11.7003 8.43155C11.6728 8.39576 11.6216 8.38902 11.5858 8.41647Z" fill="#07038D"/>
<path d="M9.1784 5.68024L10.0173 6.42069C10.0205 6.42357 10.0235 6.42676 10.0262 6.4302C10.0765 6.49497 9.99314 6.57833 9.92837 6.52804C9.92492 6.52537 9.92174 6.52238 9.91885 6.51911L9.1784 5.68024Z" fill="#07038D"/>
<path d="M9.41032 5.58402C9.4461 5.55656 9.45285 5.50529 9.42539 5.46951C9.39793 5.43373 9.34667 5.42698 9.31088 5.45443C9.2751 5.48189 9.26835 5.53316 9.29581 5.56894C9.32327 5.60472 9.37453 5.61147 9.41032 5.58402Z" fill="#07038D"/>
<path d="M11.4316 8.61654L10.8129 7.68421C10.8105 7.68058 10.8084 7.67672 10.8068 7.67271C10.7749 7.59713 10.877 7.53819 10.9266 7.60353C10.9292 7.607 10.9315 7.61071 10.9335 7.61462L11.4316 8.61654Z" fill="#07038D"/>
<path d="M11.1824 8.64915C11.1407 8.66641 11.1209 8.71418 11.1382 8.75585C11.1554 8.79752 11.2032 8.81731 11.2449 8.80005C11.2865 8.78279 11.3063 8.73502 11.2891 8.69335C11.2718 8.65168 11.224 8.63189 11.1824 8.64915Z" fill="#07038D"/>
<path d="M9.56843 5.3837L10.1871 6.31604C10.1895 6.31967 10.1916 6.32352 10.1932 6.32754C10.2251 6.40312 10.123 6.46206 10.0734 6.39672C10.0708 6.39325 10.0685 6.38953 10.0665 6.38563L9.56843 5.3837Z" fill="#07038D"/>
<path d="M9.81764 5.35109C9.85931 5.33383 9.8791 5.28606 9.86184 5.24439C9.84458 5.20272 9.79681 5.18293 9.75514 5.20019C9.71347 5.21745 9.69368 5.26523 9.71094 5.3069C9.7282 5.34857 9.77597 5.36835 9.81764 5.35109Z" fill="#07038D"/>
<path d="M10.9832 8.80327L10.6269 7.74259C10.6255 7.73846 10.6245 7.7342 10.6239 7.72989C10.6128 7.64865 10.7266 7.61814 10.7576 7.69407C10.7592 7.69811 10.7605 7.70229 10.7614 7.70657L10.9832 8.80327Z" fill="#07038D"/>
<path d="M10.7337 8.76987C10.6889 8.77575 10.6575 8.81678 10.6633 8.86149C10.6692 8.90621 10.7103 8.93769 10.755 8.9318C10.7997 8.92592 10.8312 8.88489 10.8253 8.84017C10.8194 8.79546 10.7784 8.76398 10.7337 8.76987Z" fill="#07038D"/>
<path d="M10.0168 5.19697L10.3731 6.25765C10.3745 6.26179 10.3755 6.26604 10.3761 6.27036C10.3872 6.3516 10.2734 6.38211 10.2424 6.30617C10.2408 6.30213 10.2395 6.29795 10.2386 6.29368L10.0168 5.19697Z" fill="#07038D"/>
<path d="M10.2663 5.23062C10.3111 5.22473 10.3425 5.18371 10.3367 5.13899C10.3308 5.09428 10.2897 5.0628 10.245 5.06869C10.2003 5.07457 10.1688 5.1156 10.1747 5.16031C10.1806 5.20503 10.2216 5.23651 10.2663 5.23062Z" fill="#07038D"/>
</svg>
