<svg width="26" height="13" viewBox="0 0 26 13" fill="none" xmlns="http://www.w3.org/2000/svg">
<mask id="mask0_3475_14788" style="mask-type:alpha" maskUnits="userSpaceOnUse" x="0" y="0" width="26" height="14">
<rect y="0.00195312" width="26" height="13" rx="1" fill="#D9D9D9"/>
</mask>
<g mask="url(#mask0_3475_14788)">
<path d="M0 0.00195312H26.172V13.0879H0V0.00195312Z" fill="#00ABC2"/>
<path d="M14.1435 7.25891C15.1159 7.25891 15.9043 6.47061 15.9043 5.49819C15.9043 4.52577 15.1159 3.73747 14.1435 3.73747C13.1711 3.73747 12.3828 4.52577 12.3828 5.49819C12.3828 6.47061 13.1711 7.25891 14.1435 7.25891Z" fill="#FFEC2D"/>
<path d="M14.1439 3.4971C14.2486 3.49579 14.2879 3.43036 14.2879 3.35184C14.2879 3.24716 14.1439 2.74858 14.1439 2.74858C14.1439 2.74858 14 3.24716 14 3.35184C14 3.43036 14.0393 3.4971 14.1439 3.4971Z" fill="#FFEC2D"/>
<path d="M16.146 5.49795C16.1473 5.60264 16.2128 5.6419 16.2913 5.6419C16.396 5.6419 16.8945 5.49795 16.8945 5.49795C16.8945 5.49795 16.396 5.354 16.2913 5.354C16.2128 5.354 16.146 5.39326 16.146 5.49795Z" fill="#FFEC2D"/>
<path d="M14.1451 7.49872C14.0404 7.50003 14.0012 7.56546 14.0012 7.64397C14.0012 7.74866 14.1451 8.24724 14.1451 8.24724C14.1451 8.24724 14.2891 7.74866 14.2891 7.64397C14.2891 7.56546 14.2498 7.49872 14.1451 7.49872Z" fill="#FFEC2D"/>
<path d="M12.143 5.49801C12.1417 5.39332 12.0763 5.35406 11.9978 5.35406C11.8931 5.35406 11.3945 5.49801 11.3945 5.49801C11.3945 5.49801 11.8931 5.64195 11.9978 5.64195C12.0763 5.64195 12.143 5.60269 12.143 5.49801Z" fill="#FFEC2D"/>
<path d="M14.9051 3.64889C15.0024 3.68775 15.0637 3.64232 15.0937 3.56978C15.1338 3.47306 15.1916 2.95735 15.1916 2.95735C15.1916 2.95735 14.8678 3.36289 14.8277 3.45961C14.7977 3.53215 14.8084 3.60883 14.9051 3.64889Z" fill="#FFEC2D"/>
<path d="M15.9877 6.26311C15.9489 6.36033 15.9943 6.42164 16.0669 6.45168C16.1636 6.49175 16.6793 6.54955 16.6793 6.54955C16.6793 6.54955 16.2738 6.22577 16.177 6.18571C16.1045 6.15566 16.0278 6.16639 15.9877 6.26311Z" fill="#FFEC2D"/>
<path d="M13.3761 7.34601C13.2789 7.30716 13.2176 7.35258 13.1875 7.42512C13.1475 7.52184 13.0897 8.03755 13.0897 8.03755C13.0897 8.03755 13.4135 7.63201 13.4535 7.53529C13.4836 7.46275 13.4728 7.38607 13.3761 7.34601Z" fill="#FFEC2D"/>
<path d="M12.2935 4.7318C12.3324 4.63458 12.2869 4.57327 12.2144 4.54322C12.1177 4.50316 11.602 4.44535 11.602 4.44535C11.602 4.44535 12.0075 4.76914 12.1042 4.8092C12.1768 4.83924 12.2534 4.82851 12.2935 4.7318Z" fill="#FFEC2D"/>
<path d="M15.5569 4.08302C15.6318 4.15612 15.7059 4.13761 15.7614 4.08209C15.8354 4.00807 16.0862 3.55374 16.0862 3.55374C16.0862 3.55374 15.6318 3.8045 15.5578 3.87852C15.5023 3.93404 15.4829 4.00899 15.5569 4.08302Z" fill="#FFEC2D"/>
<path d="M15.5564 6.91264C15.4833 6.98759 15.5018 7.06161 15.5574 7.11713C15.6314 7.19116 16.0857 7.44192 16.0857 7.44192C16.0857 7.44192 15.835 6.98759 15.7609 6.91356C15.7054 6.85804 15.6305 6.83861 15.5564 6.91264Z" fill="#FFEC2D"/>
<path d="M12.7283 6.91268C12.6533 6.83958 12.5793 6.85809 12.5238 6.9136C12.4498 6.98763 12.199 7.44196 12.199 7.44196C12.199 7.44196 12.6533 7.1912 12.7274 7.11717C12.7829 7.06166 12.8023 6.9867 12.7283 6.91268Z" fill="#FFEC2D"/>
<path d="M12.7248 4.08282C12.7979 4.00787 12.7794 3.93384 12.7239 3.87832C12.6499 3.8043 12.1955 3.55353 12.1955 3.55353C12.1955 3.55353 12.4463 4.00787 12.5203 4.08189C12.5758 4.13741 12.6508 4.15684 12.7248 4.08282Z" fill="#FFEC2D"/>
<path d="M15.9885 4.73225C16.0298 4.82847 16.1053 4.8397 16.1778 4.80966C16.2745 4.76959 16.6801 4.44581 16.6801 4.44581C16.6801 4.44581 16.1644 4.50362 16.0677 4.54368C15.9951 4.57373 15.9485 4.63554 15.9885 4.73225Z" fill="#FFEC2D"/>
<path d="M14.9087 7.34661C14.8125 7.38788 14.8012 7.46335 14.8313 7.53589C14.8714 7.63261 15.1951 8.03815 15.1951 8.03815C15.1951 8.03815 15.1373 7.52244 15.0973 7.42572C15.0672 7.35318 15.0054 7.30655 14.9087 7.34661Z" fill="#FFEC2D"/>
<path d="M12.2927 6.26366C12.2514 6.16744 12.176 6.15621 12.1034 6.18625C12.0067 6.22632 11.6012 6.5501 11.6012 6.5501C11.6012 6.5501 12.1169 6.49229 12.2136 6.45223C12.2861 6.42218 12.3328 6.36038 12.2927 6.26366Z" fill="#FFEC2D"/>
<path d="M13.3765 3.64944C13.4727 3.60817 13.4839 3.5327 13.4539 3.46016C13.4138 3.36344 13.09 2.9579 13.09 2.9579C13.09 2.9579 13.1478 3.47361 13.1879 3.57033C13.2179 3.64287 13.2797 3.6895 13.3765 3.64944Z" fill="#FFEC2D"/>
<path d="M14.5303 3.53595C14.6332 3.55509 14.6845 3.49857 14.6998 3.42156C14.7202 3.31889 14.6763 2.80181 14.6763 2.80181C14.6763 2.80181 14.4379 3.26272 14.4175 3.3654C14.4021 3.44241 14.4276 3.51552 14.5303 3.53595Z" fill="#FFEC2D"/>
<path d="M16.1011 5.88851C16.0819 5.99144 16.1384 6.04271 16.2154 6.05803C16.3181 6.07845 16.8352 6.03454 16.8352 6.03454C16.8352 6.03454 16.3743 5.79609 16.2716 5.77567C16.1946 5.76035 16.1215 5.78583 16.1011 5.88851Z" fill="#FFEC2D"/>
<path d="M13.7509 7.46048C13.648 7.44134 13.5967 7.49786 13.5814 7.57486C13.561 7.67754 13.6049 8.19462 13.6049 8.19462C13.6049 8.19462 13.8434 7.73371 13.8638 7.63103C13.8791 7.55402 13.8536 7.48091 13.7509 7.46048Z" fill="#FFEC2D"/>
<path d="M12.1802 5.10783C12.1993 5.0049 12.1428 4.95363 12.0658 4.93831C11.9631 4.91789 11.4461 4.9618 11.4461 4.9618C11.4461 4.9618 11.907 5.20025 12.0096 5.22067C12.0866 5.23599 12.1598 5.21051 12.1802 5.10783Z" fill="#FFEC2D"/>
<path d="M15.2546 3.83421C15.3424 3.89128 15.4114 3.85869 15.455 3.79341C15.5132 3.70636 15.6705 3.21184 15.6705 3.21184C15.6705 3.21184 15.2738 3.54642 15.2156 3.63346C15.172 3.69875 15.1676 3.77605 15.2546 3.83421Z" fill="#FFEC2D"/>
<path d="M15.8055 6.60964C15.7484 6.69741 15.781 6.7664 15.8463 6.81003C15.9333 6.86819 16.4278 7.02549 16.4278 7.02549C16.4278 7.02549 16.0933 6.62881 16.0062 6.57065C15.9409 6.52703 15.8636 6.52259 15.8055 6.60964Z" fill="#FFEC2D"/>
<path d="M13.0305 7.16156C12.9428 7.10449 12.8738 7.13708 12.8302 7.20237C12.772 7.28941 12.6147 7.78393 12.6147 7.78393C12.6147 7.78393 13.0114 7.44936 13.0695 7.36231C13.1132 7.29703 13.1176 7.21973 13.0305 7.16156Z" fill="#FFEC2D"/>
<path d="M12.4797 4.3863C12.5368 4.29853 12.5042 4.22954 12.4389 4.18592C12.3518 4.12775 11.8573 3.97045 11.8573 3.97045C11.8573 3.97045 12.1919 4.36713 12.2789 4.42529C12.3442 4.46891 12.4215 4.47335 12.4797 4.3863Z" fill="#FFEC2D"/>
<path d="M15.8053 4.38649C15.8645 4.47281 15.9407 4.4691 16.006 4.42548C16.093 4.36732 16.4276 3.97064 16.4276 3.97064C16.4276 3.97064 15.9331 4.12795 15.8461 4.18611C15.7808 4.22973 15.7471 4.29945 15.8053 4.38649Z" fill="#FFEC2D"/>
<path d="M15.2496 7.16183C15.1633 7.22107 15.167 7.29729 15.2106 7.36257C15.2688 7.44962 15.6655 7.7842 15.6655 7.7842C15.6655 7.7842 15.5082 7.28967 15.45 7.20263C15.4064 7.13734 15.3367 7.10366 15.2496 7.16183Z" fill="#FFEC2D"/>
<path d="M12.476 6.60984C12.4167 6.52353 12.3405 6.52724 12.2752 6.57086C12.1882 6.62902 11.8536 7.0257 11.8536 7.0257C11.8536 7.0257 12.3481 6.86839 12.4352 6.81023C12.5005 6.76661 12.5342 6.69689 12.476 6.60984Z" fill="#FFEC2D"/>
<path d="M13.0277 3.83451C13.114 3.77526 13.1103 3.69905 13.0667 3.63377C13.0086 3.54672 12.6119 3.21214 12.6119 3.21214C12.6119 3.21214 12.7692 3.70667 12.8273 3.79371C12.871 3.85899 12.9407 3.89267 13.0277 3.83451Z" fill="#FFEC2D"/>
<path d="M16.1025 5.10793C16.1242 5.21035 16.1961 5.23609 16.2731 5.22078C16.3758 5.20035 16.8367 4.9619 16.8367 4.9619C16.8367 4.9619 16.3196 4.91799 16.2169 4.93842C16.1399 4.95373 16.0821 5.00526 16.1025 5.10793Z" fill="#FFEC2D"/>
<path d="M14.5331 7.46062C14.4307 7.48233 14.4049 7.55416 14.4203 7.63116C14.4407 7.73384 14.6791 8.19475 14.6791 8.19475C14.6791 8.19475 14.723 7.67768 14.7026 7.575C14.6873 7.49799 14.6358 7.44019 14.5331 7.46062Z" fill="#FFEC2D"/>
<path d="M12.1787 5.8885C12.157 5.78608 12.0852 5.76034 12.0082 5.77565C11.9055 5.79608 11.4446 6.03453 11.4446 6.03453C11.4446 6.03453 11.9617 6.07844 12.0643 6.05801C12.1413 6.0427 12.1991 5.99117 12.1787 5.8885Z" fill="#FFEC2D"/>
<path d="M13.7521 3.53581C13.8545 3.5141 13.8802 3.44227 13.8649 3.36527C13.8445 3.26259 13.606 2.80168 13.606 2.80168C13.606 2.80168 13.5621 3.31875 13.5825 3.42143C13.5979 3.49844 13.6494 3.55623 13.7521 3.53581Z" fill="#FFEC2D"/>
<path d="M13.8261 9.31226C13.7789 9.31487 13.7331 9.32097 13.6882 9.33537C13.6267 9.34366 13.5678 9.36503 13.5068 9.37507L13.4823 9.37899L13.4413 9.38292C13.4439 9.39425 13.4457 9.4056 13.4457 9.41694C13.4457 9.42872 13.4444 9.44005 13.4413 9.44966C13.4387 9.45882 13.4304 9.47015 13.4239 9.47714C13.4152 9.48673 13.406 9.49502 13.3951 9.50025C13.3846 9.50548 13.3728 9.50767 13.3611 9.50855C13.3493 9.50898 13.3371 9.50855 13.3257 9.50418C13.3139 9.50025 13.303 9.49284 13.293 9.48411C13.2809 9.4871 13.2687 9.48928 13.2564 9.49066C13.2442 9.49197 13.2328 9.49197 13.2219 9.49066C13.2097 9.48716 13.197 9.48324 13.1853 9.47845C13.1734 9.47353 13.162 9.46754 13.1512 9.46056C13.1068 9.48673 13.057 9.5116 13.03 9.5574C13.0147 9.57833 13.0117 9.60232 13.0082 9.62718C13.006 9.65773 13.0138 9.69 13.0269 9.71835C13.0317 9.72664 13.0357 9.68826 13.0505 9.68302C13.0753 9.66252 13.1063 9.64769 13.1377 9.63941C13.1643 9.62587 13.1608 9.64027 13.1499 9.66121C13.1473 9.67212 13.1325 9.71355 13.1526 9.69261C13.2411 9.65336 13.3393 9.6455 13.4348 9.6381C13.5735 9.6237 13.7126 9.62064 13.8518 9.6189L14.2444 9.62718C14.3067 9.62894 14.3695 9.64289 14.4311 9.63242C14.4459 9.62849 14.469 9.62763 14.4777 9.6189C14.4498 9.60277 14.4171 9.60232 14.3861 9.59839H14.1366C14.0673 9.59142 13.9949 9.59054 13.9294 9.56437C13.912 9.5574 13.8958 9.54082 13.8793 9.5587C13.8544 9.56743 13.8278 9.57353 13.8016 9.57528C13.7558 9.57877 13.71 9.56917 13.6677 9.55216C13.6982 9.50985 13.7349 9.47277 13.7685 9.43351C13.7414 9.42915 13.7153 9.42349 13.6882 9.41694C13.7358 9.38423 13.7798 9.34714 13.8261 9.31226Z" fill="#FFEC2D"/>
<path d="M15.8625 9.76425C15.7677 9.82117 15.6953 9.72026 15.6161 9.68999C15.5595 9.72073 15.5542 9.82357 15.5013 9.87228C15.4381 9.94427 15.3605 9.85216 15.3663 9.78113C15.2906 9.84491 15.2524 9.98949 15.13 9.97017C15.072 9.92286 15.029 9.8236 14.9847 9.93662C14.9486 9.99187 14.8524 10.0705 14.8026 9.98705C14.7872 9.91338 14.7502 9.82675 14.7101 9.94376C14.6826 10.0265 14.5943 10.0874 14.5089 10.0512C14.4621 10.0129 14.5464 9.87156 14.4869 9.88162C14.3979 9.94044 14.3461 10.0865 14.222 10.0748C14.1737 10.0207 14.2512 9.92899 14.1983 9.86891C14.1359 9.94904 14.0667 10.0664 13.9587 10.0748C13.9065 10.0325 13.9607 9.91123 13.9274 9.89328C13.8166 9.95973 13.6997 10.0782 13.5603 10.0411C13.6146 9.83336 13.8415 9.76048 14.0324 9.74428C14.3607 9.70392 14.7061 9.77812 15.022 9.65961C15.073 9.62856 15.1967 9.58451 15.1527 9.51249C15.1137 9.4556 15.2541 9.47785 15.2676 9.41141C15.2593 9.32727 15.3321 9.33885 15.4032 9.33148C15.7222 9.31772 16.0373 9.3849 16.3554 9.39631C16.3794 9.55128 16.2075 9.66009 16.0691 9.61223C16.003 9.62295 15.9038 9.46024 15.9233 9.5786C15.91 9.64073 15.9193 9.72278 15.8625 9.76428M13.1485 9.44697C13.2223 9.51456 13.2741 9.43423 13.3431 9.40488C13.5747 9.32525 13.7767 9.1861 13.9758 9.04706C14.0964 8.94721 14.2011 8.81773 14.3631 8.78534C14.6792 8.68977 15.0152 8.70137 15.3325 8.61317C15.5741 8.28235 15.9845 8.16433 16.3283 7.97418C16.4055 7.95019 16.4353 7.88666 16.46 7.81652C16.5912 7.60937 16.77 7.42581 16.9814 7.30042C17.0814 7.24576 17.2008 7.21429 17.314 7.23928C17.3059 7.37416 17.2285 7.4937 17.1351 7.58698C17.2116 7.5853 17.2773 7.537 17.3545 7.53973C17.381 7.67815 17.2315 7.75059 17.152 7.83678C17.1963 7.84707 17.366 7.85991 17.2735 7.90429C17.1557 7.98607 17.0211 8.04223 16.9123 8.1372C17.0127 8.15524 17.0241 8.17657 16.922 8.21287C16.8668 8.25032 16.7605 8.26341 16.7503 8.33636C16.8261 8.38296 16.7153 8.42923 16.6726 8.44438C16.591 8.46341 16.5052 8.49889 16.6137 8.56094C16.5726 8.62294 16.4846 8.63617 16.4127 8.63004C16.4345 8.70031 16.4661 8.77894 16.3749 8.80994C16.1704 8.96449 15.9305 9.07692 15.6735 9.10264C15.9945 9.12732 16.3252 9.06772 16.5996 8.89312C16.6358 8.85029 16.8257 8.80426 16.7195 8.76825C16.6695 8.74744 16.5623 8.72432 16.555 8.68619C16.7036 8.59451 16.8908 8.62712 17.0507 8.57265C17.0548 8.5209 16.9291 8.53529 16.8822 8.52352C16.7704 8.51436 16.777 8.48583 16.8848 8.47525C17.0212 8.43914 17.1756 8.43203 17.2904 8.34311C17.197 8.29984 17.0795 8.33793 16.9798 8.3026C17.1488 8.22866 17.3481 8.22124 17.4997 8.11018C17.5687 8.03337 17.4112 8.05737 17.3653 8.05924C17.2717 8.07553 17.2285 8.03074 17.3348 7.99186C17.5163 7.85803 17.7461 7.7711 17.8736 7.57707C17.9038 7.53364 17.9447 7.40278 17.8484 7.44985C17.7217 7.49197 17.6102 7.63438 17.4659 7.59033C17.7503 7.36991 18.0209 7.11897 18.2153 6.81394C18.2254 6.72596 18.0873 6.71645 18.0513 6.78551C17.8686 6.96157 17.7032 7.16939 17.4693 7.27977C17.6933 7.06353 17.8786 6.80747 18.0402 6.54209C18.0748 6.46315 18.1679 6.36823 18.1174 6.28059C18.0359 6.21316 17.934 6.27489 17.8917 6.35557C17.7497 6.541 17.6418 6.75743 17.4592 6.90846C17.6191 6.60328 17.7846 6.27841 17.7887 5.92641C17.7882 5.85394 17.7736 5.74721 17.6752 5.76074C17.5972 5.77473 17.6157 5.89149 17.5836 5.95055C17.5127 6.19103 17.4795 6.45147 17.3343 6.66204C17.3669 6.46662 17.4241 6.26291 17.3802 6.06558C17.3597 5.97739 17.2173 6.01533 17.2356 6.10261C17.0655 6.96445 16.4872 7.7182 15.7309 8.15423C15.3846 8.35017 14.9978 8.47649 14.6042 8.53375C14.4984 8.55692 14.3839 8.54333 14.2827 8.57942C14.0375 8.76743 13.8891 9.08201 13.5786 9.18052C13.4395 9.24967 13.2581 9.2637 13.1586 9.39295C13.15 9.40948 13.1481 9.42863 13.1485 9.44697Z" fill="#FFEC2D"/>
<path d="M14.0791 8.5727C14.0333 8.65585 14.0063 8.75143 13.9475 8.82588C13.7703 8.66465 13.5134 8.66997 13.2886 8.65924C13.1031 8.64934 12.9013 8.63222 12.7578 8.49991C12.6068 8.37622 12.4836 8.21563 12.3148 8.11527C12.1608 8.0734 12.0056 8.021 11.8817 7.91544C11.6171 7.69975 11.4656 7.37973 11.2071 7.15732C11.1578 7.1088 11.0996 7.07121 11.0444 7.03004C10.9919 7.04282 11.0157 7.15607 10.9515 7.09835C10.9165 7.07348 10.8291 7.07106 10.8213 7.10579C10.9003 7.20996 10.9794 7.32889 10.9904 7.46212C10.9365 7.46765 10.8406 7.45074 10.8139 7.47081C10.8855 7.57812 10.9773 7.67329 11.0815 7.74906C11.0315 7.75709 10.933 7.75272 10.9138 7.77288C11.0173 7.85723 11.1283 7.94344 11.2638 7.96511C11.2916 8.00167 11.2233 8.07228 11.2807 8.10351C11.314 8.11712 11.4239 8.13989 11.3482 8.17777C11.2963 8.21277 11.3155 8.29437 11.382 8.29253C11.424 8.31399 11.5183 8.31924 11.5257 8.35639C11.4884 8.39428 11.3726 8.4392 11.4712 8.47469C11.5633 8.52578 11.6684 8.55895 11.7735 8.56259C11.7208 8.607 11.6557 8.63221 11.6014 8.67399C11.8441 8.81633 12.1132 8.90993 12.3791 9.00008C12.485 9.03545 12.5921 9.06843 12.7018 9.0892C12.3829 9.07078 12.0747 8.97638 11.7843 8.84717C11.6338 8.78115 11.4822 8.71736 11.328 8.6605C11.3956 8.6253 11.4738 8.6167 11.544 8.58624C11.3984 8.55705 11.2393 8.5475 11.1113 8.46745C11.1309 8.43244 11.2053 8.43079 11.2464 8.41296C11.3238 8.39443 11.3717 8.37195 11.2627 8.36523C11.1527 8.33538 11.0265 8.34878 10.9296 8.28242C10.9358 8.24264 11.0373 8.25651 11.0786 8.23933C11.1306 8.23039 11.1885 8.2229 11.23 8.1879C11.06 8.1174 10.8376 8.16735 10.7044 8.01719C10.6737 7.95998 10.7998 8.00607 10.8357 7.99653C10.9269 7.99653 11.025 8.02553 11.1119 7.98874C10.8641 7.87996 10.5987 7.77812 10.4098 7.57691C10.3888 7.54457 10.3259 7.4562 10.3767 7.44527C10.5237 7.46473 10.6302 7.62524 10.7875 7.60026C10.8084 7.57208 10.6961 7.52592 10.6681 7.48565C10.4387 7.28883 10.2161 7.07522 10.0553 6.8174C10.0443 6.7313 10.1796 6.71841 10.2152 6.7849C10.3907 6.95385 10.5491 7.151 10.7676 7.26634C10.8451 7.30394 10.7231 7.22185 10.7068 7.19208C10.5049 6.95766 10.3128 6.71007 10.1717 6.43398C10.1464 6.38423 10.1046 6.29415 10.1801 6.26766C10.2557 6.22982 10.3306 6.28138 10.3689 6.34627C10.5174 6.53346 10.6266 6.75595 10.8115 6.91191C10.6539 6.60623 10.4858 6.28446 10.4817 5.93271C10.4854 5.86453 10.4898 5.76139 10.5822 5.76419C10.6599 5.75241 10.6476 5.85181 10.6731 5.89921C10.7496 6.15762 10.7829 6.43732 10.9364 6.66548C10.9025 6.47378 10.8526 6.27636 10.8857 6.08149C10.8934 6.0175 10.9654 5.99813 11.0124 6.03681C11.0505 6.12985 11.0584 6.24475 11.093 6.34421C11.2901 7.0184 11.7326 7.61136 12.3092 8.00927C12.7841 8.335 13.3478 8.52944 13.923 8.56335C13.9749 8.56788 14.0271 8.56945 14.0791 8.57264" fill="#FFEC2D"/>
<path d="M13.3474 9.46654C13.3645 9.46654 13.3784 9.45267 13.3784 9.43556C13.3784 9.41845 13.3645 9.40459 13.3474 9.40459C13.3303 9.40459 13.3164 9.41845 13.3164 9.43556C13.3164 9.45267 13.3303 9.46654 13.3474 9.46654Z" fill="#FFEC2D"/>
<path d="M13.3453 9.44438C13.3527 9.44438 13.3586 9.43842 13.3586 9.43107C13.3586 9.42373 13.3527 9.41777 13.3453 9.41777C13.338 9.41777 13.332 9.42373 13.332 9.43107C13.332 9.43842 13.338 9.44438 13.3453 9.44438Z" fill="#FFEC2D" stroke="#FFEC2D" stroke-width="0.1905"/>
<path d="M1.57171 0.956281C1.57171 0.956281 1.44595 0.850598 1.40324 0.90361C1.33454 0.988865 1.61445 1.41354 1.61445 1.56309C1.61445 1.80857 1.45065 1.87532 1.24839 1.91038C1.11268 1.93391 0.891684 1.90054 0.891684 1.90054C0.933297 1.84462 0.960359 1.82815 1.03047 1.82369C0.952416 1.78316 0.872932 1.69518 0.872932 1.55825C0.872932 1.34707 0.959862 1.26002 0.959862 1.02195C0.959862 0.889869 0.851562 0.721741 0.851562 0.721741C1.043 0.740899 1.13787 0.918148 1.08389 1.0598C1.11436 1.06419 1.14202 1.05732 1.16578 1.03481C1.17979 1.07407 1.15767 1.11965 1.12806 1.15892C1.15191 1.17166 1.16943 1.16402 1.20744 1.15617C1.20382 1.19663 1.17959 1.23961 1.12028 1.28007C1.29238 1.23538 1.39827 1.35532 1.39827 1.4809C1.39827 1.57575 1.3318 1.64373 1.26683 1.64373C1.24584 1.64373 1.215 1.63508 1.19761 1.62208C1.18533 1.64819 1.19165 1.68313 1.20428 1.70924C1.15668 1.69665 1.12645 1.66837 1.14796 1.60951C1.11138 1.60614 1.08229 1.59379 1.06251 1.57025C1.08256 1.54456 1.11298 1.52977 1.14796 1.53098C1.12133 1.47602 1.15101 1.44526 1.19426 1.42032C1.19426 1.42032 1.16675 1.53098 1.23698 1.53098C1.26856 1.53098 1.29734 1.52069 1.29734 1.47415C1.29734 1.43362 1.26191 1.37748 1.18001 1.38105C1.0981 1.38462 1.03172 1.43752 1.03172 1.56826C1.03172 1.68886 1.129 1.74885 1.25719 1.75272C1.37278 1.75629 1.46002 1.69368 1.46002 1.57442C1.46002 1.41572 1.23091 1.05395 1.23091 0.912534C1.23091 0.806407 1.32634 0.74718 1.4197 0.74718C1.54078 0.74718 1.64292 0.867061 1.64292 0.867061L1.5718 0.956242L1.57171 0.956281Z" fill="#FFEC2D"/>
<path d="M1.59677 3.82503C1.59677 4.09028 1.35864 4.22661 1.17151 4.22661C0.919392 4.22661 0.785156 4.07587 0.785156 3.87855C0.785156 3.76669 0.805649 3.69651 0.857221 3.58946L1.43501 2.39009C1.4552 2.34837 1.46171 2.30087 1.46171 2.23125C1.46171 2.12372 1.35742 2.03584 1.24806 2.03314C1.14837 2.03065 1.03976 2.12608 1.03976 2.23482C1.03976 2.3669 1.10828 2.42578 1.17863 2.42578C1.2652 2.42578 1.2997 2.39019 1.2997 2.32941C1.2997 2.28705 1.27924 2.26873 1.24984 2.26873C1.17559 2.26873 1.19644 2.36868 1.19644 2.36868C1.15956 2.3606 1.12925 2.32292 1.14658 2.27586C1.11858 2.26967 1.0933 2.25466 1.07447 2.23303C1.09438 2.21373 1.11721 2.19883 1.14658 2.19377C1.12919 2.13635 1.15243 2.10831 1.20266 2.0965C1.19252 2.11858 1.19218 2.1389 1.19555 2.15807C1.27462 2.13558 1.39584 2.17137 1.39584 2.30798C1.39584 2.44362 1.3017 2.55784 1.12521 2.52929C1.16719 2.54937 1.18854 2.59045 1.19286 2.63638C1.1608 2.62389 1.12521 2.62211 1.12521 2.62211C1.14585 2.65849 1.1745 2.68986 1.17327 2.76131C1.14056 2.74643 1.11016 2.71888 1.06823 2.73631C1.13405 2.86584 1.05318 3.04399 0.847459 3.08614C0.922755 2.99788 0.959619 2.90259 0.959619 2.80771C0.959619 2.50024 0.874167 2.44857 0.874167 2.23481C0.874167 2.14537 0.920138 2.04879 1.01126 1.98315V1.98672C0.951034 1.97059 0.912457 1.94094 0.890276 1.90064C1.02788 1.86162 1.22789 1.86234 1.33528 1.9046C1.45873 1.9189 1.54492 2.0136 1.5703 2.06168C1.59569 2.10976 1.64501 2.28353 1.5703 2.44002L0.982768 3.68578C0.957276 3.74028 0.941809 3.7981 0.941809 3.86069C0.941809 4.01811 1.08602 4.07307 1.16793 4.07307C1.26586 4.07307 1.36556 3.99848 1.36556 3.90531C1.36556 3.84628 1.3335 3.81073 1.28721 3.81073C1.17653 3.81073 1.18326 3.90488 1.20532 3.96421C1.13644 3.93324 1.09639 3.87795 1.1074 3.81965C1.0684 3.8143 1.03128 3.79581 0.997018 3.75718C1.02398 3.72315 1.05685 3.69741 1.1074 3.6965C1.08532 3.60605 1.14587 3.5678 1.20532 3.54659C1.18652 3.61297 1.17418 3.68937 1.28721 3.68937C1.36965 3.68937 1.43454 3.70364 1.47238 3.75719L1.48128 3.4038C1.48604 3.29783 1.33945 3.30086 1.24628 3.33241C1.28144 3.21035 1.35356 3.14436 1.52046 3.16107C1.47994 3.14413 1.43677 3.10601 1.43677 3.03257C1.4368 2.93321 1.51741 2.82313 1.57033 2.79058L1.59679 3.82504L1.59677 3.82503Z" fill="#FFEC2D"/>
<path d="M1.59677 4.62065C1.59677 4.3554 1.35864 4.21907 1.17151 4.21907C0.919392 4.21907 0.785156 4.3698 0.785156 4.56713C0.785156 4.67899 0.805649 4.74917 0.857221 4.85622L1.43501 6.05559C1.4552 6.09731 1.46171 6.14481 1.46171 6.21443C1.46171 6.32196 1.35742 6.40984 1.24806 6.41254C1.14837 6.41503 1.03976 6.3196 1.03976 6.21086C1.03976 6.07878 1.10828 6.01989 1.17863 6.01989C1.2652 6.01989 1.2997 6.05549 1.2997 6.11627C1.2997 6.15863 1.27924 6.17695 1.24984 6.17695C1.17559 6.17695 1.19644 6.077 1.19644 6.077C1.15956 6.08508 1.12925 6.12276 1.14658 6.16982C1.11858 6.17601 1.0933 6.19102 1.07447 6.21265C1.09438 6.23195 1.11721 6.24684 1.14658 6.25191C1.12919 6.30933 1.15243 6.33737 1.20266 6.34918C1.19252 6.3271 1.19218 6.30678 1.19555 6.28761C1.27462 6.3101 1.39584 6.27431 1.39584 6.13769C1.39584 6.00206 1.3017 5.88784 1.12521 5.91638C1.16719 5.89631 1.18854 5.85523 1.19286 5.8093C1.1608 5.82179 1.12521 5.82357 1.12521 5.82357C1.14585 5.78719 1.1745 5.75582 1.17327 5.68437C1.14056 5.69925 1.11016 5.72679 1.06823 5.70936C1.13405 5.57984 1.05318 5.40169 0.847459 5.35954C0.922755 5.4478 0.959619 5.54309 0.959619 5.63797C0.959619 5.94543 0.874167 5.99711 0.874167 6.21087C0.874167 6.30031 0.920138 6.39689 1.01126 6.46253V6.45895C0.951034 6.47509 0.912457 6.50474 0.890276 6.54503C1.02788 6.58406 1.22789 6.58334 1.33528 6.54108C1.45873 6.52678 1.54492 6.43208 1.5703 6.384C1.59569 6.33592 1.64501 6.16215 1.5703 6.00566L0.982768 4.7599C0.957276 4.70539 0.941809 4.64758 0.941809 4.58499C0.941809 4.42757 1.08602 4.3726 1.16793 4.3726C1.26586 4.3726 1.36556 4.44719 1.36556 4.54037C1.36556 4.5994 1.3335 4.63495 1.28721 4.63495C1.17653 4.63495 1.18326 4.5408 1.20532 4.48147C1.13644 4.51244 1.09639 4.56773 1.1074 4.62603C1.0684 4.63138 1.03128 4.64987 0.997018 4.6885C1.02398 4.72252 1.05685 4.74826 1.1074 4.74918C1.08532 4.83963 1.14587 4.87788 1.20532 4.89909C1.18652 4.83271 1.17418 4.75631 1.28721 4.75631C1.36965 4.75631 1.43454 4.74203 1.47238 4.68849L1.48128 5.04187C1.48604 5.14784 1.33945 5.14482 1.24628 5.11327C1.28144 5.23532 1.35356 5.30132 1.52046 5.28461C1.47994 5.30155 1.43677 5.33967 1.43677 5.41311C1.4368 5.51247 1.51741 5.62255 1.57033 5.6551L1.59679 4.62064L1.59677 4.62065Z" fill="#FFEC2D"/>
<path d="M1.56891 0.956266C1.56891 0.956266 1.69467 0.850583 1.73738 0.903594C1.80609 0.98885 1.52618 1.41353 1.52618 1.56308C1.52618 1.80856 1.68997 1.87531 1.89223 1.91036C2.02794 1.93389 2.24894 1.90052 2.24894 1.90052C2.20733 1.84461 2.18027 1.82813 2.11015 1.82367C2.18821 1.78314 2.26769 1.69517 2.26769 1.55823C2.26769 1.34705 2.18076 1.26 2.18076 1.02193C2.18076 0.889854 2.28906 0.721725 2.28906 0.721725C2.09763 0.740883 2.00275 0.918133 2.05673 1.05979C2.02627 1.06417 1.99861 1.0573 1.97484 1.03479C1.96084 1.07405 1.98296 1.11963 2.01257 1.1589C1.98871 1.17165 1.97119 1.16401 1.93319 1.15615C1.9368 1.19662 1.96104 1.23959 2.02034 1.28005C1.84825 1.23536 1.74236 1.35531 1.74236 1.48088C1.74236 1.57573 1.80882 1.64371 1.87379 1.64371C1.89478 1.64371 1.92563 1.63506 1.94302 1.62207C1.95529 1.64817 1.94897 1.68311 1.93634 1.70922C1.98395 1.69663 2.01418 1.66835 1.99267 1.60949C2.02924 1.60613 2.05833 1.59378 2.07812 1.57023C2.05807 1.54455 2.02764 1.52976 1.99267 1.53096C2.0193 1.476 1.98962 1.44525 1.94637 1.42031C1.94637 1.42031 1.97387 1.53096 1.90364 1.53096C1.87206 1.53096 1.84329 1.52068 1.84329 1.47413C1.84329 1.4336 1.87871 1.37746 1.96062 1.38104C2.04252 1.38461 2.10891 1.4375 2.10891 1.56824C2.10891 1.68885 2.01163 1.74883 1.88344 1.7527C1.76785 1.75628 1.6806 1.69366 1.6806 1.57441C1.6806 1.4157 1.90971 1.05394 1.90971 0.912519C1.90971 0.806392 1.81429 0.747165 1.72092 0.747165C1.59985 0.747165 1.4977 0.867045 1.4977 0.867045L1.56882 0.956226L1.56891 0.956266Z" fill="#FFEC2D"/>
<path d="M1.54385 3.82501C1.54385 4.09027 1.78199 4.2266 1.96912 4.2266C2.22123 4.2266 2.35547 4.07586 2.35547 3.87854C2.35547 3.76668 2.33498 3.6965 2.2834 3.58944L1.70562 2.39007C1.68543 2.34835 1.67891 2.30085 1.67891 2.23123C1.67891 2.12371 1.78321 2.03582 1.89257 2.03312C1.99225 2.03064 2.10087 2.12606 2.10087 2.23481C2.10087 2.36688 2.03235 2.42577 1.962 2.42577C1.87542 2.42577 1.84093 2.39018 1.84093 2.32939C1.84093 2.28703 1.86138 2.26871 1.89079 2.26871C1.96504 2.26871 1.94419 2.36866 1.94419 2.36866C1.98107 2.36059 2.01137 2.3229 1.99405 2.27584C2.02205 2.26966 2.04732 2.25464 2.06615 2.23301C2.04625 2.21371 2.02341 2.19882 1.99405 2.19376C2.01144 2.13633 1.9882 2.10829 1.93796 2.09649C1.9481 2.11856 1.94844 2.13889 1.94508 2.15806C1.866 2.13556 1.74479 2.17135 1.74479 2.30797C1.74479 2.44361 1.83893 2.55782 2.01542 2.52928C1.97344 2.54935 1.95208 2.59043 1.94776 2.63636C1.97982 2.62388 2.01542 2.6221 2.01542 2.6221C1.99478 2.65848 1.96612 2.68984 1.96735 2.76129C2.00007 2.74642 2.03047 2.71887 2.07239 2.7363C2.00657 2.86582 2.08744 3.04398 2.29317 3.08613C2.21787 2.99786 2.18101 2.90257 2.18101 2.8077C2.18101 2.50023 2.26646 2.44855 2.26646 2.23479C2.26646 2.14535 2.22049 2.04878 2.12937 1.98314V1.98671C2.18959 1.97057 2.22817 1.94092 2.25035 1.90063C2.11275 1.86161 1.91273 1.86233 1.80535 1.90458C1.68189 1.91888 1.59571 2.01359 1.57032 2.06167C1.54494 2.10974 1.49562 2.28351 1.57032 2.44001L2.15786 3.68577C2.18335 3.74027 2.19882 3.79808 2.19882 3.86067C2.19882 4.0181 2.05461 4.07306 1.97269 4.07306C1.87477 4.07306 1.77507 3.99847 1.77507 3.9053C1.77507 3.84627 1.80713 3.81071 1.85341 3.81071C1.96409 3.81071 1.95737 3.90486 1.9353 3.9642C2.00419 3.93322 2.04423 3.87793 2.03323 3.81964C2.07222 3.81428 2.10935 3.79579 2.14361 3.75716C2.11665 3.72314 2.08378 3.6974 2.03323 3.69648C2.0553 3.60603 1.99475 3.56778 1.9353 3.54657C1.95411 3.61296 1.96645 3.68935 1.85341 3.68935C1.77097 3.68935 1.70609 3.70363 1.66825 3.75718L1.65935 3.40379C1.65458 3.29782 1.80117 3.30084 1.89434 3.33239C1.85918 3.21034 1.78707 3.14435 1.62017 3.16106C1.66068 3.14411 1.70385 3.10599 1.70385 3.03255C1.70383 2.93319 1.62322 2.82311 1.5703 2.79057L1.54384 3.82503L1.54385 3.82501Z" fill="#FFEC2D"/>
<path d="M1.54385 4.62063C1.54385 4.35538 1.78199 4.21905 1.96912 4.21905C2.22123 4.21905 2.35547 4.36979 2.35547 4.56711C2.35547 4.67897 2.33498 4.74915 2.2834 4.85621L1.70562 6.05558C1.68543 6.0973 1.67891 6.1448 1.67891 6.21441C1.67891 6.32194 1.78321 6.40983 1.89257 6.41252C1.99225 6.41501 2.10087 6.31959 2.10087 6.21084C2.10087 6.07877 2.03235 6.01988 1.962 6.01988C1.87542 6.01988 1.84093 6.05547 1.84093 6.11626C1.84093 6.15862 1.86138 6.17694 1.89079 6.17694C1.96504 6.17694 1.94419 6.07699 1.94419 6.07699C1.98107 6.08506 2.01137 6.12275 1.99405 6.1698C2.02205 6.17599 2.04732 6.191 2.06615 6.21264C2.04625 6.23194 2.02341 6.24683 1.99405 6.25189C2.01144 6.30931 1.9882 6.33736 1.93796 6.34916C1.9481 6.32709 1.94844 6.30676 1.94508 6.28759C1.866 6.31009 1.74479 6.2743 1.74479 6.13768C1.74479 6.00204 1.83893 5.88783 2.01542 5.91637C1.97344 5.89629 1.95208 5.85522 1.94776 5.80929C1.97982 5.82177 2.01542 5.82355 2.01542 5.82355C1.99478 5.78717 1.96612 5.7558 1.96735 5.68435C2.00007 5.69923 2.03047 5.72678 2.07239 5.70935C2.00657 5.57982 2.08744 5.40167 2.29317 5.35952C2.21787 5.44779 2.18101 5.54308 2.18101 5.63795C2.18101 5.94542 2.26646 5.9971 2.26646 6.21086C2.26646 6.3003 2.22049 6.39687 2.12937 6.46251V6.45894C2.18959 6.47507 2.22817 6.50473 2.25035 6.54502C2.11275 6.58404 1.91273 6.58332 1.80535 6.54107C1.68189 6.52676 1.59571 6.43206 1.57032 6.38398C1.54494 6.33591 1.49562 6.16214 1.57032 6.00564L2.15786 4.75988C2.18335 4.70538 2.19882 4.64757 2.19882 4.58497C2.19882 4.42755 2.05461 4.37259 1.97269 4.37259C1.87477 4.37259 1.77507 4.44718 1.77507 4.54035C1.77507 4.59938 1.80713 4.63494 1.85341 4.63494C1.96409 4.63494 1.95737 4.54078 1.9353 4.48145C2.00419 4.51243 2.04423 4.56771 2.03323 4.62601C2.07222 4.63136 2.10935 4.64986 2.14361 4.68849C2.11665 4.72251 2.08378 4.74825 2.03323 4.74916C2.0553 4.83961 1.99475 4.87787 1.9353 4.89908C1.95411 4.83269 1.96645 4.7563 1.85341 4.7563C1.77097 4.7563 1.70609 4.74202 1.66825 4.68847L1.65935 5.04186C1.65458 5.14783 1.80117 5.14481 1.89434 5.11326C1.85918 5.23531 1.78707 5.3013 1.62017 5.28459C1.66068 5.30154 1.70385 5.33966 1.70385 5.41309C1.70383 5.51246 1.62322 5.62254 1.5703 5.65508L1.54384 4.62062L1.54385 4.62063Z" fill="#FFEC2D"/>
<path d="M1.57171 12.1337C1.57171 12.1337 1.44595 12.2394 1.40324 12.1864C1.33454 12.1012 1.61445 11.6765 1.61445 11.5269C1.61445 11.2815 1.45065 11.2147 1.24839 11.1796C1.11268 11.1561 0.891684 11.1895 0.891684 11.1895C0.933297 11.2454 0.960359 11.2619 1.03047 11.2663C0.952416 11.3069 0.872932 11.3948 0.872932 11.5318C0.872932 11.743 0.959862 11.83 0.959862 12.0681C0.959862 12.2002 0.851562 12.3683 0.851562 12.3683C1.043 12.3491 1.13787 12.1719 1.08389 12.0302C1.11436 12.0258 1.14202 12.0327 1.16578 12.0552C1.17979 12.016 1.15767 11.9704 1.12806 11.9311C1.15191 11.9184 1.16943 11.926 1.20744 11.9339C1.20382 11.8934 1.17959 11.8504 1.12028 11.81C1.29238 11.8546 1.39827 11.7347 1.39827 11.6091C1.39827 11.5143 1.3318 11.4463 1.26683 11.4463C1.24584 11.4463 1.215 11.4549 1.19761 11.4679C1.18533 11.4418 1.19165 11.4069 1.20428 11.3808C1.15668 11.3934 1.12645 11.4217 1.14796 11.4805C1.11138 11.4839 1.08229 11.4962 1.06251 11.5198C1.08256 11.5455 1.11298 11.5603 1.14796 11.559C1.12133 11.614 1.15101 11.6448 1.19426 11.6697C1.19426 11.6697 1.16675 11.559 1.23698 11.559C1.26856 11.559 1.29734 11.5693 1.29734 11.6159C1.29734 11.6564 1.26191 11.7125 1.18001 11.709C1.0981 11.7054 1.03172 11.6525 1.03172 11.5218C1.03172 11.4012 1.129 11.3412 1.25719 11.3373C1.37278 11.3337 1.46002 11.3964 1.46002 11.5156C1.46002 11.6743 1.23091 12.0361 1.23091 12.1775C1.23091 12.2836 1.32634 12.3428 1.4197 12.3428C1.54078 12.3428 1.64292 12.223 1.64292 12.223L1.5718 12.1338L1.57171 12.1337Z" fill="#FFEC2D"/>
<path d="M1.59677 9.265C1.59677 8.99974 1.35864 8.86341 1.17151 8.86341C0.919392 8.86341 0.785156 9.01415 0.785156 9.21148C0.785156 9.32333 0.805649 9.39351 0.857221 9.50057L1.43501 10.6999C1.4552 10.7417 1.46171 10.7892 1.46171 10.8588C1.46171 10.9663 1.35742 11.0542 1.24806 11.0569C1.14837 11.0594 1.03976 10.964 1.03976 10.8552C1.03976 10.7231 1.10828 10.6642 1.17863 10.6642C1.2652 10.6642 1.2997 10.6998 1.2997 10.7606C1.2997 10.803 1.27924 10.8213 1.24984 10.8213C1.17559 10.8213 1.19644 10.7213 1.19644 10.7213C1.15956 10.7294 1.12925 10.7671 1.14658 10.8142C1.11858 10.8204 1.0933 10.8354 1.07447 10.857C1.09438 10.8763 1.11721 10.8912 1.14658 10.8963C1.12919 10.9537 1.15243 10.9817 1.20266 10.9935C1.19252 10.9714 1.19218 10.9511 1.19555 10.932C1.27462 10.9544 1.39584 10.9187 1.39584 10.782C1.39584 10.6464 1.3017 10.5322 1.12521 10.5607C1.16719 10.5407 1.18854 10.4996 1.19286 10.4536C1.1608 10.4661 1.12521 10.4679 1.12521 10.4679C1.14585 10.4315 1.1745 10.4002 1.17327 10.3287C1.14056 10.3436 1.11016 10.3711 1.06823 10.3537C1.13405 10.2242 1.05318 10.046 0.847459 10.0039C0.922755 10.0921 0.959619 10.1874 0.959619 10.2823C0.959619 10.5898 0.874167 10.6415 0.874167 10.8552C0.874167 10.9447 0.920138 11.0412 1.01126 11.1069V11.1033C0.951034 11.1194 0.912457 11.1491 0.890276 11.1894C1.02788 11.2284 1.22789 11.2277 1.33528 11.1854C1.45873 11.1711 1.54492 11.0764 1.5703 11.0283C1.59569 10.9803 1.64501 10.8065 1.5703 10.65L0.982768 9.40425C0.957276 9.34974 0.941809 9.29193 0.941809 9.22934C0.941809 9.07191 1.08602 9.01695 1.16793 9.01695C1.26586 9.01695 1.36556 9.09154 1.36556 9.18472C1.36556 9.24375 1.3335 9.2793 1.28721 9.2793C1.17653 9.2793 1.18326 9.18515 1.20532 9.12581C1.13644 9.15679 1.09639 9.21208 1.1074 9.27038C1.0684 9.27573 1.03128 9.29422 0.997018 9.33285C1.02398 9.36687 1.05685 9.39261 1.1074 9.39353C1.08532 9.48398 1.14587 9.52223 1.20532 9.54344C1.18652 9.47706 1.17418 9.40066 1.28721 9.40066C1.36965 9.40066 1.43454 9.38638 1.47238 9.33284L1.48128 9.68622C1.48604 9.79219 1.33945 9.78917 1.24628 9.75762C1.28144 9.87967 1.35356 9.94566 1.52046 9.92895C1.47994 9.9459 1.43677 9.98402 1.43677 10.0575C1.4368 10.1568 1.51741 10.2669 1.57033 10.2994L1.59679 9.26498L1.59677 9.265Z" fill="#FFEC2D"/>
<path d="M1.59677 8.46938C1.59677 8.73463 1.35864 8.87096 1.17151 8.87096C0.919392 8.87096 0.785156 8.72022 0.785156 8.5229C0.785156 8.41104 0.805649 8.34086 0.857221 8.2338L1.43501 7.03443C1.4552 6.99272 1.46171 6.94521 1.46171 6.8756C1.46171 6.76807 1.35742 6.68018 1.24806 6.67749C1.14837 6.675 1.03976 6.77042 1.03976 6.87917C1.03976 7.01125 1.10828 7.07013 1.17863 7.07013C1.2652 7.07013 1.2997 7.03454 1.2997 6.97375C1.2997 6.9314 1.27924 6.91307 1.24984 6.91307C1.17559 6.91307 1.19644 7.01303 1.19644 7.01303C1.15956 7.00495 1.12925 6.96726 1.14658 6.92021C1.11858 6.91402 1.0933 6.89901 1.07447 6.87738C1.09438 6.85807 1.11721 6.84318 1.14658 6.83812C1.12919 6.7807 1.15243 6.75265 1.20266 6.74085C1.19252 6.76293 1.19218 6.78325 1.19555 6.80242C1.27462 6.77993 1.39584 6.81572 1.39584 6.95233C1.39584 7.08797 1.3017 7.20218 1.12521 7.17364C1.16719 7.19372 1.18854 7.23479 1.19286 7.28073C1.1608 7.26824 1.12521 7.26646 1.12521 7.26646C1.14585 7.30284 1.1745 7.33421 1.17327 7.40566C1.14056 7.39078 1.11016 7.36323 1.06823 7.38066C1.13405 7.51019 1.05318 7.68834 0.847459 7.73049C0.922755 7.64223 0.959619 7.54693 0.959619 7.45206C0.959619 7.14459 0.874167 7.09292 0.874167 6.87916C0.874167 6.78971 0.920138 6.69314 1.01126 6.6275V6.63107C0.951034 6.61494 0.912457 6.58528 0.890276 6.54499C1.02788 6.50597 1.22789 6.50669 1.33528 6.54894C1.45873 6.56325 1.54492 6.65795 1.5703 6.70603C1.59569 6.75411 1.64501 6.92788 1.5703 7.08437L0.982768 8.33013C0.957276 8.38463 0.941809 8.44245 0.941809 8.50504C0.941809 8.66246 1.08602 8.71742 1.16793 8.71742C1.26586 8.71742 1.36556 8.64283 1.36556 8.54966C1.36556 8.49063 1.3335 8.45507 1.28721 8.45507C1.17653 8.45507 1.18326 8.54923 1.20532 8.60856C1.13644 8.57759 1.09639 8.5223 1.1074 8.464C1.0684 8.45865 1.03128 8.44016 0.997018 8.40153C1.02398 8.3675 1.05685 8.34176 1.1074 8.34085C1.08532 8.2504 1.14587 8.21215 1.20532 8.19093C1.18652 8.25732 1.17418 8.33372 1.28721 8.33372C1.36965 8.33372 1.43454 8.34799 1.47238 8.40154L1.48128 8.04815C1.48604 7.94218 1.33945 7.94521 1.24628 7.97676C1.28144 7.8547 1.35356 7.78871 1.52046 7.80542C1.47994 7.78847 1.43677 7.75036 1.43677 7.67692C1.4368 7.57755 1.51741 7.46748 1.57033 7.43493L1.59679 8.46939L1.59677 8.46938Z" fill="#FFEC2D"/>
<path d="M1.56891 12.1337C1.56891 12.1337 1.69467 12.2394 1.73738 12.1864C1.80609 12.1011 1.52618 11.6765 1.52618 11.5269C1.52618 11.2814 1.68997 11.2147 1.89223 11.1796C2.02794 11.1561 2.24894 11.1895 2.24894 11.1895C2.20733 11.2454 2.18027 11.2618 2.11015 11.2663C2.18821 11.3068 2.26769 11.3948 2.26769 11.5317C2.26769 11.7429 2.18076 11.83 2.18076 12.0681C2.18076 12.2001 2.28906 12.3683 2.28906 12.3683C2.09763 12.3491 2.00275 12.1718 2.05673 12.0302C2.02627 12.0258 1.99861 12.0327 1.97484 12.0552C1.96084 12.0159 1.98296 11.9704 2.01257 11.9311C1.98871 11.9183 1.97119 11.926 1.93319 11.9338C1.9368 11.8934 1.96104 11.8504 2.02034 11.8099C1.84825 11.8546 1.74236 11.7347 1.74236 11.6091C1.74236 11.5143 1.80882 11.4463 1.87379 11.4463C1.89478 11.4463 1.92563 11.4549 1.94302 11.4679C1.95529 11.4418 1.94897 11.4069 1.93634 11.3808C1.98395 11.3933 2.01418 11.4216 1.99267 11.4805C2.02924 11.4839 2.05833 11.4962 2.07812 11.5197C2.05807 11.5454 2.02764 11.5602 1.99267 11.559C2.0193 11.614 1.98962 11.6447 1.94637 11.6697C1.94637 11.6697 1.97387 11.559 1.90364 11.559C1.87206 11.559 1.84329 11.5693 1.84329 11.6159C1.84329 11.6564 1.87871 11.7125 1.96062 11.7089C2.04252 11.7054 2.10891 11.6525 2.10891 11.5217C2.10891 11.4011 2.01163 11.3411 1.88344 11.3373C1.76785 11.3337 1.6806 11.3963 1.6806 11.5156C1.6806 11.6743 1.90971 12.036 1.90971 12.1775C1.90971 12.2836 1.81429 12.3428 1.72092 12.3428C1.59985 12.3428 1.4977 12.2229 1.4977 12.2229L1.56882 12.1338L1.56891 12.1337Z" fill="#FFEC2D"/>
<path d="M1.54385 9.26501C1.54385 8.99976 1.78199 8.86343 1.96912 8.86343C2.22123 8.86343 2.35547 9.01417 2.35547 9.21149C2.35547 9.32335 2.33498 9.39353 2.2834 9.50059L1.70562 10.7C1.68543 10.7417 1.67891 10.7892 1.67891 10.8588C1.67891 10.9663 1.78321 11.0542 1.89257 11.0569C1.99225 11.0594 2.10087 10.964 2.10087 10.8552C2.10087 10.7231 2.03235 10.6643 1.962 10.6643C1.87542 10.6643 1.84093 10.6999 1.84093 10.7606C1.84093 10.803 1.86138 10.8213 1.89079 10.8213C1.96504 10.8213 1.94419 10.7214 1.94419 10.7214C1.98107 10.7294 2.01137 10.7671 1.99405 10.8142C2.02205 10.8204 2.04732 10.8354 2.06615 10.857C2.04625 10.8763 2.02341 10.8912 1.99405 10.8963C2.01144 10.9537 1.9882 10.9817 1.93796 10.9935C1.9481 10.9715 1.94844 10.9511 1.94508 10.932C1.866 10.9545 1.74479 10.9187 1.74479 10.7821C1.74479 10.6464 1.83893 10.5322 2.01542 10.5607C1.97344 10.5407 1.95208 10.4996 1.94776 10.4537C1.97982 10.4661 2.01542 10.4679 2.01542 10.4679C1.99478 10.4315 1.96612 10.4002 1.96735 10.3287C2.00007 10.3436 2.03047 10.3712 2.07239 10.3537C2.00657 10.2242 2.08744 10.046 2.29317 10.0039C2.21787 10.0922 2.18101 10.1875 2.18101 10.2823C2.18101 10.5898 2.26646 10.6415 2.26646 10.8552C2.26646 10.9447 2.22049 11.0413 2.12937 11.1069V11.1033C2.18959 11.1195 2.22817 11.1491 2.25035 11.1894C2.11275 11.2284 1.91273 11.2277 1.80535 11.1854C1.68189 11.1711 1.59571 11.0764 1.57032 11.0284C1.54494 10.9803 1.49562 10.8065 1.57032 10.65L2.15786 9.40426C2.18335 9.34976 2.19882 9.29194 2.19882 9.22935C2.19882 9.07193 2.05461 9.01697 1.97269 9.01697C1.87477 9.01697 1.77507 9.09156 1.77507 9.18473C1.77507 9.24376 1.80713 9.27932 1.85341 9.27932C1.96409 9.27932 1.95737 9.18516 1.9353 9.12583C2.00419 9.1568 2.04423 9.21209 2.03323 9.27039C2.07222 9.27574 2.10935 9.29423 2.14361 9.33286C2.11665 9.36689 2.08378 9.39263 2.03323 9.39354C2.0553 9.48399 1.99475 9.52224 1.9353 9.54346C1.95411 9.47707 1.96645 9.40067 1.85341 9.40067C1.77097 9.40067 1.70609 9.3864 1.66825 9.33285L1.65935 9.68624C1.65458 9.79221 1.80117 9.78918 1.89434 9.75763C1.85918 9.87969 1.78707 9.94568 1.62017 9.92897C1.66068 9.94592 1.70385 9.98404 1.70385 10.0575C1.70383 10.1568 1.62322 10.2669 1.5703 10.2995L1.54384 9.265L1.54385 9.26501Z" fill="#FFEC2D"/>
<path d="M1.54385 8.46938C1.54385 8.73463 1.78199 8.87096 1.96912 8.87096C2.22123 8.87096 2.35547 8.72022 2.35547 8.5229C2.35547 8.41104 2.33498 8.34086 2.2834 8.2338L1.70562 7.03443C1.68543 6.99272 1.67891 6.94521 1.67891 6.8756C1.67891 6.76807 1.78321 6.68018 1.89257 6.67749C1.99225 6.675 2.10087 6.77042 2.10087 6.87917C2.10087 7.01125 2.03235 7.07013 1.962 7.07013C1.87542 7.07013 1.84093 7.03454 1.84093 6.97375C1.84093 6.9314 1.86138 6.91307 1.89079 6.91307C1.96504 6.91307 1.94419 7.01303 1.94419 7.01303C1.98107 7.00495 2.01137 6.96726 1.99405 6.92021C2.02205 6.91402 2.04732 6.89901 2.06615 6.87738C2.04625 6.85807 2.02341 6.84318 1.99405 6.83812C2.01144 6.7807 1.9882 6.75265 1.93796 6.74085C1.9481 6.76293 1.94844 6.78325 1.94508 6.80242C1.866 6.77993 1.74479 6.81572 1.74479 6.95233C1.74479 7.08797 1.83893 7.20218 2.01542 7.17364C1.97344 7.19372 1.95208 7.23479 1.94776 7.28073C1.97982 7.26824 2.01542 7.26646 2.01542 7.26646C1.99478 7.30284 1.96612 7.33421 1.96735 7.40566C2.00007 7.39078 2.03047 7.36323 2.07239 7.38066C2.00657 7.51019 2.08744 7.68834 2.29317 7.73049C2.21787 7.64223 2.18101 7.54693 2.18101 7.45206C2.18101 7.14459 2.26646 7.09292 2.26646 6.87916C2.26646 6.78971 2.22049 6.69314 2.12937 6.6275V6.63107C2.18959 6.61494 2.22817 6.58528 2.25035 6.54499C2.11275 6.50597 1.91273 6.50669 1.80535 6.54894C1.68189 6.56325 1.59571 6.65795 1.57032 6.70603C1.54494 6.75411 1.49562 6.92788 1.57032 7.08437L2.15786 8.33013C2.18335 8.38463 2.19882 8.44245 2.19882 8.50504C2.19882 8.66246 2.05461 8.71742 1.97269 8.71742C1.87477 8.71742 1.77507 8.64283 1.77507 8.54966C1.77507 8.49063 1.80713 8.45507 1.85341 8.45507C1.96409 8.45507 1.95737 8.54923 1.9353 8.60856C2.00419 8.57759 2.04423 8.5223 2.03323 8.464C2.07222 8.45865 2.10935 8.44016 2.14361 8.40153C2.11665 8.3675 2.08378 8.34176 2.03323 8.34085C2.0553 8.2504 1.99475 8.21215 1.9353 8.19093C1.95411 8.25732 1.96645 8.33372 1.85341 8.33372C1.77097 8.33372 1.70609 8.34799 1.66825 8.40154L1.65935 8.04815C1.65458 7.94218 1.80117 7.94521 1.89434 7.97676C1.85918 7.8547 1.78707 7.78871 1.62017 7.80542C1.66068 7.78847 1.70385 7.75036 1.70385 7.67692C1.70383 7.57755 1.62322 7.46748 1.5703 7.43493L1.54384 8.46939L1.54385 8.46938Z" fill="#FFEC2D"/>
</g>
</svg>
