<svg width="26" height="13" viewBox="0 0 26 13" fill="none" xmlns="http://www.w3.org/2000/svg">
<mask id="mask0_3475_14777" style="mask-type:alpha" maskUnits="userSpaceOnUse" x="0" y="0" width="26" height="14">
<rect y="0.00195312" width="26" height="13" rx="1" fill="#D9D9D9"/>
</mask>
<g mask="url(#mask0_3475_14777)">
<path d="M0 0.00195312H26.172V13.0879H0V0.00195312Z" fill="#00ABC2"/>
<path d="M0 0.00195312H26V13.002H0V0.00195312Z" fill="#FF0000"/>
<path fill-rule="evenodd" clip-rule="evenodd" d="M13.4091 3.91825L13.4838 2.4791C13.4842 2.47268 13.4796 2.46682 13.473 2.46579C13.4663 2.46472 13.46 2.46909 13.4585 2.4756L13.0895 3.8627C13.0883 3.86735 13.0874 3.87183 13.0867 3.87632C13.0728 3.96504 13.1334 4.04824 13.2221 4.06219C13.3108 4.07612 13.394 4.01551 13.408 3.92679C13.4084 3.92392 13.4088 3.92102 13.4091 3.91825ZM13.8064 4.03968L14.1067 2.63023C14.1081 2.6239 14.1045 2.6174 14.0981 2.61535C14.0917 2.61326 14.0847 2.61656 14.0823 2.62276L13.4995 3.93446C13.4976 3.93891 13.496 3.94316 13.4946 3.94751C13.4669 4.0329 13.5136 4.12463 13.5991 4.15237C13.6845 4.18011 13.7762 4.13335 13.8039 4.04793C13.8048 4.04514 13.8056 4.04234 13.8064 4.03968ZM14.1796 4.22216L14.698 2.87756C14.7004 2.87157 14.6978 2.86456 14.6919 2.8615C14.6858 2.85843 14.6785 2.86063 14.6751 2.86637L13.8931 4.06997C13.8905 4.07405 13.8883 4.07801 13.8862 4.08209C13.8454 4.16206 13.8771 4.25998 13.9571 4.30081C14.0371 4.34167 14.135 4.30992 14.1758 4.22994C14.1772 4.22733 14.1784 4.22469 14.1796 4.22216ZM14.5194 4.46074L15.2418 3.21383C15.2451 3.20826 15.2437 3.20093 15.2383 3.19702C15.2328 3.19302 15.2252 3.19404 15.2209 3.19919L14.2602 4.26559C14.2571 4.26925 14.2543 4.27282 14.2516 4.2765C14.1988 4.34909 14.2148 4.45081 14.2874 4.50365C14.36 4.55649 14.4617 4.54045 14.5145 4.46786C14.5163 4.46546 14.5179 4.46307 14.5194 4.46074ZM14.8179 4.74924L15.7256 3.62995C15.7297 3.62497 15.7294 3.61752 15.7247 3.61282C15.7199 3.60798 15.7122 3.60781 15.7072 3.61221L14.5922 4.51613C14.5886 4.51923 14.5852 4.52232 14.582 4.52554C14.5185 4.58903 14.5185 4.69201 14.582 4.75547C14.6455 4.819 14.7485 4.819 14.8119 4.75547C14.814 4.75339 14.816 4.75128 14.8179 4.74924ZM15.0678 5.08062L16.1387 4.11624C16.1435 4.11196 16.1444 4.10459 16.1405 4.0992C16.1365 4.09369 16.1289 4.09231 16.1233 4.09589L14.8812 4.81527C14.8771 4.81776 14.8733 4.82027 14.8696 4.82295C14.797 4.87579 14.781 4.9775 14.8338 5.05011C14.8867 5.1227 14.9884 5.13875 15.061 5.0859C15.0634 5.08414 15.0657 5.0824 15.0678 5.08062ZM15.263 5.44717L16.4715 4.66218C16.477 4.65871 16.479 4.65152 16.476 4.6456C16.4729 4.63955 16.4656 4.63702 16.4595 4.63969L15.1202 5.15588C15.1157 5.15768 15.1116 5.15957 15.1075 5.16165C15.0276 5.20247 14.9958 5.30043 15.0367 5.38041C15.0775 5.46038 15.1754 5.49211 15.2554 5.45127C15.258 5.44995 15.2606 5.44854 15.263 5.44717ZM15.3981 5.83998L16.7151 5.25504C16.721 5.25246 16.7242 5.24571 16.7221 5.23938C16.72 5.23292 16.7133 5.22929 16.7068 5.23091L15.3029 5.52983C15.2983 5.53095 15.2939 5.53215 15.2895 5.53358C15.2041 5.5613 15.1574 5.65303 15.1851 5.73845C15.2128 5.82384 15.3046 5.8706 15.39 5.84287C15.3928 5.84197 15.3955 5.841 15.3981 5.83998ZM15.4697 6.24919L16.8623 5.87888C16.8686 5.87728 16.8727 5.87111 16.8717 5.86453C16.8707 5.85781 16.8646 5.85315 16.8579 5.85373L15.4245 5.92792C15.4197 5.9283 15.4152 5.92882 15.4107 5.92951C15.322 5.94347 15.2614 6.02668 15.2753 6.11539C15.2892 6.2041 15.3724 6.26473 15.4612 6.25077C15.4641 6.25031 15.4669 6.24978 15.4697 6.24919ZM15.4766 6.66417L16.9098 6.51455C16.9163 6.51394 16.9214 6.50848 16.9214 6.50183C16.9214 6.49502 16.9161 6.48947 16.9094 6.48905L15.4819 6.3398C15.4771 6.33941 15.4725 6.3392 15.4679 6.3392C15.3782 6.3392 15.3054 6.41203 15.3054 6.50183C15.3054 6.59161 15.3782 6.66441 15.4679 6.66441C15.4709 6.66441 15.4738 6.66433 15.4766 6.66417ZM15.4193 7.07524L16.8584 7.1499C16.8648 7.1503 16.8707 7.14568 16.8717 7.13911C16.8728 7.13239 16.8684 7.12609 16.8619 7.12461L15.4748 6.75558C15.4701 6.75447 15.4657 6.75357 15.4612 6.75284C15.3724 6.73892 15.2892 6.79954 15.2753 6.88827C15.2614 6.97696 15.322 7.06016 15.4107 7.07413C15.4136 7.07458 15.4165 7.07496 15.4193 7.07524ZM15.2978 7.47249L16.7073 7.77281C16.7136 7.77421 16.7201 7.77058 16.7221 7.76423C16.7242 7.75777 16.7209 7.75088 16.7147 7.74841L15.403 7.16559C15.3986 7.16377 15.3943 7.16217 15.39 7.16074C15.3046 7.13303 15.2128 7.17977 15.1851 7.2652C15.1574 7.35058 15.2041 7.44229 15.2895 7.47005C15.2924 7.47095 15.2951 7.47177 15.2978 7.47249ZM15.1153 7.84569L16.4599 8.3641C16.4659 8.36651 16.4729 8.36394 16.476 8.35803C16.4791 8.35194 16.4769 8.34461 16.4711 8.34118L15.2675 7.55917C15.2634 7.55663 15.2595 7.5544 15.2554 7.55235C15.1754 7.51152 15.0775 7.54325 15.0367 7.62322C14.9958 7.70321 15.0276 7.80113 15.1075 7.84197C15.1102 7.8433 15.1128 7.84455 15.1153 7.84569ZM14.8768 8.18556L16.1237 8.90796C16.1292 8.91126 16.1366 8.90983 16.1405 8.90444C16.1445 8.89896 16.1435 8.89137 16.1383 8.88708L15.0719 7.9264C15.0683 7.92326 15.0647 7.92041 15.061 7.91774C14.9884 7.86489 14.8867 7.88093 14.8339 7.95353C14.781 8.02613 14.797 8.12785 14.8696 8.18068C14.872 8.18239 14.8744 8.18404 14.8768 8.18556ZM14.5883 8.48402L15.7076 9.3917C15.7125 9.39582 15.72 9.39553 15.7247 9.39081C15.7295 9.38603 15.7297 9.37835 15.7253 9.37335L14.8214 8.25836C14.8183 8.25469 14.8152 8.25136 14.8119 8.24815C14.7485 8.18465 14.6455 8.18465 14.582 8.24815C14.5185 8.31164 14.5185 8.41457 14.582 8.47808C14.5841 8.48016 14.5862 8.48213 14.5883 8.48402ZM14.2569 8.73398L15.2213 9.80477C15.2255 9.80964 15.2329 9.81052 15.2383 9.80661C15.2438 9.8026 15.2452 9.79506 15.2416 9.78942L14.5222 8.54733C14.5197 8.54326 14.5172 8.53946 14.5145 8.53579C14.4617 8.46316 14.36 8.44715 14.2874 8.49998C14.2148 8.55283 14.1988 8.65451 14.2516 8.72713C14.2533 8.72951 14.2551 8.73183 14.2569 8.73398ZM13.8903 8.92912L14.6753 10.1377C14.6788 10.1431 14.6859 10.1451 14.6919 10.1421C14.6979 10.139 14.7005 10.1318 14.6978 10.1256L14.1816 8.78633C14.1798 8.78188 14.1779 8.77775 14.1758 8.7737C14.135 8.69372 14.0371 8.66197 13.9571 8.70279C13.8771 8.74366 13.8454 8.84157 13.8862 8.92154C13.8875 8.92418 13.889 8.92672 13.8903 8.92912ZM13.4975 9.06424L14.0824 10.3813C14.085 10.3872 14.0918 10.3903 14.0981 10.3883C14.1046 10.3862 14.1082 10.3794 14.1066 10.373L13.8077 8.96907C13.8065 8.9644 13.8053 8.96001 13.8039 8.95568C13.7762 8.87029 13.6845 8.8235 13.5991 8.85123C13.5136 8.87897 13.4669 8.9707 13.4946 9.0561C13.4955 9.05892 13.4965 9.06165 13.4975 9.06424ZM13.0883 9.13578L13.4586 10.5284C13.4602 10.5347 13.4664 10.5389 13.473 10.5378C13.4797 10.5368 13.4843 10.5307 13.4837 10.524L13.4096 9.09064C13.4092 9.08585 13.4087 9.08132 13.408 9.07682C13.394 8.98808 13.3108 8.92749 13.2221 8.94144C13.1334 8.95537 13.0728 9.03857 13.0867 9.12731C13.0872 9.13019 13.0877 9.13308 13.0883 9.13578ZM12.6733 9.14272L12.8229 10.576C12.8236 10.5824 12.829 10.5875 12.8357 10.5875C12.8425 10.5875 12.848 10.5822 12.8485 10.5755L12.9977 9.14797C12.9981 9.14318 12.9983 9.13863 12.9983 9.13407C12.9983 9.04429 12.9255 8.97149 12.8357 8.97149C12.7459 8.97149 12.6731 9.04429 12.6731 9.13407C12.6731 9.13701 12.6732 9.13992 12.6733 9.14272ZM12.2623 9.08536L12.1876 10.5245C12.1872 10.531 12.1918 10.5368 12.1984 10.5378C12.2051 10.5389 12.2114 10.5345 12.2129 10.528L12.5819 9.14093C12.583 9.13626 12.5839 9.1318 12.5846 9.12731C12.5986 9.03857 12.538 8.95537 12.4492 8.94144C12.3606 8.92749 12.2773 8.98808 12.2634 9.07682C12.2629 9.07972 12.2626 9.08262 12.2623 9.08536ZM11.865 8.96394L11.5647 10.3734C11.5633 10.3797 11.5669 10.3862 11.5733 10.3883C11.5797 10.3904 11.5866 10.387 11.5891 10.3808L12.1719 9.06916C12.1737 9.0647 12.1753 9.06045 12.1768 9.0561C12.2045 8.9707 12.1577 8.87897 12.0723 8.85123C11.9869 8.8235 11.8952 8.87029 11.8675 8.95568C11.8665 8.95849 11.8657 8.96127 11.865 8.96394ZM11.4918 8.78146L10.9734 10.1261C10.971 10.1321 10.9736 10.1391 10.9795 10.1421C10.9855 10.1452 10.9929 10.143 10.9963 10.1372L11.7783 8.93367C11.7809 8.92956 11.7831 8.9256 11.7852 8.92154C11.826 8.84157 11.7943 8.74366 11.7143 8.70279C11.6343 8.66197 11.5364 8.69372 11.4955 8.7737C11.4942 8.77631 11.4929 8.77894 11.4918 8.78146ZM11.1519 8.54289L10.4295 9.7898C10.4262 9.79535 10.4277 9.80268 10.4331 9.80661C10.4385 9.81059 10.4461 9.8096 10.4504 9.80446L11.4111 8.73803C11.4143 8.7344 11.4171 8.73082 11.4198 8.72713C11.4726 8.65451 11.4566 8.55283 11.384 8.49998C11.3114 8.44715 11.2097 8.46316 11.1568 8.53579C11.1551 8.53817 11.1535 8.54054 11.1519 8.54289ZM10.8535 8.25439L9.9458 9.37369C9.94167 9.37866 9.94196 9.3861 9.94669 9.39081C9.95148 9.39564 9.95914 9.39582 9.96416 9.39142L11.0791 8.4875C11.0828 8.48438 11.0861 8.48131 11.0894 8.47808C11.1529 8.41457 11.1529 8.31164 11.0894 8.24815C11.0259 8.18465 10.9229 8.18465 10.8594 8.24815C10.8573 8.25021 10.8553 8.25235 10.8535 8.25439ZM10.6035 7.92299L9.5327 8.88737C9.52785 8.89166 9.52698 8.89904 9.5309 8.90444C9.53492 8.90991 9.54243 8.91132 9.54808 8.90773L10.7902 8.18836C10.7943 8.18585 10.798 8.18336 10.8017 8.18068C10.8743 8.12785 10.8904 8.02613 10.8375 7.95353C10.7847 7.88093 10.683 7.86489 10.6104 7.91774C10.608 7.91947 10.6057 7.92123 10.6035 7.92299ZM10.4084 7.55646L9.19987 8.34145C9.19441 8.3449 9.19237 8.35209 9.1954 8.35803C9.1985 8.36406 9.20574 8.36659 9.21188 8.36394L10.5512 7.84775C10.5556 7.84592 10.5598 7.84404 10.5638 7.84197C10.6438 7.80113 10.6755 7.70321 10.6347 7.62322C10.5939 7.54325 10.4959 7.51152 10.416 7.55235C10.4133 7.55366 10.4108 7.55507 10.4084 7.55646ZM10.2732 7.16363L8.95624 7.74858C8.95033 7.75112 8.94717 7.75792 8.94923 7.76423C8.95134 7.7707 8.95807 7.77435 8.96456 7.77272L10.3684 7.47379C10.3731 7.47268 10.3775 7.47147 10.3818 7.47005C10.4672 7.44229 10.514 7.35058 10.4862 7.2652C10.4585 7.17977 10.3668 7.13303 10.2814 7.16074C10.2786 7.16166 10.2759 7.16263 10.2732 7.16363ZM10.2017 6.75445L8.80904 7.12475C8.80278 7.12634 8.79861 7.13253 8.79966 7.13911C8.80071 7.14583 8.80679 7.15048 8.81346 7.14988L10.2469 7.07569C10.2517 7.07533 10.2562 7.07481 10.2607 7.07413C10.3494 7.06016 10.41 6.97696 10.3961 6.88827C10.3821 6.79954 10.2989 6.73892 10.2102 6.75284C10.2073 6.75333 10.2044 6.75386 10.2017 6.75445ZM10.1948 6.33946L8.76152 6.48906C8.75507 6.48967 8.75 6.49515 8.75 6.50183C8.75 6.50859 8.75529 6.51415 8.76197 6.51459L10.1895 6.66381C10.1943 6.66419 10.1989 6.66441 10.2034 6.66441C10.2932 6.66441 10.366 6.59161 10.366 6.50183C10.366 6.41203 10.2932 6.3392 10.2034 6.3392C10.2005 6.3392 10.1976 6.33931 10.1948 6.33946ZM10.2521 5.92838L8.813 5.85373C8.80655 5.85332 8.80069 5.85795 8.79966 5.86453C8.79859 5.87122 8.80296 5.87753 8.80949 5.879L10.1966 6.24804C10.2012 6.24916 10.2057 6.25006 10.2102 6.25077C10.2989 6.26473 10.3821 6.2041 10.3961 6.11539C10.41 6.02668 10.3494 5.94347 10.2607 5.92951C10.2578 5.92905 10.2549 5.92869 10.2521 5.92838ZM10.3735 5.53111L8.9641 5.23082C8.95779 5.22938 8.95128 5.23302 8.94923 5.23938C8.94713 5.24585 8.95046 5.25275 8.95666 5.25521L10.2683 5.83802C10.2728 5.83986 10.277 5.84145 10.2814 5.84287C10.3668 5.8706 10.4585 5.82384 10.4862 5.73845C10.514 5.65303 10.4672 5.5613 10.3818 5.53358C10.379 5.53268 10.3762 5.53185 10.3735 5.53111ZM10.556 5.15793L9.21145 4.63948C9.20545 4.6371 9.19845 4.63969 9.1954 4.6456C9.19231 4.65167 9.19451 4.65899 9.20025 4.66242L10.4038 5.44445C10.4079 5.447 10.4119 5.44921 10.416 5.45127C10.4959 5.49211 10.5939 5.46038 10.6347 5.38041C10.6755 5.30043 10.6438 5.20247 10.5638 5.16165C10.5612 5.1603 10.5586 5.15908 10.556 5.15793ZM10.7946 4.81809L9.54769 4.09564C9.54213 4.09235 9.53482 4.09381 9.5309 4.09921C9.5269 4.10467 9.52791 4.11227 9.53306 4.11654L10.5995 5.07725C10.6031 5.08037 10.6067 5.08318 10.6104 5.0859C10.683 5.13875 10.7847 5.12271 10.8375 5.05011C10.8904 4.9775 10.8743 4.87581 10.8017 4.82296C10.7993 4.82123 10.797 4.8196 10.7946 4.81809ZM11.0831 4.51959L9.96382 3.61194C9.95884 3.60781 9.95138 3.6081 9.94669 3.61282C9.94187 3.61761 9.94169 3.62526 9.94611 3.6303L10.85 4.74525C10.8531 4.74892 10.8562 4.75226 10.8594 4.75547C10.9229 4.819 11.0259 4.819 11.0894 4.75547C11.1529 4.69201 11.1529 4.58903 11.0894 4.52554C11.0873 4.52346 11.0852 4.52146 11.0831 4.51959ZM11.4145 4.26964L10.4501 3.19881C10.4459 3.19398 10.4384 3.19309 10.4331 3.19702C10.4276 3.20102 10.4262 3.20855 10.4298 3.21422L11.1492 4.45628C11.1516 4.46038 11.1542 4.46414 11.1568 4.46786C11.2097 4.54045 11.3114 4.55649 11.384 4.50365C11.4566 4.45081 11.4726 4.34909 11.4198 4.2765C11.418 4.27411 11.4163 4.2718 11.4145 4.26964ZM11.7811 4.07449L10.9961 2.86598C10.9926 2.86052 10.9854 2.8585 10.9795 2.8615C10.9734 2.86463 10.9709 2.87186 10.9735 2.878L11.4897 4.2173C11.4916 4.22173 11.4935 4.22588 11.4955 4.22994C11.5364 4.30992 11.6343 4.34167 11.7143 4.30081C11.7943 4.25998 11.826 4.16206 11.7852 4.08209C11.7838 4.07946 11.7824 4.0769 11.7811 4.07449ZM12.1739 3.93939L11.5889 2.62237C11.5863 2.61643 11.5796 2.61328 11.5733 2.61535C11.5668 2.61745 11.5632 2.6242 11.5648 2.63067L11.8637 4.03455C11.8648 4.03922 11.866 4.0436 11.8675 4.04793C11.8952 4.13335 11.9869 4.18011 12.0723 4.15237C12.1577 4.12463 12.2045 4.0329 12.1768 3.94751C12.1758 3.94471 12.1749 3.94196 12.1739 3.93939ZM12.5831 3.86782L12.2128 2.47515C12.2112 2.4689 12.205 2.46473 12.1984 2.46579C12.1917 2.46683 12.187 2.4729 12.1876 2.47959L12.2618 3.91298C12.2622 3.91778 12.2627 3.92229 12.2634 3.92679C12.2773 4.01551 12.3606 4.07612 12.4492 4.06219C12.538 4.04824 12.5986 3.96504 12.5846 3.87632C12.5842 3.87342 12.5836 3.87055 12.5831 3.86782ZM12.998 3.86091L12.8484 2.42762C12.8478 2.4212 12.8423 2.41614 12.8357 2.41614C12.8289 2.41614 12.8234 2.42139 12.8229 2.42809L12.6737 3.85566C12.6733 3.86045 12.6731 3.86498 12.6731 3.86954C12.6731 3.95934 12.7459 4.03214 12.8357 4.03214C12.9255 4.03214 12.9983 3.95934 12.9983 3.86954C12.9983 3.8666 12.9982 3.86369 12.998 3.86091ZM12.8357 4.03329C14.199 4.03329 15.3042 5.13849 15.3042 6.50183C15.3042 7.86512 14.199 8.97035 12.8357 8.97035C11.4724 8.97035 10.3672 7.86512 10.3672 6.50183C10.3672 5.13849 11.4724 4.03329 12.8357 4.03329ZM12.8357 4.32921C14.0356 4.32921 15.0083 5.30193 15.0083 6.50183C15.0083 7.70171 14.0356 8.67442 12.8357 8.67442C11.6358 8.67442 10.6631 7.70171 10.6631 6.50183C10.6631 5.30193 11.6358 4.32921 12.8357 4.32921ZM11.0216 7.15389C11.2437 6.6893 11.5507 6.27877 11.9057 5.93344C11.9612 5.96986 12.0161 6.00766 12.0705 6.0468C11.6977 6.40314 11.3728 6.84409 11.1278 7.38436C11.0875 7.31035 11.0521 7.23334 11.0216 7.15389ZM12.9889 6.0325C13.0393 6.07473 13.089 6.11838 13.1379 6.16339C13.19 6.12064 13.2428 6.0793 13.2964 6.03944C13.2476 5.99526 13.198 5.95234 13.1477 5.91061C13.0941 5.94993 13.0412 5.99057 12.9889 6.0325ZM12.6733 5.79158C12.728 5.82961 12.7822 5.86901 12.8357 5.90985C12.8892 5.86901 12.9433 5.82961 12.9981 5.79158C12.9446 5.75072 12.8904 5.71121 12.8357 5.67308C12.7809 5.71121 12.7268 5.75072 12.6733 5.79158ZM12.6878 6.29623C12.7379 6.34145 12.7872 6.38814 12.8357 6.4363C12.8841 6.38814 12.9334 6.34145 12.9835 6.29623C12.9351 6.24995 12.8858 6.20479 12.8357 6.16098C12.7856 6.20479 12.7363 6.24995 12.6878 6.29623ZM12.375 6.03944C12.4285 6.0793 12.4814 6.12064 12.5335 6.16339C12.5824 6.11838 12.6321 6.07473 12.6824 6.03252C12.6302 5.99057 12.5772 5.94992 12.5236 5.91061C12.4734 5.95234 12.4238 5.99526 12.375 6.03944ZM13.3469 5.57221C13.2931 5.53115 13.2386 5.49141 13.1836 5.45308C13.121 5.48882 13.0588 5.52632 12.9972 5.56551C13.0535 5.60279 13.1091 5.64151 13.1642 5.68166C13.2245 5.64361 13.2854 5.60713 13.3469 5.57221ZM13.6345 5.81064C13.5862 5.76721 13.5371 5.72486 13.4874 5.68377C13.4287 5.71932 13.3703 5.75644 13.3126 5.79503C13.3635 5.83561 13.4137 5.87755 13.4632 5.92088C13.5197 5.88268 13.5768 5.84599 13.6345 5.81064ZM12.6399 5.35147C12.7046 5.31012 12.7699 5.27058 12.8357 5.23301C12.9015 5.27058 12.9668 5.31012 13.0315 5.35147C12.9656 5.38701 12.9003 5.42429 12.8357 5.46332C12.771 5.42429 12.7057 5.38701 12.6399 5.35147ZM12.3245 5.57221C12.3783 5.53115 12.4327 5.49141 12.4877 5.45308C12.5504 5.48882 12.6125 5.52632 12.6741 5.56551C12.6179 5.60279 12.5622 5.64151 12.5072 5.68166C12.4469 5.64361 12.386 5.60713 12.3245 5.57221ZM12.0369 5.81064C12.0852 5.76721 12.1342 5.72486 12.184 5.68377C12.2427 5.71932 12.301 5.75644 12.3587 5.79503C12.3079 5.83561 12.2577 5.87755 12.2082 5.92088C12.1517 5.88268 12.0946 5.84599 12.0369 5.81064ZM11.1305 5.52675C11.3315 5.60728 11.5318 5.70616 11.7275 5.82211C11.4263 6.10914 11.1563 6.45131 10.934 6.85626C10.9072 6.72771 10.8931 6.59451 10.8931 6.45803C10.8931 6.12057 10.9792 5.80324 11.1305 5.52675ZM11.2956 5.27405C11.5325 5.3506 11.7709 5.45345 12.0041 5.58042C11.9539 5.62064 11.9043 5.66219 11.8555 5.70512C11.6425 5.58746 11.4237 5.48804 11.203 5.40509C11.2321 5.36006 11.263 5.31636 11.2956 5.27405ZM11.5028 5.04497C11.7705 5.1152 12.0427 5.22011 12.3095 5.35665C12.2532 5.3943 12.1975 5.43334 12.1425 5.47387C11.8958 5.3475 11.6423 5.24466 11.3882 5.16257C11.4247 5.12181 11.4629 5.08256 11.5028 5.04497ZM11.8049 4.8113C11.8106 4.8134 11.8166 4.81551 11.8229 4.81765C11.83 4.81945 11.8371 4.82131 11.8442 4.82311C12.1169 4.8941 12.3943 5.0011 12.6659 5.14086C12.5969 5.17851 12.5285 5.21808 12.4609 5.25958C12.1981 5.1316 11.9286 5.0295 11.6597 4.95019C11.6573 4.94954 11.6423 4.94434 11.6255 4.93847C11.6827 4.89286 11.7426 4.85035 11.8049 4.8113ZM13.7009 4.7184C13.6905 4.72174 13.6828 4.72425 13.6806 4.72515C13.3968 4.80783 13.1124 4.9157 12.8357 5.05264C12.5642 4.91832 12.2853 4.81192 12.007 4.72985C12.0016 4.72828 11.9962 4.72672 11.9908 4.72515C11.9832 4.72319 11.9763 4.72101 11.9699 4.7187C12.2306 4.58866 12.5246 4.51538 12.8357 4.51538C13.1466 4.51538 13.4404 4.58849 13.7009 4.7184ZM14.0477 4.93997C14.0405 4.94213 14.0338 4.94404 14.0282 4.94539C13.7537 5.02531 13.4787 5.12896 13.2105 5.25958C13.1429 5.21808 13.0745 5.17851 13.0055 5.14086C13.2842 4.99744 13.5689 4.88851 13.8485 4.81765C13.8554 4.81655 13.8623 4.8149 13.869 4.81287C13.9311 4.85194 13.9907 4.89435 14.0477 4.93997ZM14.2831 5.16257C14.0291 5.24466 13.7756 5.3475 13.5288 5.47387C13.4739 5.43334 13.4182 5.3943 13.3619 5.35665C13.6287 5.22011 13.9008 5.1152 14.1686 5.04497C14.2084 5.08256 14.2466 5.12181 14.2831 5.16257ZM14.4684 5.40509C14.2477 5.48804 14.0288 5.58745 13.8159 5.70512C13.767 5.66219 13.7175 5.62064 13.6673 5.58042C13.9005 5.45345 14.1389 5.3506 14.3757 5.27405C14.4084 5.31636 14.4393 5.36006 14.4684 5.40509ZM14.7373 6.85626C14.5152 6.45132 14.2451 6.10914 13.9439 5.82211C14.1395 5.70616 14.3399 5.60728 14.5408 5.52675C14.6922 5.80327 14.7783 6.12057 14.7783 6.45803C14.7783 6.59451 14.7642 6.72774 14.7373 6.85626ZM14.5436 7.38436C14.2985 6.84409 13.9736 6.40314 13.6009 6.0468C13.6553 6.00766 13.7102 5.96986 13.7656 5.93344C14.1207 6.27877 14.4277 6.68929 14.6498 7.15389C14.6193 7.23331 14.5839 7.31035 14.5436 7.38436ZM14.241 7.79918C14.0044 7.18922 13.6709 6.69557 13.2798 6.30025C13.3311 6.25591 13.3832 6.21291 13.436 6.1712C13.8409 6.56929 14.1818 7.0528 14.4036 7.60492C14.3536 7.67316 14.2993 7.73811 14.241 7.79918ZM13.8743 8.09983L13.8485 8.03046C13.6339 7.451 13.3331 6.97422 12.9783 6.58517C13.0266 6.53514 13.076 6.48633 13.1263 6.43881C13.5326 6.86286 13.8665 7.3762 14.0673 7.96033C14.006 8.01064 13.9415 8.05723 13.8743 8.09983ZM11.9948 8.20967L12.0196 8.13204C12.1986 7.60635 12.4853 7.13782 12.8357 6.73973C13.1861 7.13782 13.4728 7.60635 13.6518 8.13204L13.6772 8.20939C13.4226 8.33195 13.1372 8.40063 12.8357 8.40063C12.5345 8.40063 12.2492 8.33206 11.9948 8.20967ZM11.6041 7.96032C11.805 7.3762 12.1388 6.86286 12.545 6.43881C12.5953 6.48633 12.6447 6.53514 12.6931 6.58517C12.3383 6.97422 12.0374 7.451 11.8229 8.03046L11.7971 8.09989C11.7299 8.05727 11.6654 8.01065 11.6041 7.96032ZM11.2678 7.60492C11.4896 7.0528 11.8305 6.56929 12.2354 6.1712C12.2881 6.21291 12.3403 6.25591 12.3916 6.30025C12.0005 6.69557 11.667 7.18922 11.4304 7.79918C11.3721 7.73811 11.3178 7.67316 11.2678 7.60492Z" fill="#FFED00"/>
</g>
</svg>
