<svg width="26" height="13" viewBox="0 0 26 13" fill="none" xmlns="http://www.w3.org/2000/svg">
<mask id="mask0_3475_14434" style="mask-type:alpha" maskUnits="userSpaceOnUse" x="0" y="0" width="26" height="14">
<rect y="0.00195312" width="26" height="13" rx="1" fill="#D9D9D9"/>
</mask>
<g mask="url(#mask0_3475_14434)">
<path d="M0 0.00195312H26V13.002H0V0.00195312Z" fill="#1EB53A"/>
<path d="M0 0.00195312H26V6.50195H0V0.00195312Z" fill="#0099B5"/>
<path d="M0 4.16177H26V8.84177H0V4.16177Z" fill="#CE1126"/>
<path d="M0 4.42204H26V8.58204H0V4.42204Z" fill="white"/>
<path d="M3.63813 3.64161C4.49969 3.64161 5.19813 2.94317 5.19813 2.08161C5.19813 1.22004 4.49969 0.521606 3.63813 0.521606C2.77656 0.521606 2.07812 1.22004 2.07812 2.08161C2.07812 2.94317 2.77656 3.64161 3.63813 3.64161Z" fill="white"/>
<path d="M4.16156 3.64165C5.02313 3.64165 5.72156 2.94322 5.72156 2.08165C5.72156 1.22009 5.02313 0.521652 4.16156 0.521652C3.3 0.521652 2.60156 1.22009 2.60156 2.08165C2.60156 2.94322 3.3 3.64165 4.16156 3.64165Z" fill="#0099B5"/>
<path d="M7.07422 3.01791L6.97781 3.31464L7.12617 3.36285" fill="white"/>
<path d="M7.07422 3.01791L7.17063 3.31464L7.02227 3.36285" fill="white"/>
<path d="M7.375 3.23347H7.063V3.38947" fill="white"/>
<path d="M7.375 3.23347L7.12259 3.41686L7.03089 3.29066" fill="white"/>
<path d="M6.77734 3.23351L7.02976 3.41689L7.12145 3.29069" fill="white"/>
<path d="M6.77734 3.23351H7.08934V3.38951" fill="white"/>
<path d="M7.25391 3.58278L7.15749 3.28605L7.00913 3.33426" fill="white"/>
<path d="M7.25391 3.58278L7.00149 3.39939L7.09319 3.27318" fill="white"/>
<path d="M6.88672 3.58287L7.13913 3.39948L7.04744 3.27327" fill="white"/>
<path d="M6.88672 3.58287L6.98313 3.28614L7.1315 3.33435" fill="white"/>
<path d="M7.07031 1.77003L6.9739 2.06676L7.12226 2.11497" fill="white"/>
<path d="M7.07031 1.77003L7.16673 2.06676L7.01836 2.11497" fill="white"/>
<path d="M7.36719 1.98553H7.05519V2.14153" fill="white"/>
<path d="M7.36719 1.98553L7.11477 2.16892L7.02308 2.04272" fill="white"/>
<path d="M6.77344 1.9852L7.02585 2.16859L7.11755 2.04238" fill="white"/>
<path d="M6.77344 1.9852H7.08544V2.1412" fill="white"/>
<path d="M7.24609 2.33316L7.14968 2.03643L7.00132 2.08464" fill="white"/>
<path d="M7.24609 2.33316L6.99368 2.14977L7.08537 2.02356" fill="white"/>
<path d="M6.87891 2.33293L7.13132 2.14954L7.03963 2.02334" fill="white"/>
<path d="M6.87891 2.33293L6.97532 2.0362L7.12368 2.08441" fill="white"/>
<path d="M7.07031 0.522186L6.9739 0.818916L7.12226 0.867123" fill="white"/>
<path d="M7.07031 0.522186L7.16673 0.818916L7.01836 0.867123" fill="white"/>
<path d="M7.37109 0.737839H7.05909V0.893839" fill="white"/>
<path d="M7.37109 0.737839L7.11868 0.921228L7.02699 0.795021" fill="white"/>
<path d="M6.77344 0.7379L7.02585 0.921289L7.11755 0.795082" fill="white"/>
<path d="M6.77344 0.7379H7.08544V0.8939" fill="white"/>
<path d="M7.25 1.08681L7.15359 0.790078L7.00522 0.838284" fill="white"/>
<path d="M7.25 1.08681L6.99759 0.903418L7.08928 0.777212" fill="white"/>
<path d="M6.88281 1.08659L7.13523 0.903205L7.04353 0.776998" fill="white"/>
<path d="M6.88281 1.08659L6.97923 0.789864L7.12759 0.838071" fill="white"/>
<path d="M8.31641 3.0184L8.21999 3.31513L8.36836 3.36334" fill="white"/>
<path d="M8.31641 3.0184L8.41282 3.31513L8.26445 3.36334" fill="white"/>
<path d="M8.61328 3.23462H8.30128V3.39062" fill="white"/>
<path d="M8.61328 3.23462L8.36087 3.41801L8.26917 3.2918" fill="white"/>
<path d="M8.01953 3.23393L8.27194 3.41732L8.36364 3.29111" fill="white"/>
<path d="M8.01953 3.23393H8.33153V3.38993" fill="white"/>
<path d="M8.49609 3.58308L8.39968 3.28635L8.25132 3.33456" fill="white"/>
<path d="M8.49609 3.58308L8.24368 3.3997L8.33537 3.27349" fill="white"/>
<path d="M8.12891 3.58287L8.38132 3.39948L8.28963 3.27327" fill="white"/>
<path d="M8.12891 3.58287L8.22532 3.28614L8.37368 3.33435" fill="white"/>
<path d="M8.31641 1.77052L8.21999 2.06725L8.36836 2.11546" fill="white"/>
<path d="M8.31641 1.77052L8.41282 2.06725L8.26445 2.11546" fill="white"/>
<path d="M8.61328 1.98611H8.30128V2.14211" fill="white"/>
<path d="M8.61328 1.98611L8.36087 2.1695L8.26917 2.0433" fill="white"/>
<path d="M8.01953 1.98601L8.27194 2.1694L8.36364 2.04319" fill="white"/>
<path d="M8.01953 1.98601H8.33153V2.14201" fill="white"/>
<path d="M8.49609 2.33479L8.39968 2.03806L8.25132 2.08627" fill="white"/>
<path d="M8.49609 2.33479L8.24368 2.1514L8.33537 2.0252" fill="white"/>
<path d="M8.12891 2.33459L8.38132 2.15121L8.28963 2.025" fill="white"/>
<path d="M8.12891 2.33459L8.22532 2.03787L8.37368 2.08607" fill="white"/>
<path d="M8.31641 0.52298L8.21999 0.819709L8.36836 0.867916" fill="white"/>
<path d="M8.31641 0.52298L8.41282 0.819709L8.26445 0.867916" fill="white"/>
<path d="M8.61328 0.738647H8.30128V0.894647" fill="white"/>
<path d="M8.61328 0.738647L8.36087 0.922037L8.26917 0.79583" fill="white"/>
<path d="M8.01953 0.738388L8.27194 0.921777L8.36364 0.79557" fill="white"/>
<path d="M8.01953 0.738388H8.33153V0.894388" fill="white"/>
<path d="M8.49609 1.08681L8.39968 0.790078L8.25132 0.838284" fill="white"/>
<path d="M8.49609 1.08681L8.24368 0.903418L8.33537 0.777212" fill="white"/>
<path d="M8.12891 1.08665L8.38132 0.903266L8.28963 0.777059" fill="white"/>
<path d="M8.12891 1.08665L8.22532 0.789925L8.37368 0.838132" fill="white"/>
<path d="M9.5625 3.01831L9.46609 3.31504L9.61445 3.36325" fill="white"/>
<path d="M9.5625 3.01831L9.65891 3.31504L9.51055 3.36325" fill="white"/>
<path d="M9.85938 3.23387H9.54738V3.38987" fill="white"/>
<path d="M9.85938 3.23387L9.60696 3.41726L9.51527 3.29105" fill="white"/>
<path d="M9.26953 3.23387L9.52194 3.41726L9.61364 3.29105" fill="white"/>
<path d="M9.26953 3.23387H9.58153V3.38987" fill="white"/>
<path d="M9.74609 3.58261L9.64968 3.28588L9.50132 3.33409" fill="white"/>
<path d="M9.74609 3.58261L9.49368 3.39922L9.58537 3.27302" fill="white"/>
<path d="M9.37891 3.58267L9.63132 3.39928L9.53963 3.27308" fill="white"/>
<path d="M9.37891 3.58267L9.47532 3.28594L9.62368 3.33415" fill="white"/>
<path d="M9.5625 1.77078L9.46609 2.06751L9.61445 2.11572" fill="white"/>
<path d="M9.5625 1.77078L9.65891 2.06751L9.51055 2.11572" fill="white"/>
<path d="M9.85938 1.98683H9.54738V2.14283" fill="white"/>
<path d="M9.85938 1.98683L9.60696 2.17022L9.51527 2.04401" fill="white"/>
<path d="M9.26953 1.98599L9.52194 2.16938L9.61364 2.04317" fill="white"/>
<path d="M9.26953 1.98599H9.58153V2.14199" fill="white"/>
<path d="M9.74609 2.33473L9.64968 2.038L9.50132 2.08621" fill="white"/>
<path d="M9.74609 2.33473L9.49368 2.15134L9.58537 2.02514" fill="white"/>
<path d="M9.37891 2.33423L9.63132 2.15084L9.53963 2.02463" fill="white"/>
<path d="M9.37891 2.33423L9.47532 2.0375L9.62368 2.08571" fill="white"/>
<path d="M9.5625 0.522522L9.46609 0.819252L9.61445 0.867458" fill="white"/>
<path d="M9.5625 0.522522L9.65891 0.819252L9.51055 0.867458" fill="white"/>
<path d="M9.85938 0.738205H9.54738V0.894205" fill="white"/>
<path d="M9.85938 0.738205L9.60696 0.921594L9.51527 0.795387" fill="white"/>
<path d="M9.26953 0.737503L9.52194 0.920892L9.61364 0.794685" fill="white"/>
<path d="M9.26953 0.737503H9.58153V0.893503" fill="white"/>
<path d="M9.74609 1.08649L9.64968 0.789757L9.50132 0.837964" fill="white"/>
<path d="M9.74609 1.08649L9.49368 0.903098L9.58537 0.776891" fill="white"/>
<path d="M9.37891 1.0863L9.63132 0.902915L9.53963 0.776708" fill="white"/>
<path d="M9.37891 1.0863L9.47532 0.789574L9.62368 0.837781" fill="white"/>
<path d="M4.57422 3.01826L4.47781 3.31499L4.62617 3.3632" fill="white"/>
<path d="M4.57422 3.01826L4.67063 3.31499L4.52227 3.3632" fill="white"/>
<path d="M4.87109 3.23425H4.55909V3.39025" fill="white"/>
<path d="M4.87109 3.23425L4.61868 3.41764L4.52699 3.29144" fill="white"/>
<path d="M4.28125 3.23366L4.53366 3.41705L4.62536 3.29084" fill="white"/>
<path d="M4.28125 3.23366H4.59325V3.38966" fill="white"/>
<path d="M4.75781 3.58211L4.6614 3.28538L4.51303 3.33358" fill="white"/>
<path d="M4.75781 3.58211L4.5054 3.39872L4.59709 3.27251" fill="white"/>
<path d="M4.39062 3.58247L4.64304 3.39908L4.55134 3.27288" fill="white"/>
<path d="M4.39062 3.58247L4.48704 3.28574L4.6354 3.33395" fill="white"/>
<path d="M5.82422 3.01791L5.72781 3.31464L5.87617 3.36285" fill="white"/>
<path d="M5.82422 3.01791L5.92063 3.31464L5.77227 3.36285" fill="white"/>
<path d="M6.125 3.23363H5.813V3.38963" fill="white"/>
<path d="M6.125 3.23363L5.87259 3.41702L5.78089 3.29081" fill="white"/>
<path d="M5.52734 3.23375L5.77976 3.41714L5.87145 3.29093" fill="white"/>
<path d="M5.52734 3.23375H5.83934V3.38975" fill="white"/>
<path d="M6.00391 3.58253L5.90749 3.28581L5.75913 3.33401" fill="white"/>
<path d="M6.00391 3.58253L5.75149 3.39915L5.84319 3.27294" fill="white"/>
<path d="M5.63672 3.58226L5.88913 3.39887L5.79744 3.27266" fill="white"/>
<path d="M5.63672 3.58226L5.73313 3.28553L5.8815 3.33374" fill="white"/>
<path d="M5.82422 1.76974L5.72781 2.06647L5.87617 2.11468" fill="white"/>
<path d="M5.82422 1.76974L5.92063 2.06647L5.77227 2.11468" fill="white"/>
<path d="M6.12109 1.98531H5.80909V2.14131" fill="white"/>
<path d="M6.12109 1.98531L5.86868 2.16869L5.77699 2.04249" fill="white"/>
<path d="M5.52734 1.98534L5.77976 2.16873L5.87145 2.04252" fill="white"/>
<path d="M5.52734 1.98534H5.83934V2.14134" fill="white"/>
<path d="M6.00391 2.334L5.90749 2.03727L5.75913 2.08548" fill="white"/>
<path d="M6.00391 2.334L5.75149 2.15061L5.84319 2.0244" fill="white"/>
<path d="M5.63672 2.33374L5.88913 2.15035L5.79744 2.02414" fill="white"/>
<path d="M5.63672 2.33374L5.73313 2.03701L5.8815 2.08522" fill="white"/>
</g>
</svg>
