<svg width="16" height="26" viewBox="0 0 16 26" fill="none" xmlns="http://www.w3.org/2000/svg">
<path d="M7.68284 0C3.96176 0 0.945312 3.01655 0.945312 6.73753C0.945312 10.4586 3.96176 13.4753 7.68284 13.4753C11.4039 13.4753 14.4204 10.4586 14.4204 6.73753C14.4204 3.01655 11.4039 0 7.68284 0ZM7.68284 9.52287C6.14468 9.52287 4.8977 8.27579 4.8977 6.73762C4.8977 5.19946 6.14468 3.95248 7.68284 3.95248C9.221 3.95248 10.468 5.19946 10.468 6.73762C10.468 8.27579 9.221 9.52287 7.68284 9.52287Z" fill="white"/>
<path d="M10.0618 18.8364C12.7591 18.2869 14.3754 17.0095 14.4609 16.941C15.2502 16.308 15.377 15.155 14.744 14.3656C14.1111 13.5764 12.9583 13.4496 12.1688 14.0825C12.1521 14.096 10.4281 15.4184 7.59161 15.4204C4.75517 15.4184 2.99477 14.096 2.97809 14.0825C2.18861 13.4496 1.03574 13.5764 0.402846 14.3656C-0.230141 15.155 -0.103351 16.308 0.685931 16.941C0.772611 17.0105 2.45569 18.3211 5.22859 18.8577L1.36404 22.8965C0.66173 23.6248 0.682846 24.7845 1.41119 25.4868C1.76669 25.8296 2.22487 26 2.68266 26C3.16263 26 3.64212 25.8124 4.00157 25.4396L7.59171 21.6151L11.5445 25.4644C12.2607 26.1794 13.4204 26.1782 14.1352 25.4623C14.8501 24.7463 14.8492 23.5864 14.1332 22.8716L10.0618 18.8364Z" fill="white"/>
</svg>
