<svg width="22" height="19" viewBox="0 0 22 19" fill="none" xmlns="http://www.w3.org/2000/svg">
<path fill-rule="evenodd" clip-rule="evenodd" d="M1.50631 8.19454C7.41068 5.52165 11.3413 3.74557 13.315 2.88392C18.9326 0.439622 20.1135 0.0175849 20.8726 0C21.0413 0 21.4125 0.03517 21.6655 0.246188C21.8679 0.422037 21.9185 0.650641 21.9523 0.826489C21.986 1.00234 22.0198 1.37162 21.986 1.65298C21.6824 4.9941 20.3665 13.1007 19.6918 16.8287C19.405 18.4113 18.8483 18.9389 18.3084 18.9916C17.1276 19.0972 16.2335 18.1827 15.1032 17.409C13.315 16.1957 12.3197 15.4395 10.5822 14.2437C8.57468 12.8721 9.87364 12.116 11.0208 10.885C11.3244 10.5685 16.5034 5.64474 16.6046 5.20512C16.6215 5.15236 16.6215 4.94134 16.5034 4.83584C16.3853 4.73033 16.2166 4.7655 16.0817 4.80067C15.8961 4.83584 13.062 6.80534 7.54563 10.6916C6.73589 11.2719 6.0105 11.5533 5.35258 11.5357C4.62719 11.5181 3.24388 11.1136 2.19797 10.7619C0.932744 10.3399 -0.0794328 10.1113 0.00491532 9.37273C0.0555242 8.98586 0.561612 8.599 1.50631 8.19454Z" fill="white"/>
</svg>
