<svg width="12" height="22" viewBox="0 0 12 22" fill="none" xmlns="http://www.w3.org/2000/svg">
<path d="M11.7071 10.2929L1.70709 0.292862C1.56723 0.153017 1.38905 0.0577853 1.19507 0.0192078C1.00109 -0.0193696 0.800023 0.000440337 0.6173 0.0761322C0.434577 0.151824 0.278403 0.279998 0.168525 0.444448C0.0586466 0.608897 -4.96765e-07 0.802236 0 1.00002V21C4.27744e-06 21.1978 0.0586534 21.3911 0.168532 21.5556C0.278411 21.72 0.434585 21.8482 0.617306 21.9239C0.800026 21.9996 1.00109 22.0194 1.19507 21.9808C1.38905 21.9422 1.56723 21.847 1.70709 21.7072L11.7071 11.7072C11.8 11.6143 11.8736 11.5041 11.9239 11.3827C11.9741 11.2614 12 11.1313 12 11C12 10.8687 11.9741 10.7386 11.9239 10.6173C11.8736 10.496 11.8 10.3857 11.7071 10.2929Z" fill="white"/>
</svg>
