<svg width="10" height="11" viewBox="0 0 10 11" fill="none" xmlns="http://www.w3.org/2000/svg" id="blog">
<path d="M3.93939 5.4796L9.09089 3.64698V6.69389C8.78478 6.51959 8.42078 6.4185 8.03028 6.4185C6.94244 6.4185 6.06061 7.2028 6.06061 8.17025C6.06061 9.1377 6.94244 9.922 8.03028 9.922C9.11811 9.922 10 9.1377 10 8.17025V3.0208C10 2.40481 10 1.88821 9.95128 1.4766C9.94439 1.41842 9.93622 1.36059 9.92722 1.30663C9.88028 1.02543 9.79733 0.763098 9.63722 0.544044C9.55711 0.434511 9.45778 0.335802 9.334 0.250954C9.31078 0.235048 9.28667 0.219626 9.26172 0.20471L9.25672 0.201734C8.82811 -0.0519585 8.34628 -0.0338141 7.84989 0.0786774C7.36983 0.187473 6.77467 0.409024 6.04489 0.680696L4.77572 1.15311C4.43367 1.28043 4.14383 1.3883 3.91633 1.50004C3.67431 1.61891 3.46583 1.75912 3.30948 1.96805C3.15313 2.17699 3.0882 2.40216 3.05834 2.64662C3.03028 2.87638 3.03029 3.15579 3.03031 3.48559V7.77188C2.72415 7.59759 2.36019 7.4965 1.96969 7.4965C0.881861 7.4965 0 8.2808 0 9.24825C0 10.2157 0.881861 11 1.96969 11C3.05753 11 3.93939 10.2157 3.93939 9.24825V5.4796Z" fill="white"/>
</svg>
