<svg viewBox="0 0 15 18" xmlns="http://www.w3.org/2000/svg" id="basket">
<path d="M0.979423 5.67285L1.81334 15.7397C1.8731 16.4656 2.49148 17.0348 3.22022 17.0348H10.9038C11.6326 17.0348 12.251 16.4656 12.3107 15.7397L13.1446 5.67285H0.979423ZM4.70757 15.1516C4.46112 15.1516 4.25378 14.9599 4.23815 14.7102L3.76735 7.11466C3.75125 6.85491 3.94848 6.63146 4.2078 6.61536C4.47675 6.5965 4.69056 6.79606 4.7071 7.05581L5.1779 14.6514C5.19456 14.9204 4.98173 15.1516 4.70757 15.1516ZM7.53281 14.6808C7.53281 14.9411 7.32224 15.1516 7.06201 15.1516C6.80178 15.1516 6.59121 14.9411 6.59121 14.6808V7.08525C6.59121 6.82503 6.80178 6.61445 7.06201 6.61445C7.32224 6.61445 7.53281 6.82503 7.53281 7.08525V14.6808ZM10.3567 7.11469L9.88588 14.7103C9.8704 14.9574 9.66441 15.1634 9.38658 15.1507C9.12726 15.1346 8.93002 14.9112 8.94613 14.6514L9.41693 7.05584C9.43303 6.79609 9.66061 6.60711 9.91623 6.61539C10.1755 6.6315 10.3728 6.85494 10.3567 7.11469ZM13.1824 2.84805H10.3576V2.37725C10.3576 1.59842 9.72405 0.964844 8.94522 0.964844H5.17881C4.39998 0.964844 3.76641 1.59842 3.76641 2.37725V2.84805H0.941602C0.421555 2.84805 0 3.2696 0 3.78965C0 4.30963 0.421555 4.73125 0.941602 4.73125H13.1824C13.7025 4.73125 14.124 4.30963 14.124 3.78965C14.124 3.2696 13.7025 2.84805 13.1824 2.84805ZM9.41602 2.84805H4.70801V2.37725C4.70801 2.11749 4.91905 1.90645 5.17881 1.90645H8.94522C9.20497 1.90645 9.41602 2.11749 9.41602 2.37725V2.84805Z"/>
</svg>
