<svg width="20" height="21" viewBox="0 0 20 21" fill="none" xmlns="http://www.w3.org/2000/svg" id="book">
<path d="M7.5 16.75C7.99711 16.7506 8.47369 16.9483 8.8252 17.2998C9.1767 17.6513 9.37443 18.1279 9.375 18.625C9.375 18.7908 9.44085 18.9497 9.55806 19.0669C9.67527 19.1842 9.83424 19.25 10 19.25C10.1658 19.25 10.3247 19.1842 10.4419 19.0669C10.5592 18.9497 10.625 18.7908 10.625 18.625C10.6256 18.1279 10.8233 17.6513 11.1748 17.2998C11.5263 16.9483 12.0029 16.7506 12.5 16.75H17.5C17.8314 16.7496 18.1491 16.6178 18.3835 16.3835C18.6178 16.1491 18.7496 15.8314 18.75 15.5V5.5C18.7496 5.1686 18.6178 4.85087 18.3835 4.61654C18.1491 4.3822 17.8314 4.25038 17.5 4.25H13.75C12.9215 4.25094 12.1272 4.58048 11.5413 5.16633C10.9555 5.75218 10.6259 6.54649 10.625 7.375V13.625C10.625 13.7908 10.5592 13.9497 10.4419 14.0669C10.3247 14.1842 10.1658 14.25 10 14.25C9.83424 14.25 9.67527 14.1842 9.55806 14.0669C9.44085 13.9497 9.375 13.7908 9.375 13.625V7.375C9.37406 6.54649 9.04452 5.75218 8.45867 5.16633C7.87282 4.58048 7.07851 4.25094 6.25 4.25H2.5C2.1686 4.25038 1.85087 4.3822 1.61654 4.61654C1.3822 4.85087 1.25038 5.1686 1.25 5.5V15.5C1.25038 15.8314 1.3822 16.1491 1.61654 16.3835C1.85087 16.6178 2.1686 16.7496 2.5 16.75H7.5Z" fill="white"/>
</svg>
