<svg width="22" height="20" viewBox="0 0 22 20" fill="none" xmlns="http://www.w3.org/2000/svg">
<path d="M9 18.25C9 18.5467 8.91203 18.8367 8.7472 19.0834C8.58238 19.33 8.34811 19.5223 8.07403 19.6358C7.79994 19.7494 7.49834 19.7791 7.20736 19.7212C6.91639 19.6633 6.64912 19.5204 6.43934 19.3107C6.22956 19.1009 6.0867 18.8336 6.02882 18.5426C5.97094 18.2517 6.00065 17.9501 6.11418 17.676C6.22771 17.4019 6.41997 17.1676 6.66665 17.0028C6.91332 16.838 7.20333 16.75 7.5 16.75C7.89782 16.75 8.27935 16.908 8.56066 17.1893C8.84196 17.4706 9 17.8522 9 18.25ZM17.25 16.75C16.9533 16.75 16.6633 16.838 16.4166 17.0028C16.17 17.1676 15.9777 17.4019 15.8642 17.676C15.7506 17.9501 15.7209 18.2517 15.7788 18.5426C15.8367 18.8336 15.9796 19.1009 16.1893 19.3107C16.3991 19.5204 16.6664 19.6633 16.9574 19.7212C17.2483 19.7791 17.5499 19.7494 17.824 19.6358C18.0981 19.5223 18.3324 19.33 18.4972 19.0834C18.662 18.8367 18.75 18.5467 18.75 18.25C18.75 17.8522 18.592 17.4706 18.3107 17.1893C18.0294 16.908 17.6478 16.75 17.25 16.75ZM21.3844 4.29837C21.3145 4.20568 21.2241 4.13049 21.1202 4.07872C21.0163 4.02694 20.9018 3.99999 20.7857 4H4.53003L3.76941 1.33788C3.6789 1.025 3.48943 0.74989 3.2294 0.553762C2.96937 0.357635 2.65279 0.251057 2.32709 0.25H0.75C0.551088 0.25 0.360322 0.329018 0.21967 0.46967C0.0790176 0.610322 0 0.801088 0 1C0 1.19891 0.0790176 1.38968 0.21967 1.53033C0.360322 1.67098 0.551088 1.75 0.75 1.75H2.32709L3.23932 4.94263C3.24179 4.95187 3.24435 4.96107 3.24719 4.97023L5.71802 13.6181C5.85371 14.0874 6.13787 14.5001 6.52791 14.7944C6.91795 15.0886 7.39285 15.2484 7.88141 15.25H16.8686C17.3571 15.2484 17.832 15.0886 18.2221 14.7944C18.6121 14.5002 18.8963 14.0875 19.032 13.6181L21.5068 4.95604C21.5387 4.84442 21.5443 4.72692 21.523 4.6128C21.5018 4.49868 21.4543 4.39104 21.3844 4.29837Z" fill="#03A753"/>
</svg>
