<svg viewBox="0 0 13 15" fill="none" xmlns="http://www.w3.org/2000/svg" id="icon">
<path d="M11.5552 0H2.10094C1.82234 0 1.55515 0.110674 1.35815 0.307676C1.16115 0.504677 1.05047 0.771869 1.05047 1.05047V3.15141H0V4.20188H1.05047V6.82806H0V7.87853H1.05047V10.5047H0V11.5552H1.05047V13.6561C1.05047 13.9347 1.16115 14.2019 1.35815 14.3989C1.55515 14.5959 1.82234 14.7066 2.10094 14.7066H11.5552C11.8338 14.7066 12.101 14.5959 12.298 14.3989C12.495 14.2019 12.6057 13.9347 12.6057 13.6561V1.05047C12.6057 0.771869 12.495 0.504677 12.298 0.307676C12.101 0.110674 11.8338 0 11.5552 0ZM11.5552 13.6561H2.10094V11.5552H3.15141V10.5047H2.10094V7.87853H3.15141V6.82806H2.10094V4.20188H3.15141V3.15141H2.10094V1.05047H11.5552V13.6561Z" fill="white"/>
<path d="M2.5 0.5H11C11.5523 0.5 12 0.947716 12 1.5V13.5C12 14.0523 11.5523 14.5 11 14.5H2.5C1.94772 14.5 1.5 14.0523 1.5 13.5V11V7.5V3.5V1.5C1.5 0.947715 1.94772 0.5 2.5 0.5Z" fill="white"/>
<path d="M5.25195 3.15137H9.45384V4.20184H5.25195V3.15137ZM5.25195 6.82802H9.45384V7.87849H5.25195V6.82802ZM5.25195 10.5047H9.45384V11.5551H5.25195V10.5047Z" fill="#03A753"/>
</svg>
