<svg width="165" height="43" viewBox="0 0 165 43" fill="none" xmlns="http://www.w3.org/2000/svg">
<g clip-path="url(#clip0_2668_38486)">
<path d="M44.6263 0.678589H0.679688V42.3215H44.6263V0.678589Z" stroke="#009640" stroke-width="2"/>
<path d="M22.8281 23.4033L22.8824 23.3762L22.9096 23.2948L22.9028 23.1862L22.8689 22.9623L22.8281 22.528L22.7806 22.0327L22.6109 20.5127L22.5634 19.1284L22.5295 17.466L22.6109 15.9935L22.7806 14.8875L23.025 13.4082L23.2694 12.0918L23.6835 10.5719L23.9686 9.25548L24.2604 7.6948L24.4777 6.31734L24.5456 5.347V4.81095V4.32239L24.498 3.77954L24.3419 2.96528L24.179 2.52422L23.9686 1.98816L23.283 3.82704L22.9028 4.67524L22.6245 5.35379L22.3462 5.97127L21.7896 6.91446L20.8867 8.47514L20.2283 9.54047L19.7803 10.2801L19.4884 10.8569L19.2847 11.5151L19.0811 12.2547L18.9453 13.2386V14.0121V14.6296L19.1897 15.7085L19.6513 16.9706L20.2079 18.0495L20.7034 18.9724L21.1311 19.8681L21.5045 20.6959L21.9457 21.6934L22.2851 22.623L22.4344 23.0369L22.5363 23.2676L22.6584 23.4033L22.7603 23.4305L22.8281 23.4033Z" fill="#009640"/>
<path d="M20.3229 23.1387L20.3772 22.9758L20.3229 22.7044L20.1939 22.3244L19.9835 21.8087L19.8002 21.4084L19.583 20.947L19.2843 20.5195L18.9653 20.0445L18.5444 19.5695L18.1303 19.1556L17.533 18.7417L16.6912 18.226L15.9106 17.9003L15.1503 17.6153L14.4511 17.4321L13.7316 17.3506H13.0121L12.0481 17.3846L11.2675 17.4931L10.4258 17.656L9.62476 17.941L8.84412 18.2667L8.02276 18.7213L7.03847 19.2574L6.15601 19.8341L5.15136 20.6755L4.63546 21.1912L3.91591 22.0327L3.41359 22.8334L3.06739 23.4848L2.82981 24.0073L2.65331 24.5501L2.45646 25.3779L2.375 25.9818V26.4433C2.375 26.4433 2.39536 27.0472 2.39536 27.0947C2.39536 27.1422 2.43609 27.59 2.43609 27.59L2.51076 27.9564L2.59901 28.2889L2.67368 28.5671L2.74835 28.8182L2.8366 29.0693L2.99951 29.3271L3.20316 29.585L3.45432 29.9039L3.80052 30.3246L4.2689 30.8199L4.80516 31.2542L5.31428 31.6071L5.95236 31.926L6.71264 32.2178L7.31 32.4349L7.8802 32.6113L8.53187 32.7674L9.12923 32.9438L9.67907 33.0727L10.2764 33.2288L10.772 33.3577L11.2539 33.4731L11.9395 33.6292L12.6998 33.8802L13.5008 34.1245L14.1525 34.3552L14.967 34.6063L15.578 34.8098L16.1278 35.0134L16.6912 35.217L17.3022 35.4952L17.9267 35.753L18.3611 35.9702L18.9856 36.3909L19.6237 36.7844L20.0582 37.1034L20.513 37.4698L20.8795 37.8226L21.3004 38.2026L21.7077 38.6844L21.986 39.0169L22.2779 39.4986L22.4408 39.7769L22.5426 39.9397L22.658 40.1229L22.7123 40.1772L22.7463 40.2111H22.821L22.8549 40.1772L22.8685 40.1433L22.8549 39.6751L22.8277 39.1254L22.8006 38.7183L22.7734 38.2976L22.7123 37.8905L22.6377 37.3069L22.563 36.6216L22.4476 35.9498L22.3458 35.3527L22.1829 34.8031L22.0539 34.3349L21.9113 33.9006L21.7077 33.4324L21.5041 33.0117L21.2529 32.6045L21.0492 32.2585L20.8049 31.9396L20.513 31.5731L20.1804 31.2406L19.7731 30.8878L19.4405 30.596L19.0332 30.3653L18.5105 30.06C18.5105 30.06 18.0625 29.7071 18.0896 29.7546C18.1168 29.8021 17.6212 29.4357 17.6212 29.4357L17.1121 29.0896L16.5894 28.6553L16.2432 28.3839L15.8359 27.9632L15.4422 27.5154L15.1978 27.0947L15.0349 26.7011L14.9195 26.3076L14.906 25.9751L14.9331 25.629L15.0214 25.2083L15.1639 24.774L15.3404 24.428L15.6187 24.1226L16.0124 23.8444L16.3586 23.5865L16.7795 23.3558L17.1732 23.2133L17.6552 23.0844L18.1643 23.0573L18.6598 23.0166L19.2572 23.0301L19.7052 23.0776L20.0853 23.193L20.2143 23.2337L20.3025 23.2066L20.3636 23.1726L20.3229 23.1387Z" fill="#009640"/>
<path d="M23.3512 40.1705C23.3512 40.1705 23.3241 40.1501 23.3037 40.123C23.2969 40.1094 23.2698 40.0687 23.2562 40.0551C23.2223 40.0008 23.2223 39.9669 23.2223 39.9873C23.2223 40.0076 23.1951 39.9465 23.1815 39.8855C23.168 39.8312 23.168 39.7701 23.168 39.7701L23.2494 38.7591L23.2969 37.7887L23.4123 36.6623L23.5277 35.7463L23.6703 34.8845L23.8332 34.2874L24.0301 33.6835L24.288 33.0253L24.546 32.5299L24.8379 32.0889L25.123 31.6342L25.5303 31.1593L25.9036 30.8132L26.7385 30.1211L27.4377 29.5443L28.2727 28.8522L28.7954 28.289L29.2773 27.7461L29.6032 27.2033L29.8475 26.7758L30.1055 26.1176L30.2277 25.663V25.3033L30.1937 25.0251L30.1326 24.6655L29.9969 24.3873L29.8204 24.0684L29.6235 23.8037L29.3791 23.5662L29.0737 23.3287L28.775 23.1862L28.4899 23.0641L28.1912 22.9691L27.9061 22.908L27.621 22.8809L27.2001 22.8673L26.7589 22.8402L26.4942 22.8809L26.0801 22.9623L25.8425 23.003L25.5642 23.0777L25.2316 23.1727L25.1162 23.037L25.0211 22.8945L24.9397 22.6298L24.8786 22.1548L24.7632 21.4763L24.6274 20.6959L24.546 19.7935L24.4917 18.5992L24.5324 17.561L24.6885 16.5568L24.8311 15.7018L25.0143 15.0639L25.2723 14.2836L25.6321 13.4626L26.0122 12.7636L26.3923 12.2412L26.8472 11.644L27.3495 11.1283L27.9944 10.6466L28.7003 10.2462L29.5013 9.86622L30.1869 9.64229L30.5806 9.52694L31.0965 9.43194L31.5989 9.39123L32.1012 9.3573H32.4813L33.0448 9.43194L33.6082 9.56765L34.2055 9.71015L34.8504 9.968L35.4546 10.2869L36.0791 10.7416L36.4999 11.1826C36.4999 11.1826 36.7782 11.5355 36.785 11.5626C36.7986 11.5965 37.0023 11.9765 37.0023 11.9765L37.0973 12.3972L37.1177 12.6958L37.138 12.8994L37.1177 13.1029L37.0973 13.2997L37.0158 13.6526L36.7918 14.1886L36.5271 14.6093L36.2216 14.9554L35.8415 15.2743L35.3799 15.6068L34.9183 15.8239L34.5585 15.9393L34.4363 15.8646L34.3549 15.7289V15.5729L34.4295 15.4168L34.4906 15.2947L34.5653 14.9554L34.5857 14.7111L34.5721 14.3243L34.4974 14.0258L34.3413 13.7679L34.158 13.5643L33.8933 13.4218L33.5403 13.2861L33.1194 13.2251L32.6646 13.2386L32.2641 13.3743L31.9654 13.5168L31.7414 13.734L31.5446 13.89L31.3273 14.1275L31.2052 14.3922L31.0898 14.65V14.9282L31.1305 15.1725L31.2255 15.4914L31.4292 15.8307L31.6871 16.1089L32.074 16.5364L32.5967 16.8553L33.0719 17.0589L33.5946 17.1742L34.2802 17.3167L35.2238 17.5407L36.1062 17.846L36.8869 18.131L37.5521 18.3685L38.1766 18.6874L38.8011 19.0878L39.3645 19.427L39.8872 19.8817L40.5864 20.4856L41.1498 21.1099L41.7132 21.9038L42.0391 22.3855L42.2834 22.8198L42.4871 23.3966L42.6636 23.9123L42.779 24.5773L42.8537 25.1608L42.874 25.8665L42.8537 26.4637L42.7993 26.9997L42.7179 27.4204L42.4532 28.2415L42.1341 28.859L41.8694 29.3136L41.3874 29.9311L40.9462 30.3721L40.4303 30.7928L39.67 31.3153L39.0726 31.6614L38.3938 32.0142L37.6675 32.2721L36.914 32.5503L36.2556 32.7742L35.6107 32.971L34.9183 33.1271L34.1376 33.3103L33.4181 33.5071L32.8818 33.6428L32.1216 33.9006L31.3206 34.2195L30.506 34.5181L29.7525 34.837L29.2773 35.0813L28.7614 35.3595L28.2998 35.5631L27.8586 35.8209L27.3427 36.1398L26.82 36.4452L26.3788 36.7573L25.9511 37.1373L25.4556 37.592L24.865 38.1823L24.6953 38.3723L24.5052 38.5826L24.2948 38.8337L24.1862 38.983L24.0504 39.1662L23.9758 39.2883L23.9011 39.3901L23.7993 39.553L23.7042 39.7158L23.6228 39.8583L23.5685 39.9737L23.5142 40.089L23.4938 40.1433L23.4734 40.2044L23.4531 40.218L23.4123 40.2383L23.3241 40.2247L23.2766 40.184L23.3512 40.1705Z" fill="#009640"/>
<path d="M17.1469 25.0115H17.1333L16.3798 25.439L16.2305 24.6112L17.2758 24.0276H18.0293V28.7504H17.1401V25.0047L17.1469 25.0115Z" fill="#009640"/>
<path d="M19.6176 27.9632C19.7398 27.9768 19.8348 27.97 20.0181 27.9632C20.3032 27.9429 20.5883 27.8479 20.7919 27.6715C21.0499 27.4611 21.2196 27.149 21.2875 26.7893H21.2739C21.0974 26.9997 20.8395 27.1218 20.4797 27.1218C19.8144 27.1218 19.2578 26.5722 19.2578 25.6494C19.2578 24.7265 19.8755 23.9462 20.7376 23.9462C21.7491 23.9462 22.2242 24.8758 22.2242 25.9819C22.2242 26.9725 21.9663 27.685 21.5318 28.16C21.1585 28.5671 20.6358 28.7843 20.0249 28.8114C19.8755 28.825 19.7126 28.8182 19.6108 28.8114V27.9564L19.6176 27.9632ZM20.1742 25.5883C20.1742 25.9954 20.3643 26.3415 20.7308 26.3415C20.982 26.3415 21.1585 26.2058 21.2467 26.0361C21.2739 25.9615 21.2875 25.8936 21.2875 25.7511C21.2875 25.249 21.1381 24.7537 20.7037 24.7537C20.3982 24.7537 20.1742 25.0862 20.1742 25.5815V25.5883Z" fill="#009640"/>
<path d="M22.977 27.9632C23.0991 27.9768 23.1942 27.97 23.3775 27.9632C23.6626 27.9429 23.9477 27.8479 24.1513 27.6715C24.4093 27.4611 24.579 27.149 24.6469 26.7893H24.6333C24.4568 26.9997 24.1988 27.1218 23.8391 27.1218C23.1738 27.1218 22.6172 26.5722 22.6172 25.6494C22.6172 24.7265 23.2349 23.9462 24.097 23.9462C25.1084 23.9462 25.5836 24.8758 25.5836 25.9819C25.5836 26.9725 25.3257 27.685 24.8912 28.16C24.5179 28.5671 23.9952 28.7843 23.3843 28.8114C23.2349 28.825 23.072 28.8182 22.9634 28.8114V27.9564L22.977 27.9632ZM23.5336 25.5883C23.5336 25.9954 23.7237 26.3415 24.0902 26.3415C24.3414 26.3415 24.5179 26.2058 24.6061 26.0361C24.6333 25.9615 24.6469 25.8936 24.6469 25.7511C24.6469 25.249 24.4975 24.7537 24.0631 24.7537C23.7508 24.7537 23.5268 25.0862 23.5268 25.5815L23.5336 25.5883Z" fill="#009640"/>
<path d="M27.2202 25.0115H27.2066L26.4599 25.439L26.3105 24.6112L27.3559 24.0276H28.1094V28.7503H27.2202V25.0047V25.0115Z" fill="#009640"/>
<path fill-rule="evenodd" clip-rule="evenodd" d="M137.65 13.3132C134.975 11.7254 131.418 10.7347 127.562 10.8161C123.442 10.9043 119.077 12.5804 116.912 15.1521C114.706 17.7781 114.441 21.9716 117.896 23.5662C120.211 21.8223 124.087 17.9002 129.103 18.4363C131.357 18.6806 133.651 20.282 132.749 23.3015C133.814 23.1183 134.649 22.718 135.552 22.3787C136.998 19.9359 138.783 17.0792 141.017 14.8875C141.96 13.9578 143.114 12.6889 144.662 11.9968C145.979 11.4065 148.144 10.5854 149.705 11.9968C149.278 15.6678 146.291 17.4931 143.399 19.0945C141.6 20.0988 139.632 20.9334 137.792 21.7273C135.946 25.3304 133.903 30.1074 130.509 33.2966C127.834 35.8073 121.772 38.854 117.618 35.9226C116.376 35.0473 115.188 33.1066 114.957 31.451C114.529 28.3703 116.138 26.0157 117.618 24.0887C116.294 22.5212 114.543 21.7612 114.957 18.5652C115.507 14.27 121.046 10.9383 126.727 10.5447C130.794 10.2665 135.131 11.1486 137.656 13.3064L137.65 13.3132ZM143.114 13.4421C140.867 15.4439 139.163 18.6874 137.928 21.3337C141.051 20.0648 144.546 18.4295 146.895 16.3396C148.036 15.3285 149.61 13.7882 149.278 11.8679C146.78 10.8365 144.424 12.275 143.114 13.4421ZM128.961 18.7009C124.182 18.2734 120.197 21.9376 118.31 23.8308C118.887 24.1701 119.423 24.5365 120.272 24.6179C122.295 22.6637 124.813 20.4652 128.676 20.6755C125.01 21.0487 122.369 22.3787 120.829 24.7536C124.732 25.7036 128.954 24.3533 132.178 23.4372C133.753 20.6755 131.106 18.8977 128.954 18.7077L128.961 18.7009ZM132.463 23.6951C130.834 26.8707 125.77 33.6359 120.272 33.032C119.084 32.9031 117.93 31.6885 117.754 30.7996C117.197 28.0446 119.165 26.6739 119.994 24.8826C119.294 24.6586 118.656 24.3804 118.032 24.0954C116.633 25.9479 114.807 27.8207 115.093 30.9353C115.317 33.3984 117.407 34.932 119.858 35.1423C126.782 35.7394 133.129 27.4 135.131 23.0437C135.124 22.9623 135.111 22.8876 134.989 22.9148C134.235 23.2608 133.393 23.5255 132.47 23.7019L132.463 23.6951ZM120.557 25.0115C118.521 26.1175 116.627 31.512 119.58 32.6384C119.973 32.7877 120.89 32.7945 121.256 32.7674C125.383 32.5027 129.422 28.2075 131.201 25.534C131.445 25.1676 132.104 24.1158 131.622 23.9597C128.391 24.7672 124.365 25.914 120.557 25.0115Z" fill="#009640" stroke="#009640" stroke-width="0.5"/>
<path fill-rule="evenodd" clip-rule="evenodd" d="M140.169 31.1931C137.793 32.4349 136.415 35.2916 132.743 34.8777C132.152 32.8149 133.795 31.7631 134.562 30.5417C134.542 30.2499 133.971 30.4874 133.72 30.4128C133.449 30.2364 134.576 30.2567 134.84 30.1481C136.144 29.0489 137.617 27.6918 139.463 26.8572C140.223 26.5111 141.275 25.9615 142.124 26.4636C141.914 27.5628 141.174 28.3025 140.305 28.8317C139.232 29.4899 137.685 29.6053 136.66 30.1481C135.906 30.5485 135.397 31.4238 134.976 32.1227C134.562 32.8081 133.863 33.7241 134.134 34.6198C136.734 33.9548 138.486 32.2381 140.298 30.8063C141.194 30.1006 142.131 29.3474 142.959 28.5739C143.774 27.8139 144.432 26.6264 145.762 26.4704C146.095 27.3389 144.873 27.8071 144.5 28.445C145.532 28.0989 146.611 26.6604 148.423 26.6061C148.939 27.1286 148.518 28.0175 148.281 28.5807C149.734 27.97 150.358 26.5857 152.34 26.4772C153.311 28.5332 151.207 30.1006 149.679 31.4713C148.607 32.4349 147.351 33.317 146.876 34.4977C148.552 34.3959 149.815 32.7877 151.363 32.1295C153.039 29.4967 154.662 26.8097 158.925 26.6061C158.959 28.0853 158.226 28.8453 156.963 29.1032C156.304 27.7121 158.178 27.6307 158.782 26.9996C157.805 26.4975 157.004 27.5289 156.399 28.0514C154.499 29.6867 152.327 31.8717 151.634 34.6266C152.571 34.552 153.399 34.0295 154.153 33.5748C155.184 32.9506 156.318 32.3127 157.099 31.4713C158.035 30.4603 158.585 29.2321 159.617 28.316C160.615 27.4271 161.85 26.8707 163.12 26.2125C163.147 26.7757 162 26.9521 161.436 27.3932C160.561 28.0921 159.563 29.456 158.918 30.5485C158.253 31.6817 157.201 33.127 157.798 34.362C159.115 34.0227 160.031 33.3034 160.88 32.5231C159.366 29.8699 162.007 26.5857 164.803 26.735C164.946 29.3271 162.706 30.8131 161.443 32.5231C161.755 33.2831 163.099 33.0727 163.547 33.7038C162.468 33.6698 161.789 33.2491 161.165 32.7809C159.794 33.5002 158.592 34.9659 156.685 34.7555C156.101 34.172 156.359 33.3577 156.542 32.5231C155.721 32.6859 155.008 33.3441 154.159 33.8395C153.386 34.2873 152.564 34.993 151.356 34.8912C150.955 34.4773 151.003 33.2423 151.213 32.6588C149.496 33.127 148.58 34.9862 146.591 34.7623C146.081 32.8691 148.206 31.1728 149.537 29.8971C150.562 28.9132 151.716 28.0107 152.198 26.7418C149.7 27.2982 148.145 29.1167 146.591 30.6842C145.837 31.451 144.989 32.2584 144.208 33.0524C143.57 33.7038 142.83 35.1219 141.547 34.7623C141.527 33.7513 142.518 33.2559 143.088 32.6588C143.692 32.021 144.16 31.322 144.765 30.6842C145.919 29.4764 147.459 28.506 148.125 26.8707C145.708 27.5357 144.079 29.0692 142.518 30.5553C141.757 31.2881 141.058 32.1227 140.278 32.9234C139.606 33.6156 138.893 34.7827 137.617 34.7623C137.528 33.2016 139.511 32.5299 140.142 31.2135L140.169 31.1931ZM160.9 29.7478C160.629 30.4806 160.398 32.1702 161.321 32.2449C161.463 32.2584 162.04 31.356 162.305 31.0642C163.405 29.8292 164.919 28.5739 164.545 26.8572C162.835 26.9861 161.382 28.4382 160.9 29.7478ZM141.846 26.5925C139.626 26.5857 138.139 28.3568 136.945 29.7478C138.811 29.4357 141.296 28.5807 141.846 26.5925Z" fill="#009640" stroke="#009640" stroke-width="0.5"/>
<path fill-rule="evenodd" clip-rule="evenodd" d="M65.669 11.8679C63.1438 11.739 60.2114 11.2843 57.4554 11.4743C53.5047 11.7457 48.5357 13.605 49.1059 18.1784C49.3571 20.187 51.3189 21.3541 53.2128 22.1208C53.9323 22.4126 54.7808 22.9283 55.5411 22.779C56.1792 22.6569 57.116 21.3948 57.8694 20.6755C61.44 17.242 66.3411 14.5142 71.5612 12.7839C72.5387 12.4582 73.7605 12.0986 74.9824 11.8611C77.1003 11.4607 79.6934 11.0468 80.8678 12.5193C80.3111 14.5142 78.0982 15.3828 76.4894 16.3328C71.9617 19.0131 66.5583 21.6594 60.6119 22.908C60.0417 23.0301 59.2678 23.003 58.8334 23.1726C57.6862 23.6069 55.6293 26.7893 54.8623 28.0378C53.0566 30.9828 50.3414 37.809 56.9191 37.239C56.8648 36.2619 56.4575 35.7666 56.3693 35.0066C55.6972 29.2185 61.9016 23.9665 66.2257 23.1726C68.235 22.8062 70.2035 23.288 70.4683 25.0115C70.9502 28.1532 67.3729 31.2678 65.8116 32.7674C63.3475 35.1355 61.0259 36.5198 57.8694 37.239C58.4057 38.6776 61.3857 38.949 63.0692 38.5554C64.3929 38.2433 65.3839 37.429 65.9406 36.8455C65.9202 37.4222 64.8409 38.1687 63.8905 38.5554C62.7501 39.0101 60.3132 39.1797 58.8266 38.5554C58.1002 38.2501 57.8151 37.6258 57.1838 37.3747C53.2535 38.3994 51.6718 35.0134 51.7058 31.7224C51.7465 28.1464 54.136 24.8283 55.4053 23.1794C51.1152 22.3855 47.2052 19.2777 49.3842 15.1589C51.6108 10.9518 59.6887 10.4836 65.6758 11.8747L65.669 11.8679ZM76.8967 11.8679C71.3711 12.4718 66.2257 16.4685 62.6619 19.3659C61.6844 20.1598 60.5304 21.0487 59.7837 21.863C59.5529 22.1141 58.8945 22.7315 59.3696 22.7858C65.8455 21.5305 71.4797 19.0063 76.3468 16.2106C77.9149 15.3082 79.8631 14.2767 80.5894 12.6618C79.9649 11.515 78.2339 11.7254 76.8899 11.8747L76.8967 11.8679ZM64.9902 33.1677C66.7212 31.6274 69.4976 29.0896 70.0542 26.7282C70.3325 25.534 70.1017 24.1429 69.3686 23.7019C68.2553 23.0437 65.3093 23.6408 64.4404 23.9665C60.4557 25.4525 54.4278 31.4374 57.4554 37.1169C60.3335 36.4858 62.7637 35.1423 64.9834 33.1745L64.9902 33.1677Z" fill="#009640" stroke="#009640" stroke-width="0.5"/>
<path fill-rule="evenodd" clip-rule="evenodd" d="M93.8676 35.0066C97.092 33.9413 99.271 31.0982 100.574 28.0379C100.12 27.2915 99.3117 27.8343 98.9316 28.0379C97.7844 28.6486 96.6372 30.3992 95.9176 31.3289C96.5761 30.1821 98.3207 27.0133 100.71 27.78C100.377 29.6596 99.0063 31.3424 97.8319 32.6453C96.7458 33.8599 95.0352 35.4409 92.9037 35.1423C92.5371 34.5588 92.4557 33.8124 92.7679 33.1678C91.261 33.6088 91.1388 35.3731 89.2109 35.4002C88.4778 33.5952 90.6297 32.4146 91.2678 31.0642C90.7518 30.7317 90.3785 31.4714 89.625 31.3289C89.9373 30.3314 90.9351 29.5511 91.8176 28.9607C92.6322 28.4111 93.7319 27.6036 94.8315 27.78C94.7365 28.6554 94.3021 29.205 93.3246 29.2254C93.2092 28.6757 93.5893 28.6079 93.5961 28.1736C92.1231 28.9064 90.7654 29.7478 89.8965 31.0642C90.779 31.0371 91.5189 30.216 92.2249 30.7996C91.9737 32.876 90.1952 33.4935 89.4893 35.1356C93.8744 33.4256 94.4853 28.0989 99.3457 26.8504C99.9838 26.5993 98.1849 27.495 97.9745 27.6375C97.0648 28.2754 95.8837 29.5578 95.1031 30.7928C94.3224 32.021 93.3653 33.7038 93.8744 34.9999L93.8676 35.0066Z" fill="#009640" stroke="#009640" stroke-width="0.5"/>
<path fill-rule="evenodd" clip-rule="evenodd" d="M82.0957 27.5154C82.3061 29.0828 81.125 30.1821 80.3172 31.1999C79.4823 32.2517 78.4369 33.1677 77.8531 34.3552C79.8149 33.7377 80.8195 32.0888 82.0957 30.8064C82.7066 30.1957 83.4805 29.5985 84.1525 28.9675C84.811 28.3364 85.5712 27.5493 86.6166 27.5222C86.8338 29.2796 85.3676 30.2839 84.4241 31.3356C83.433 32.4417 82.2926 33.5342 81.8242 35.0202C82.8696 34.9591 83.5755 34.077 84.2883 33.4392C85.7477 32.1499 87.2343 30.8132 88.6667 29.361C89.3726 28.6486 89.9089 27.7936 90.8592 27.3865C91.3073 27.4136 90.7913 28.0921 90.5877 28.4382C89.5559 30.1482 88.0489 32.1906 86.7524 33.9616C86.284 34.5995 85.707 35.5834 84.8381 35.407C85.2861 33.1609 87.0782 32.211 87.9878 30.4128C85.6934 31.9396 84.4105 34.4231 81.5527 35.407C80.867 33.7174 82.2111 32.3738 83.0596 31.3289C83.9896 30.1889 85.1775 29.2457 85.7953 28.0379C83.9625 28.8589 82.7677 30.5485 81.4169 31.9803C80.1136 33.3645 78.5116 34.5791 76.7602 35.5291C76.3326 33.9074 77.7513 32.591 78.6745 31.451C79.6588 30.2499 80.9078 29.205 81.5459 27.9022C80.5209 28.0854 79.9031 29.015 79.2175 29.741C77.215 31.8649 75.0971 34.3823 72.5108 36.0516C71.9135 36.0109 71.832 35.4748 71.4179 35.2645C70.4812 35.3663 70.0535 36.1398 69.2253 36.0516C66.7477 35.7937 68.2411 31.7563 69.4969 30.7928C69.076 30.8878 69.0964 30.5689 68.6755 30.6639C68.7366 30.3721 69.3475 30.6096 69.6326 30.5282C70.8817 29.6393 72.185 28.4043 73.8752 27.6375C74.8052 27.2168 76.1018 26.6536 77.1607 27.244C76.8009 29.0218 74.8799 29.8089 73.0539 30.2703C72.5176 30.406 71.8863 30.2839 71.4111 30.5349C70.6305 30.9421 70.1553 32.0481 69.7684 32.7674C69.3068 33.6292 68.8316 34.5656 68.8113 35.658C69.7412 36.2009 70.8477 35.1084 71.6827 34.7352C71.8659 33.4188 72.504 32.5435 73.7395 32.2381C74.0992 33.6902 72.409 34.2806 71.961 35.3934C72.8163 36.0719 73.8684 34.9523 74.4251 34.4706C75.8574 33.2492 77.1675 31.736 78.5319 30.2635C79.5977 29.11 80.2629 27.8207 82.0889 27.5018L82.0957 27.5154ZM76.896 27.2507C74.9002 26.9318 73.3593 28.35 72.3818 29.3543C72.2325 29.5035 71.5333 29.9853 71.9678 30.1414C74.1671 29.7885 76.7806 29.1643 76.896 27.2507Z" fill="#009640" stroke="#009640" stroke-width="0.5"/>
<path d="M107.782 28.2958C108.447 28.2958 109.011 28.5333 109.479 29.0015C109.947 29.4697 110.185 30.0464 110.185 30.7182C110.185 31.39 109.947 31.9464 109.479 32.4146C109.011 32.8828 108.44 33.1203 107.782 33.1203C107.123 33.1203 106.553 32.8828 106.085 32.4146C105.616 31.9464 105.379 31.3764 105.379 30.7182C105.379 30.06 105.616 29.4697 106.085 29.0015C106.553 28.5333 107.123 28.2958 107.782 28.2958Z" fill="#009640" stroke="#009640"/>
</g>
<defs>
<clipPath id="clip0_2668_38486">
<rect width="165" height="43" fill="white"/>
</clipPath>
</defs>
</svg>
