<svg viewBox="0 0 20 16" xmlns="http://www.w3.org/2000/svg" id="mail">
<path d="M19.7491 1.23237C19.7488 1.2185 19.7481 1.20465 19.747 1.19083C19.7461 1.17954 19.745 1.16833 19.7436 1.1572C19.742 1.14425 19.74 1.13136 19.7377 1.11848C19.7357 1.10685 19.7334 1.09531 19.7309 1.08389C19.7281 1.07167 19.7249 1.05956 19.7215 1.04748C19.7182 1.03592 19.7149 1.02448 19.7111 1.01317C19.7072 1.00135 19.7028 0.989728 19.6983 0.978103C19.694 0.966979 19.6895 0.95597 19.6847 0.945144C19.6796 0.9337 19.6741 0.922461 19.6684 0.911246C19.663 0.900604 19.6574 0.890074 19.6516 0.879729C19.6454 0.869042 19.639 0.858535 19.6324 0.848074C19.6256 0.837524 19.6187 0.827178 19.6115 0.816993C19.6047 0.807403 19.5976 0.797996 19.5903 0.788657C19.5821 0.778152 19.5736 0.767939 19.5648 0.757895C19.5607 0.753157 19.5571 0.748122 19.5529 0.743458C19.5493 0.73952 19.5453 0.736179 19.5416 0.732335C19.5326 0.722858 19.5232 0.713772 19.5137 0.704777C19.5048 0.696445 19.4959 0.688183 19.4868 0.680332C19.4778 0.672645 19.4685 0.665363 19.4591 0.658085C19.4488 0.650116 19.4386 0.642223 19.4281 0.634877C19.4189 0.62849 19.4094 0.622562 19.4 0.616589C19.3888 0.609539 19.3777 0.602512 19.3663 0.596103C19.3563 0.590519 19.346 0.585461 19.3358 0.580334C19.3245 0.574681 19.3133 0.568981 19.3018 0.563928C19.2905 0.558983 19.2791 0.554681 19.2676 0.550286C19.2565 0.546075 19.2455 0.541795 19.2344 0.538132C19.2222 0.534127 19.2098 0.530785 19.1975 0.527398C19.1864 0.524376 19.1753 0.521332 19.1642 0.518838C19.1518 0.516068 19.1392 0.513894 19.1267 0.511743C19.1148 0.509728 19.1029 0.50776 19.091 0.506318C19.0791 0.504876 19.0672 0.503915 19.0552 0.503045C19.0421 0.502084 19.029 0.501328 19.0158 0.501053C19.0105 0.50093 19.0054 0.500244 19 0.500244H1C0.994965 0.500244 0.990112 0.500908 0.985077 0.501C0.971253 0.501274 0.957428 0.502053 0.94365 0.503082C0.932251 0.503952 0.920944 0.504844 0.909729 0.506195C0.89714 0.507706 0.884643 0.509765 0.872101 0.51194C0.860153 0.514003 0.848206 0.516037 0.836487 0.518669C0.824674 0.521301 0.813049 0.524506 0.801331 0.52771C0.789518 0.53096 0.77771 0.534141 0.766128 0.537941C0.75441 0.541785 0.742878 0.546249 0.731293 0.550691C0.720352 0.554902 0.709366 0.559022 0.698654 0.563714C0.686706 0.568955 0.675029 0.574861 0.66331 0.580766C0.653466 0.585709 0.643622 0.590539 0.63406 0.595895C0.622341 0.602464 0.610897 0.609676 0.599453 0.616929C0.590298 0.622742 0.581051 0.62851 0.572172 0.634714C0.561415 0.642175 0.551024 0.650182 0.540633 0.658288C0.531385 0.665452 0.52223 0.672639 0.513351 0.680238C0.504105 0.688134 0.495178 0.696442 0.486206 0.704888C0.476731 0.713815 0.467438 0.722879 0.458419 0.732286C0.454758 0.736154 0.450732 0.739518 0.447113 0.743455C0.442856 0.748124 0.439285 0.753159 0.435166 0.757892C0.426422 0.767941 0.417908 0.778149 0.409666 0.788655C0.402388 0.797993 0.395292 0.807405 0.388517 0.81699C0.381285 0.827175 0.374372 0.837521 0.367643 0.848072C0.361006 0.858532 0.354551 0.869038 0.348417 0.879726C0.342557 0.890072 0.337019 0.900601 0.331618 0.911243C0.325941 0.922459 0.320402 0.933697 0.315275 0.945141C0.310469 0.955967 0.306029 0.966977 0.301726 0.9781C0.297194 0.989725 0.292799 1.00135 0.288862 1.01316C0.285112 1.02447 0.281767 1.03591 0.278517 1.04748C0.27513 1.05956 0.271925 1.07167 0.269133 1.08389C0.266569 1.09531 0.264326 1.10685 0.262266 1.11847C0.259978 1.13136 0.257963 1.14425 0.25636 1.1572C0.254985 1.16835 0.253871 1.17955 0.253019 1.19082C0.25192 1.20467 0.251218 1.21852 0.250913 1.23237C0.250778 1.23837 0.25 1.2442 0.25 1.25024V14.0002C0.250455 14.3979 0.408636 14.7792 0.689842 15.0604C0.971048 15.3416 1.35231 15.4998 1.75 15.5002H18.25C18.6477 15.4998 19.029 15.3416 19.3102 15.0604C19.5914 14.7792 19.7495 14.3979 19.75 14.0002V1.25024C19.75 1.2442 19.7492 1.23837 19.7491 1.23237ZM1.75 2.95521L7.25369 8.00027L1.75 13.0453V2.95521ZM2.92819 14.0002L8.36368 9.01774L9.49316 10.0531C9.6315 10.1799 9.81234 10.2502 10 10.2502C10.1877 10.2502 10.3685 10.1799 10.5068 10.0531L11.6364 9.01771L17.0719 14.0002H2.92819ZM12.7463 8.00024L18.2501 2.95507L18.2509 13.046L12.7463 8.00024Z"/>
</svg>
