<svg width="14" height="18" viewBox="0 0 14 18" fill="none" xmlns="http://www.w3.org/2000/svg">
<path d="M7 0.249756C5.1773 0.251919 3.42987 0.976941 2.14103 2.26579C0.852185 3.55463 0.127163 5.30206 0.125 7.12476C0.125 13.0073 6.375 17.4507 6.64111 17.6368C6.74636 17.7103 6.87163 17.7498 7 17.7498C7.12837 17.7498 7.25364 17.7103 7.35889 17.6368C7.625 17.4507 13.875 13.0073 13.875 7.12476C13.8728 5.30206 13.1478 3.55463 11.859 2.26579C10.5701 0.976941 8.8227 0.251918 7 0.249756ZM7.00046 4.62498C7.49491 4.62498 7.97826 4.77161 8.38938 5.04631C8.80051 5.32101 9.12094 5.71146 9.31016 6.16827C9.49938 6.62509 9.54888 7.12776 9.45242 7.61271C9.35596 8.09766 9.11786 8.54312 8.76822 8.89275C8.41859 9.24238 7.97314 9.48048 7.48818 9.57695C7.00323 9.67341 6.50056 9.6239 6.04375 9.43468C5.58693 9.24546 5.19649 8.92503 4.92178 8.51391C4.64708 8.10278 4.50046 7.61944 4.50046 7.12498C4.50045 6.79668 4.56511 6.47158 4.69074 6.16826C4.81637 5.86494 5.00052 5.58934 5.23267 5.35719C5.46482 5.12505 5.74042 4.9409 6.04374 4.81526C6.34706 4.68963 6.67215 4.62497 7.00046 4.62498Z" fill="#03A753"/>
</svg>
