<svg viewBox="0 0 19 24" xmlns="http://www.w3.org/2000/svg" id="notebook">
<path fill-rule="evenodd" clip-rule="evenodd" d="M13.4206 0.0305689C15.2193 -0.226387 16.8286 1.16932 16.8286 2.98627V4.48076C18.12 5.1634 19 6.52023 19 8.08259V18.9397C19 21.1883 17.1772 23.0111 14.9286 23.0111H4.07143C1.82284 23.0111 0 21.1883 0 18.9397V3.73974C0 3.72964 0.000184532 3.71959 0.000542818 3.70959C0.000184532 3.69396 0 3.67829 0 3.66258C0 2.67865 0.723498 1.84444 1.69755 1.70529L13.4206 0.0305689ZM1.62857 5.63974V18.9397C1.62857 20.2889 2.72228 21.3826 4.07143 21.3826H14.9286C16.2777 21.3826 17.3714 20.2889 17.3714 18.9397V8.08259C17.3714 6.73344 16.2777 5.63974 14.9286 5.63974H1.62857ZM1.97716 4.01117H15.2V2.98627C15.2 2.16038 14.4686 1.52597 13.6509 1.64277L1.92786 3.31749C1.75613 3.34203 1.62857 3.4891 1.62857 3.66258C1.62857 3.85509 1.78464 4.01117 1.97716 4.01117ZM4.34286 11.3397C4.34286 10.89 4.70743 10.5254 5.15714 10.5254H13.8429C14.2926 10.5254 14.6571 10.89 14.6571 11.3397C14.6571 11.7895 14.2926 12.154 13.8429 12.154H5.15714C4.70743 12.154 4.34286 11.7895 4.34286 11.3397ZM4.34286 15.1397C4.34286 14.69 4.70743 14.3254 5.15714 14.3254H11.1286C11.5783 14.3254 11.9429 14.69 11.9429 15.1397C11.9429 15.5895 11.5783 15.954 11.1286 15.954H5.15714C4.70743 15.954 4.34286 15.5895 4.34286 15.1397Z"/>
</svg>
