<svg viewBox="0 0 12 12" xmlns="http://www.w3.org/2000/svg" id="phone">
<path d="M11.1391 7.66384L8.57763 6.56609C8.44389 6.50851 8.29788 6.48533 8.15289 6.49865C8.0079 6.51197 7.86855 6.56137 7.74754 6.64235L6.378 7.55527C5.54098 7.14816 4.86353 6.47369 4.45273 5.63848L4.45283 5.63837L5.36255 4.24833C5.44173 4.12765 5.48978 3.98923 5.50238 3.84545C5.51498 3.70166 5.49174 3.55699 5.43475 3.42438L4.33598 0.860748C4.26119 0.686729 4.13204 0.541618 3.96787 0.447143C3.8037 0.352668 3.61335 0.313912 3.42531 0.336678C2.68641 0.431682 2.00736 0.792437 1.51503 1.35155C1.0227 1.91067 0.750755 2.6299 0.75 3.37488C0.75 7.71719 4.28268 11.2499 8.625 11.2499C9.36999 11.2491 10.0892 10.9772 10.6483 10.4848C11.2075 9.99248 11.5682 9.31343 11.6632 8.57452C11.6859 8.38648 11.6471 8.19614 11.5526 8.03199C11.4582 7.86783 11.3131 7.73867 11.1391 7.66384Z"/>
</svg>
