<svg width="15" height="13" viewBox="0 0 15 13" fill="none" xmlns="http://www.w3.org/2000/svg" id="icon">
<path d="M12.5 12.5L5 12.5L2 12.5C0.895431 12.5 7.82809e-08 11.6046 1.74845e-07 10.5L3.67893e-07 8.2918C4.10316e-07 7.80653 0.27417 7.36292 0.708205 7.1459C1.65248 6.67376 1.65248 5.32624 0.708204 4.8541C0.27417 4.63709 -2.27494e-07 4.19347 -1.85071e-07 3.7082L-3.57352e-08 2C6.08293e-08 0.89543 0.895431 -2.35675e-07 2 -1.3911e-07L13 -1.31134e-07C13.8284 -5.87108e-08 14.5 0.671573 14.5 1.5L14.5 4.161C14.5 4.66999 14.1967 5.13 13.7288 5.3305C12.7006 5.77116 12.7006 7.22884 13.7288 7.6695C14.1967 7.87 14.5 8.33001 14.5 8.839L14.5 10.5C14.5 11.6046 13.6046 12.5 12.5 12.5Z" fill="white"/>
<path d="M5.35938 8.42034L9.95256 3.82715" stroke="#03A753" stroke-width="1.1483" stroke-linecap="round"/>
<path d="M10.3353 8.03752C10.3353 8.24056 10.2546 8.43527 10.1111 8.57884C9.9675 8.7224 9.77278 8.80306 9.56975 8.80306C9.36672 8.80306 9.172 8.7224 9.02844 8.57884C8.88487 8.43527 8.80422 8.24056 8.80422 8.03752C8.80422 7.83449 8.88487 7.63978 9.02844 7.49621C9.172 7.35265 9.36672 7.27199 9.56975 7.27199C9.77278 7.27199 9.9675 7.35265 10.1111 7.49621C10.2546 7.63978 10.3353 7.83449 10.3353 8.03752ZM6.50763 4.20987C6.50763 4.4129 6.42697 4.60761 6.28341 4.75118C6.13984 4.89474 5.94513 4.9754 5.74209 4.9754C5.53906 4.9754 5.34435 4.89474 5.20078 4.75118C5.05722 4.60761 4.97656 4.4129 4.97656 4.20987C4.97656 4.00684 5.05722 3.81212 5.20078 3.66856C5.34435 3.52499 5.53906 3.44434 5.74209 3.44434C5.94513 3.44434 6.13984 3.52499 6.28341 3.66856C6.42697 3.81212 6.50763 4.00684 6.50763 4.20987Z" fill="#03A753"/>
</svg>
