<svg width="20" height="20" viewBox="0 0 20 20" fill="none" xmlns="http://www.w3.org/2000/svg">
<circle cx="10" cy="10" r="9.5" stroke="#03A753"/>
<path d="M8.69107 12.3979C8.681 12.3518 8.67596 12.3057 8.67596 12.2596C8.67596 12.2042 8.67596 12.1535 8.67596 12.1074C8.67596 11.7663 8.74146 11.4712 8.87246 11.2222C9.00346 10.9733 9.17477 10.7474 9.38639 10.5445C9.598 10.3324 9.8197 10.1342 10.0515 9.94975C10.2933 9.75611 10.5251 9.55325 10.7468 9.34117C10.8778 9.21208 10.9937 9.07377 11.0944 8.92624C11.1952 8.76948 11.2708 8.60812 11.3212 8.44214C11.3816 8.27617 11.4119 8.11941 11.4119 7.97188C11.4119 7.65837 11.3363 7.39558 11.1851 7.1835C11.034 6.97142 10.8274 6.81466 10.5654 6.71323C10.3034 6.60258 9.99605 6.54726 9.64335 6.54726C9.37127 6.54726 9.09415 6.58414 8.812 6.65791C8.53992 6.72246 8.30311 6.83772 8.10157 7.00369C7.90003 7.16045 7.76399 7.37714 7.69345 7.65376H6.36328C6.41367 7.28493 6.53459 6.9622 6.72605 6.68557C6.92759 6.40895 7.17952 6.18304 7.48183 6.00784C7.78414 5.82342 8.11668 5.68511 8.47945 5.5929C8.8523 5.50069 9.23523 5.45459 9.62823 5.45459C10.1623 5.45459 10.6662 5.54219 11.1398 5.71738C11.6134 5.88336 11.9963 6.14615 12.2886 6.50577C12.5808 6.86538 12.7269 7.33564 12.7269 7.91655C12.7269 8.2024 12.6866 8.4698 12.606 8.71877C12.5254 8.95851 12.4045 9.18903 12.2432 9.41033C12.0921 9.62241 11.9107 9.82988 11.6991 10.0327C11.4371 10.2909 11.1751 10.5261 10.9131 10.7381C10.6511 10.941 10.4344 11.1623 10.2631 11.402C10.0918 11.6326 10.0061 11.9276 10.0061 12.2872C10.0061 12.3057 10.0061 12.3241 10.0061 12.3426C10.0061 12.361 10.0061 12.3794 10.0061 12.3979H8.69107ZM9.32592 15.4546C9.06392 15.4546 8.84727 15.3762 8.67596 15.2195C8.51472 15.0627 8.43411 14.8645 8.43411 14.6247C8.43411 14.385 8.51472 14.1867 8.67596 14.03C8.84727 13.8732 9.06392 13.7948 9.32592 13.7948C9.58793 13.7948 9.80458 13.8732 9.97589 14.03C10.1472 14.1867 10.2329 14.385 10.2329 14.6247C10.2329 14.8645 10.1472 15.0627 9.97589 15.2195C9.80458 15.3762 9.58793 15.4546 9.32592 15.4546Z" fill="#03A753"/>
</svg>
