<svg viewBox="0 0 13 13" fill="none" xmlns="http://www.w3.org/2000/svg" id="ruble">
<path d="M6.5 12C9.53757 12 12 9.53757 12 6.5C12 3.46243 9.53757 1 6.5 1C3.46243 1 1 3.46243 1 6.5C1 9.53757 3.46243 12 6.5 12Z"/>
<path d="M4.85107 7.59961H6.50107" stroke-linecap="round"/>
<path d="M5.40107 6.5V4.41C5.40107 4.30781 5.40107 4.25672 5.40784 4.21396C5.44513 3.97862 5.62971 3.79404 5.86505 3.75677C5.90779 3.75 5.95888 3.75 6.06107 3.75H7.32607C8.08546 3.75 8.70107 4.36561 8.70107 5.125C8.70107 5.88439 8.08546 6.5 7.32607 6.5H5.40107ZM5.40107 6.5V9.25M5.40107 6.5H4.85107" stroke-linecap="round"/>
</svg>
