<svg width="33" height="30" viewBox="0 0 33 30" fill="none" xmlns="http://www.w3.org/2000/svg">
<path d="M12.0086 19.1176C12.0086 19.1176 14.1952 21.5882 17.8394 21.5882C21.4837 21.5882 23.6703 19.1176 23.6703 19.1176M22.4208 10.8824H22.4375M13.2581 10.8824H13.2747M17.8394 29C25.6601 29 32 22.732 32 15C32 7.26801 25.6601 1 17.8394 1C10.0188 1 3.67888 7.26801 3.67888 15C3.67888 16.5647 3.93852 18.0694 4.41752 19.4744C4.59777 20.0031 4.6879 20.2675 4.70415 20.4706C4.72021 20.6712 4.70807 20.8118 4.65788 21.0067C4.60706 21.2042 4.49486 21.4095 4.27045 21.8202L1.54553 26.8067C1.15685 27.518 0.962504 27.8736 1.006 28.1481C1.04388 28.3872 1.1862 28.5977 1.39516 28.7237C1.63506 28.8684 2.04175 28.8268 2.85514 28.7437L11.3865 27.8718C11.6449 27.8454 11.774 27.8322 11.8918 27.8366C12.0076 27.841 12.0893 27.8518 12.2023 27.8775C12.3171 27.9037 12.4615 27.9587 12.7502 28.0686C14.3296 28.6702 16.0456 29 17.8394 29ZM23.2538 10.8824C23.2538 11.3372 22.8808 11.7059 22.4208 11.7059C21.9608 11.7059 21.5878 11.3372 21.5878 10.8824C21.5878 10.4275 21.9608 10.0588 22.4208 10.0588C22.8808 10.0588 23.2538 10.4275 23.2538 10.8824ZM14.0911 10.8824C14.0911 11.3372 13.7181 11.7059 13.2581 11.7059C12.798 11.7059 12.4251 11.3372 12.4251 10.8824C12.4251 10.4275 12.798 10.0588 13.2581 10.0588C13.7181 10.0588 14.0911 10.4275 14.0911 10.8824Z" stroke="#03A753" stroke-width="2" stroke-linecap="round" stroke-linejoin="round"/>
</svg>
