<svg viewBox="0 0 12 12" xmlns="http://www.w3.org/2000/svg" id="star">
<path d="M11.9381 4.35458C11.8877 4.19634 11.7908 4.05696 11.6599 3.95463C11.5291 3.8523 11.3705 3.79177 11.2048 3.78095L8.20769 3.57121L7.09591 0.771631C7.03574 0.616857 6.93022 0.483868 6.79318 0.390091C6.65614 0.296313 6.49396 0.246122 6.3279 0.246094H6.32712C6.16132 0.246389 5.99946 0.296709 5.86272 0.390472C5.72598 0.484235 5.62072 0.617078 5.56069 0.771631L4.43235 3.58737L1.45181 3.78095C1.28608 3.79177 1.12746 3.8523 0.99665 3.95463C0.865838 4.05696 0.768906 4.19634 0.718501 4.35458C0.665326 4.51508 0.661709 4.68786 0.70812 4.85044C0.75453 5.01302 0.848819 5.15786 0.978706 5.26609L3.27167 7.20423L2.58962 9.88711C2.5426 10.0678 2.55125 10.2585 2.61442 10.4342C2.67759 10.61 2.79234 10.7625 2.94365 10.8719C3.08974 10.9782 3.26444 11.0381 3.44501 11.0437C3.62558 11.0493 3.80367 11.0005 3.95609 10.9035L6.3216 9.40494C6.32475 9.40257 6.3279 9.401 6.335 9.40494L8.88029 11.0174C9.01847 11.1057 9.18008 11.1502 9.34397 11.1452C9.50787 11.1401 9.66642 11.0857 9.79889 10.989C9.936 10.8899 10.04 10.7517 10.0972 10.5925C10.1545 10.4334 10.1624 10.2606 10.1198 10.0969L9.39518 7.16599L11.6779 5.26609C11.8078 5.15786 11.9021 5.01302 11.9485 4.85044C11.9949 4.68786 11.9913 4.51508 11.9381 4.35458Z"/>
</svg>
