<svg width="20" height="19" viewBox="0 0 20 19" fill="none" xmlns="http://www.w3.org/2000/svg">
<path d="M19.7431 17.8738C18.3436 15.4634 16.1025 13.6556 13.4506 12.7979C14.721 12.042 15.7082 10.8899 16.2604 9.51859C16.8126 8.1473 16.8994 6.63263 16.5074 5.20724C16.1154 3.78184 15.2664 2.52454 14.0906 1.62846C12.9148 0.732382 11.4774 0.24707 9.99905 0.24707C8.52074 0.24707 7.0833 0.732382 5.90753 1.62846C4.73175 2.52454 3.88266 3.78184 3.49067 5.20724C3.09868 6.63263 3.18546 8.1473 3.7377 9.51859C4.28993 10.8899 5.27708 12.042 6.54751 12.7979C3.8957 13.6556 1.65459 15.4633 0.255135 17.8736C0.18917 17.9876 0.154391 18.1169 0.154297 18.2486C0.154203 18.3804 0.188797 18.5098 0.254599 18.6239C0.3204 18.738 0.415089 18.8327 0.529139 18.8986C0.64319 18.9645 0.772579 18.9992 0.90429 18.9992L19.0939 18.9994C19.2257 18.9994 19.3551 18.9647 19.4691 18.8988C19.5832 18.8329 19.6779 18.7382 19.7437 18.6241C19.8095 18.51 19.8441 18.3806 19.844 18.2488C19.8439 18.1171 19.8091 17.9878 19.7431 17.8738L19.7431 17.8738Z" fill="#03A753"/>
</svg>
