<svg width="17" height="16" viewBox="0 0 17 16" xmlns="http://www.w3.org/2000/svg" id="heart">
<path d="M12.2778 7.35875e-06C11.5448 -0.00132567 10.8216 0.178466 10.1658 0.525082C9.50997 0.871698 8.93958 1.37557 8.5 1.99663C7.90466 1.15792 7.07529 0.538667 6.12926 0.22651C5.18323 -0.0856481 4.16845 -0.0749077 3.2285 0.257211C2.28856 0.58933 1.47105 1.22601 0.891658 2.07716C0.312267 2.9283 0.000334879 3.95081 0 5C0 10.9886 7.85784 15.7167 8.19233 15.915C8.28633 15.9707 8.39227 16 8.5 16C8.60773 16 8.71367 15.9707 8.80767 15.915C10.2529 15.0188 11.6093 13.9709 12.8564 12.7872C15.6059 10.1671 17 7.54708 17 5C16.9986 3.67438 16.5006 2.40349 15.6153 1.46613C14.73 0.528776 13.5298 0.00150982 12.2778 7.35875e-06Z"/>
</svg>
