<svg width="18" height="18" viewBox="0 0 18 18" xmlns="http://www.w3.org/2000/svg" id="logout">
<path d="M16.019 0.510625C16.0014 0.509197 15.9865 0.5 15.9681 0.5H8.35352C7.18194 0.5 6.22852 1.45343 6.22852 2.625V3.33329C6.22852 3.72432 6.54577 4.04171 6.9368 4.04171C7.32784 4.04171 7.64509 3.72432 7.64509 3.33329V2.625C7.64509 2.23473 7.96311 1.91671 8.35352 1.91671H11.6536L11.4375 1.98896C10.8638 2.18725 10.4785 2.72773 10.4785 3.33329V13.9583H8.35352C7.96311 13.9583 7.64509 13.6403 7.64509 13.25V11.8333C7.64509 11.4424 7.32784 11.125 6.9368 11.125C6.54577 11.125 6.22852 11.4424 6.22852 11.8333V13.25C6.22852 14.4216 7.18194 15.375 8.35352 15.375H10.4785V16.0833C10.4785 16.8646 11.1138 17.5 11.8951 17.5C12.0467 17.5 12.1905 17.4781 12.3463 17.4298L16.602 16.0111C17.1764 15.8128 17.5618 15.2723 17.5618 14.6667V1.91671C17.5618 1.09078 16.8499 0.443322 16.019 0.510625Z"/>
<path d="M8.14656 7.08245L5.31327 4.24916C5.21422 4.15002 5.08799 4.08249 4.95054 4.05513C4.8131 4.02777 4.67063 4.04181 4.54116 4.09547C4.41186 4.14924 4.30137 4.24009 4.22361 4.35655C4.14586 4.47302 4.10431 4.6099 4.10421 4.74993V6.87493H1.27079C0.879889 6.87493 0.5625 7.19232 0.5625 7.58322C0.5625 7.97426 0.879889 8.29164 1.27079 8.29164H4.10421V10.4166C4.10433 10.5567 4.14589 10.6935 4.22364 10.81C4.3014 10.9264 4.41188 11.0173 4.54116 11.0711C4.67063 11.1247 4.81309 11.1387 4.95053 11.1114C5.08797 11.084 5.2142 11.0165 5.31327 10.9174L8.14656 8.08399C8.42361 7.80708 8.42361 7.3595 8.14656 7.08245Z"/>
</svg>
