<svg width="15" height="19" viewBox="0 0 15 19" xmlns="http://www.w3.org/2000/svg" id="map">
<path d="M7.5 0C5.5116 0.00234805 3.60532 0.789515 2.1993 2.18883C0.793293 3.58815 0.00235928 5.48535 0 7.46429C0 13.8511 6.81818 18.6753 7.10849 18.8774C7.2233 18.9572 7.35996 19 7.5 19C7.64004 19 7.7767 18.9572 7.89151 18.8774C8.18182 18.6753 15 13.8511 15 7.46429C14.9976 5.48535 14.2067 3.58815 12.8007 2.18883C11.3947 0.789515 9.4884 0.00234782 7.5 0ZM7.5005 4.75025C8.0399 4.75025 8.56719 4.90944 9.01569 5.20769C9.46419 5.50594 9.81375 5.92985 10.0202 6.42582C10.2266 6.92179 10.2806 7.46754 10.1754 7.99406C10.0701 8.52058 9.81039 9.00422 9.42897 9.38382C9.04756 9.76342 8.5616 10.0219 8.03256 10.1267C7.50352 10.2314 6.95516 10.1776 6.45682 9.9722C5.95847 9.76677 5.53253 9.41887 5.23286 8.97251C4.93318 8.52614 4.77323 8.00137 4.77323 7.46453C4.77322 7.10808 4.84375 6.75512 4.98081 6.42581C5.11786 6.09649 5.31875 5.79727 5.572 5.54522C5.82526 5.29317 6.12591 5.09324 6.45681 4.95684C6.7877 4.82044 7.14235 4.75024 7.5005 4.75025Z"/>
</svg>
