<svg viewBox="0 0 17 17" xmlns="http://www.w3.org/2000/svg" id ="settings">
<path fill-rule="evenodd" clip-rule="evenodd" d="M10.0915 0.129404C9.76023 3.7998e-08 9.34015 0 8.49999 0C7.65983 0 7.23975 3.7998e-08 6.90843 0.129404C6.46661 0.301946 6.1156 0.632893 5.9326 1.04944C5.84906 1.23959 5.81636 1.46073 5.80357 1.78329C5.78477 2.25733 5.52693 2.69611 5.0912 2.93329C4.65547 3.17047 4.12351 3.16161 3.6787 2.93995C3.376 2.7891 3.15653 2.70523 2.94009 2.67837C2.46597 2.61951 1.98647 2.74065 1.60709 3.01512C1.32254 3.22097 1.1125 3.56397 0.692434 4.24994C0.272365 4.93592 0.0623342 5.27891 0.0155216 5.61417C-0.0469041 6.06118 0.0815799 6.51326 0.3727 6.87098C0.505577 7.03426 0.692318 7.17145 0.98215 7.34315C1.40823 7.5956 1.68239 8.02562 1.68236 8.5C1.68233 8.97439 1.40819 9.40431 0.98215 9.65668C0.692273 9.82847 0.505497 9.96574 0.372611 10.129C0.0814906 10.4867 -0.0469845 10.9387 0.0154322 11.3858C0.0622448 11.721 0.272284 12.0641 0.692345 12.75C1.11241 13.436 1.32245 13.779 1.607 13.9848C1.98638 14.2593 2.46588 14.3804 2.94 14.3216C3.15643 14.2947 3.37588 14.2108 3.67855 14.06C4.12341 13.8383 4.6554 13.8295 5.09115 14.0667C5.52691 14.3039 5.78476 14.7427 5.80357 15.2168C5.81636 15.5393 5.84906 15.7604 5.9326 15.9506C6.1156 16.3671 6.46661 16.6981 6.90843 16.8706C7.23975 17 7.65983 17 8.49999 17C9.34015 17 9.76023 17 10.0915 16.8706C10.5334 16.6981 10.8844 16.3671 11.0673 15.9506C11.1509 15.7604 11.1837 15.5393 11.1965 15.2167C11.2152 14.7427 11.473 14.3039 11.9088 14.0667C12.3445 13.8294 12.8765 13.8383 13.3214 14.06C13.6241 14.2108 13.8434 14.2946 14.0599 14.3215C14.534 14.3804 15.0135 14.2593 15.3929 13.9848C15.6775 13.7789 15.8875 13.436 16.3075 12.7499C16.7276 12.064 16.9376 11.721 16.9845 11.3858C17.0469 10.9387 16.9184 10.4866 16.6273 10.1289C16.4944 9.96566 16.3076 9.82838 16.0177 9.65668C15.5918 9.40431 15.3176 8.9743 15.3176 8.49992C15.3176 8.02553 15.5918 7.59569 16.0177 7.34332C16.3077 7.17154 16.4945 7.03435 16.6274 6.87098C16.9185 6.51332 17.047 6.06124 16.9846 5.61422C16.9377 5.27897 16.7277 4.93598 16.3076 4.25C15.8876 3.56402 15.6776 3.22103 15.3929 3.01518C15.0136 2.74071 14.5341 2.61957 14.06 2.67843C13.8435 2.70529 13.6241 2.78916 13.3215 2.93998C12.8766 3.16165 12.3446 3.17052 11.9088 2.93332C11.4731 2.69612 11.2152 2.25731 11.1964 1.78325C11.1836 1.46071 11.1509 1.23958 11.0673 1.04944C10.8844 0.632893 10.5334 0.301946 10.0915 0.129404ZM8.49999 11.05C9.99375 11.05 11.2046 9.90837 11.2046 8.5C11.2046 7.09164 9.99375 5.95 8.49999 5.95C7.00623 5.95 5.79535 7.09164 5.79535 8.5C5.79535 9.90837 7.00623 11.05 8.49999 11.05Z"/>
</svg>
