<svg width="17" height="16" viewBox="0 0 17 16" xmlns="http://www.w3.org/2000/svg" id="user">
<path d="M16.9129 15.0396C15.7046 12.983 13.7696 11.4405 11.48 10.7087C12.5769 10.0638 13.4292 9.08076 13.906 7.91073C14.3828 6.74071 14.4577 5.44835 14.1193 4.23216C13.7808 3.01597 13.0477 1.94321 12.0325 1.17864C11.0174 0.414082 9.77631 0 8.49994 0C7.22356 0 5.98249 0.414082 4.96732 1.17864C3.95216 1.94321 3.21906 3.01597 2.88061 4.23216C2.54217 5.44835 2.6171 6.74071 3.0939 7.91073C3.5707 9.08076 4.42299 10.0638 5.51988 10.7087C3.23032 11.4405 1.29535 12.983 0.0870633 15.0394C0.0301094 15.1367 8.14567e-05 15.2471 1.65492e-07 15.3595C-8.11257e-05 15.4719 0.0297872 15.5823 0.0866003 15.6796C0.143413 15.777 0.225167 15.8578 0.323638 15.914C0.422109 15.9702 0.533823 15.9998 0.647542 15.9998L16.3524 16C16.4662 16 16.5779 15.9704 16.6764 15.9142C16.7748 15.858 16.8566 15.7771 16.9134 15.6798C16.9702 15.5824 17.0001 15.472 17 15.3596C16.9999 15.2473 16.9699 15.1369 16.9129 15.0396L16.9129 15.0396Z"/>
</svg>
