<svg width="14" height="14" viewBox="0 0 14 14" fill="none" xmlns="http://www.w3.org/2000/svg">
<path d="M13.5315 1.12013V2.4268C13.5315 4.95258 11.3762 7.00013 8.71748 7.00013H8.02976V7.65346H11.4684V12.2268C11.4684 12.9487 10.8528 13.5335 10.0929 13.5335H4.59116C3.83123 13.5335 3.21572 12.9487 3.21572 12.2268V7.65346H6.65432V5.69346C6.65432 3.16768 8.80963 1.12013 11.4684 1.12013H13.5315ZM2.87186 0.466797C4.6111 0.466797 6.14884 1.28412 7.08345 2.53721C6.38198 3.41333 5.9666 4.50766 5.9666 5.69346V6.3468H5.62274C2.77421 6.3468 0.464844 4.1529 0.464844 1.4468V0.466797H2.87186Z" fill="white"/>
</svg>
