<svg width="21" height="11" viewBox="0 0 21 11" fill="none" xmlns="http://www.w3.org/2000/svg">
<path d="M12.6407 0.707431C12.6038 0.491484 12.4167 0.333496 12.1974 0.333496H2.08874C1.79742 0.333496 1.56153 0.569655 1.56153 0.860442C1.56153 1.15177 1.79742 1.38766 2.08874 1.38766H4.54883C4.84016 1.38766 5.07605 1.62386 5.07605 1.91491C5.07605 2.20597 4.84016 2.44212 4.54883 2.44212H1.25964C0.968581 2.44212 0.732422 2.67828 0.732422 2.96934C0.732422 3.26039 0.968581 3.49625 1.25964 3.49625H5.74295C6.00021 3.49625 6.20892 3.70527 6.20892 3.96252C6.20892 4.21977 6.00021 4.42848 5.74295 4.42848H3.36103C3.06971 4.42848 2.83382 4.66468 2.83382 4.95574C2.83382 5.24675 3.06971 5.48295 3.36103 5.48295H5.11651C5.37399 5.48295 5.58274 5.69166 5.58274 5.94891C5.58274 6.20613 5.37399 6.41488 5.11651 6.41488H2.69302C2.40169 6.41488 2.1658 6.65104 2.1658 6.94209C2.1658 7.23315 2.40169 7.46931 2.69302 7.46931H6.02405L6.23414 8.65765H7.44078C7.36981 8.83007 7.32934 9.0183 7.32934 9.21648C7.32934 10.0298 7.98848 10.6889 8.80181 10.6889C9.6148 10.6889 10.274 10.0298 10.274 9.21648C10.274 9.0183 10.2335 8.83007 10.1625 8.65765H13.9922L12.6407 0.707431ZM9.43545 9.21644C9.43545 9.56657 9.15189 9.85012 8.80177 9.85012C8.45142 9.85012 8.16783 9.56657 8.16783 9.21644C8.16783 8.97282 8.30667 8.7638 8.50823 8.65761H9.09505C9.29656 8.7638 9.43545 8.97278 9.43545 9.21644Z" fill="white"/>
<path d="M20.3166 7.73433L19.7118 4.75062L17.5034 1.35278H13.4824L14.7279 8.65765H16.1987C16.128 8.83007 16.0875 9.0183 16.0875 9.21648C16.0875 10.0298 16.7467 10.6889 17.5596 10.6889C18.373 10.6889 19.0321 10.0298 19.0321 9.21648C19.0321 9.0183 18.9916 8.83007 18.9207 8.65765H19.5616C19.7928 8.65765 20.0117 8.55398 20.1581 8.3749C20.3042 8.19616 20.3626 7.96081 20.3166 7.73433ZM15.7585 2.71216H16.7658L18.0736 4.72375H16.1016L15.7585 2.71216ZM18.1936 9.21648C18.1936 9.56661 17.91 9.85016 17.5596 9.85016C17.2098 9.85016 16.926 9.56661 16.926 9.21648C16.926 8.97286 17.0652 8.76384 17.2664 8.65765H17.8532C18.0547 8.76384 18.1936 8.97282 18.1936 9.21648Z" fill="white"/>
</svg>
