<svg width="17" height="14" viewBox="0 0 17 14" fill="none" xmlns="http://www.w3.org/2000/svg">
<path d="M10.0523 0.466553H6.879C3.88715 0.466553 2.39123 0.466553 1.46178 1.396C0.792567 2.06521 0.605198 3.02808 0.552734 4.63155H16.3786C16.3262 3.02808 16.1388 2.06521 15.4695 1.396C14.5401 0.466553 13.0442 0.466553 10.0523 0.466553Z" fill="white"/>
<path d="M6.87792 13.1599H10.0512C13.0431 13.1599 14.5391 13.1599 15.4684 12.2304C16.3979 11.301 16.3979 9.80502 16.3979 6.8132C16.3979 6.46263 16.3979 6.13252 16.3964 5.82153H0.532749C0.53125 6.13252 0.53125 6.46263 0.53125 6.8132C0.53125 9.80502 0.53125 11.301 1.4607 12.2304C2.39015 13.1599 3.88607 13.1599 6.87792 13.1599Z" fill="white"/>
<path fill-rule="evenodd" clip-rule="evenodd" d="M3.10938 9.9866C3.10938 9.658 3.37577 9.3916 3.70438 9.3916H6.87771C7.20631 9.3916 7.47271 9.658 7.47271 9.9866C7.47271 10.3152 7.20631 10.5816 6.87771 10.5816H3.70438C3.37577 10.5816 3.10938 10.3152 3.10938 9.9866Z" fill="#03A753"/>
<path fill-rule="evenodd" clip-rule="evenodd" d="M8.26758 9.9866C8.26758 9.658 8.53398 9.3916 8.86258 9.3916H10.0526C10.3812 9.3916 10.6476 9.658 10.6476 9.9866C10.6476 10.3152 10.3812 10.5816 10.0526 10.5816H8.86258C8.53398 10.5816 8.26758 10.3152 8.26758 9.9866Z" fill="#03A753"/>
</svg>
