<svg width="16" height="16" viewBox="0 0 16 16" fill="none" xmlns="http://www.w3.org/2000/svg">
<path d="M8.00182 0.533203C3.8847 0.533203 0.535156 3.88275 0.535156 7.99987V11.0933C0.535156 11.8579 1.20492 12.4799 2.02849 12.4799H2.77516C2.97318 12.4799 3.1631 12.4012 3.30313 12.2612C3.44316 12.1211 3.52182 11.9312 3.52182 11.7332V7.8931C3.52182 7.69507 3.44316 7.50515 3.30313 7.36512C3.1631 7.2251 2.97318 7.14643 2.77516 7.14643H2.09718C2.51233 4.25683 4.99873 2.02654 8.00182 2.02654C11.0049 2.02654 13.4913 4.25683 13.9065 7.14643H13.2285C13.0305 7.14643 12.8405 7.2251 12.7005 7.36512C12.5605 7.50515 12.4818 7.69507 12.4818 7.8931V12.4799C12.4818 13.3034 11.8121 13.9732 10.9885 13.9732H9.49516V13.2265H6.50849V15.4665H10.9885C12.6356 15.4665 13.9752 14.127 13.9752 12.4799C14.7987 12.4799 15.4685 11.8579 15.4685 11.0933V7.99987C15.4685 3.88275 12.1189 0.533203 8.00182 0.533203Z" fill="white"/>
</svg>
