<svg width="31" height="32" viewBox="0 0 31 32" fill="none" xmlns="http://www.w3.org/2000/svg">
<path d="M15.5 31.5002C24.0604 31.5002 31 24.5607 31 16.0002C31 7.43983 24.0604 0.500244 15.5 0.500244C6.93959 0.500244 0 7.43983 0 16.0002C0 24.5607 6.93959 31.5002 15.5 31.5002Z" fill="#4D76A1"/>
<path fill-rule="evenodd" clip-rule="evenodd" d="M14.9148 22.7984H16.1314C16.1314 22.7984 16.4989 22.758 16.6865 22.5558C16.8592 22.3701 16.8536 22.0214 16.8536 22.0214C16.8536 22.0214 16.8299 20.389 17.5875 20.1486C18.3343 19.9118 19.2934 21.7263 20.3099 22.424C21.0786 22.952 21.6627 22.8362 21.6627 22.8362L24.3807 22.7984C24.3807 22.7984 25.8025 22.7108 25.1283 21.5929C25.0731 21.5014 24.7357 20.7659 23.1075 19.2545C21.4032 17.6727 21.6314 17.9286 23.6844 15.1923C24.9346 13.526 25.4345 12.5086 25.2784 12.0729C25.1294 11.6579 24.2099 11.7676 24.2099 11.7676L21.1496 11.7866C21.1496 11.7866 20.9227 11.7557 20.7545 11.8563C20.5901 11.9549 20.4842 12.1848 20.4842 12.1848C20.4842 12.1848 19.9999 13.4743 19.3539 14.5709C17.9912 16.885 17.4463 17.0071 17.2236 16.8634C16.7055 16.5285 16.8348 15.5181 16.8348 14.8003C16.8348 12.5578 17.175 11.6228 16.1725 11.3807C15.8399 11.3003 15.5951 11.2473 14.7443 11.2387C13.6524 11.2274 12.7282 11.242 12.2048 11.4984C11.8567 11.6689 11.5881 12.0488 11.7517 12.0707C11.954 12.0977 12.4121 12.1942 12.6549 12.5249C12.9685 12.9515 12.9575 13.9097 12.9575 13.9097C12.9575 13.9097 13.1376 16.5495 12.5367 16.8775C12.1242 17.1024 11.5583 16.6432 10.3434 14.5438C9.72089 13.4685 9.2509 12.2798 9.2509 12.2798C9.2509 12.2798 9.16027 12.0577 8.99863 11.9389C8.80246 11.7949 8.52837 11.7491 8.52837 11.7491L5.62029 11.7681C5.62029 11.7681 5.18373 11.7803 5.02347 11.9701C4.8809 12.1389 5.01214 12.4882 5.01214 12.4882C5.01214 12.4882 7.28887 17.8147 9.86677 20.499C12.2305 22.96 14.9148 22.7984 14.9148 22.7984Z" fill="white"/>
</svg>
