<svg width="32" height="32" viewBox="0 0 32 32" fill="none" xmlns="http://www.w3.org/2000/svg">
<path d="M16 32C24.8366 32 32 24.8366 32 16C32 7.16344 24.8366 0 16 0C7.16344 0 0 7.16344 0 16C0 24.8366 7.16344 32 16 32Z" fill="#25D366"/>
<path fill-rule="evenodd" clip-rule="evenodd" d="M16.5398 24.8367H16.5359C14.9526 24.8362 13.3968 24.4408 12.015 23.6908L7 25L8.34211 20.1213C7.51423 18.6934 7.07861 17.0738 7.07932 15.4144C7.08139 10.2233 11.3253 6 16.5397 6C19.0704 6.00109 21.4457 6.98158 23.2318 8.76121C25.0179 10.5407 26.001 12.9062 26 15.4218C25.9979 20.6117 21.7557 24.8346 16.5398 24.8367ZM12.633 22.712L12.9251 22.8853C14.1534 23.6139 15.5614 23.9994 16.9969 24H17.0001C21.4095 24 24.9982 20.4125 25 16.0029C25.0008 13.866 24.1695 11.8568 22.6591 10.3452C21.1487 8.83362 19.1401 8.00074 17.0033 8C12.5906 8 9.00175 11.5872 9 15.9964C8.99938 17.5075 9.42233 18.9791 10.2231 20.2523L10.4134 20.5549L9.60518 23.506L12.633 22.712ZM21.6272 17.4711C21.7988 17.5515 21.9147 17.6058 21.9642 17.6859C22.0257 17.7853 22.0257 18.2629 21.8207 18.8201C21.6156 19.3773 20.6327 19.8858 20.16 19.9542C19.7361 20.0157 19.1997 20.0413 18.6103 19.8597C18.2529 19.7498 17.7947 19.603 17.2077 19.3573C14.9011 18.3917 13.3424 16.2245 13.0478 15.8149C13.0271 15.7862 13.0127 15.7661 13.0046 15.7557L13.0027 15.7531C12.8724 15.5847 12 14.4562 12 13.2883C12 12.1896 12.5567 11.6137 12.813 11.3487C12.8305 11.3305 12.8467 11.3138 12.8611 11.2985C13.0866 11.0597 13.3532 11 13.5172 11C13.6812 11 13.8454 11.0015 13.9888 11.0084C14.0065 11.0093 14.0249 11.0092 14.0439 11.0091C14.1873 11.0083 14.366 11.0073 14.5423 11.4179C14.6102 11.5759 14.7094 11.8102 14.8141 12.0573C15.0259 12.557 15.2598 13.109 15.3009 13.1889C15.3624 13.3083 15.4034 13.4476 15.3214 13.6068C15.3091 13.6307 15.2977 13.6532 15.2869 13.6748C15.2253 13.7967 15.18 13.8864 15.0754 14.0047C15.0343 14.0512 14.9918 14.1014 14.9493 14.1516C14.8647 14.2515 14.78 14.3514 14.7063 14.4226C14.5832 14.5415 14.4549 14.6706 14.5985 14.9094C14.742 15.1482 15.2358 15.9292 15.9672 16.5617C16.7534 17.2416 17.4368 17.5289 17.7832 17.6746C17.8508 17.703 17.9056 17.7261 17.9458 17.7456C18.1917 17.865 18.3353 17.845 18.4788 17.6859C18.6223 17.5267 19.0939 16.9894 19.2579 16.7506C19.4218 16.5119 19.5859 16.5517 19.8114 16.6312C20.037 16.7109 21.2466 17.2879 21.4927 17.4072C21.5407 17.4306 21.5856 17.4516 21.6272 17.4711Z" fill="#FDFDFD"/>
</svg>
