<svg width="31" height="32" viewBox="0 0 31 32" fill="none" xmlns="http://www.w3.org/2000/svg">
<path d="M15.4998 31.4903C24.0547 31.4903 30.9899 24.5552 30.9899 16.0002C30.9899 7.44533 24.0547 0.510193 15.4998 0.510193C6.9449 0.510193 0.00976562 7.44533 0.00976562 16.0002C0.00976562 24.5552 6.9449 31.4903 15.4998 31.4903Z" fill="#FF0000"/>
<path d="M21.4066 9.00024H9.59338C9.12129 9.00024 8.65382 9.09614 8.2177 9.28246C7.78158 9.46878 7.38534 9.74187 7.05164 10.0861C6.71793 10.4304 6.45329 10.839 6.27285 11.2888C6.0924 11.7385 5.99969 12.2205 6 12.7071V19.2934C5.99969 19.78 6.0924 20.262 6.27285 20.7117C6.45329 21.1615 6.71793 21.5701 7.05164 21.9144C7.38534 22.2586 7.78158 22.5317 8.2177 22.718C8.65382 22.9043 9.12129 23.0002 9.59338 23.0002H21.4066C21.8787 23.0002 22.3462 22.9043 22.7823 22.718C23.2184 22.5317 23.6147 22.2586 23.9484 21.9144C24.2821 21.5701 24.5467 21.1615 24.7271 20.7117C24.9076 20.262 25.0003 19.78 25 19.2934V12.7071C25.0003 12.2205 24.9076 11.7385 24.7271 11.2888C24.5467 10.839 24.2821 10.4304 23.9484 10.0861C23.6147 9.74187 23.2184 9.46878 22.7823 9.28246C22.3462 9.09614 21.8787 9.00024 21.4066 9.00024ZM12.9968 19.002V12.9985L18.0033 16.0002L12.9968 19.002Z" fill="white"/>
</svg>
