<svg width="24" height="18" viewBox="0 0 24 18" fill="none" xmlns="http://www.w3.org/2000/svg">
<path d="M14.3209 0H9.54743C5.04699 0 2.79678 -1.3411e-07 1.39866 1.31802C0.392015 2.267 0.110167 3.63242 0.03125 5.90625H23.8371C23.7582 3.63242 23.4763 2.267 22.4696 1.31802C21.0716 -1.3411e-07 18.8213 0 14.3209 0Z" fill="#03A753"/>
<path d="M9.54687 18H14.3203C18.8207 18 21.071 18 22.469 16.6819C23.8672 15.364 23.8672 13.2426 23.8672 9C23.8672 8.50286 23.8672 8.03475 23.8649 7.59375H0.00225538C-6.66841e-08 8.03475 0 8.50286 0 9C0 13.2426 1.42259e-07 15.364 1.3981 16.6819C2.79622 18 5.04643 18 9.54687 18Z" fill="#03A753"/>
<path fill-rule="evenodd" clip-rule="evenodd" d="M3.87891 13.5C3.87891 13.034 4.27962 12.6562 4.77393 12.6562H9.54736C10.0417 12.6562 10.4424 13.034 10.4424 13.5C10.4424 13.966 10.0417 14.3437 9.54736 14.3437H4.77393C4.27962 14.3437 3.87891 13.966 3.87891 13.5Z" fill="white"/>
<path fill-rule="evenodd" clip-rule="evenodd" d="M11.6367 13.5C11.6367 13.034 12.0374 12.6562 12.5317 12.6562H14.3218C14.8161 12.6562 15.2168 13.034 15.2168 13.5C15.2168 13.966 14.8161 14.3437 14.3218 14.3437H12.5317C12.0374 14.3437 11.6367 13.966 11.6367 13.5Z" fill="white"/>
</svg>
