<svg width="17" height="21" viewBox="0 0 17 21" fill="none" xmlns="http://www.w3.org/2000/svg">
<path d="M0 4.56445L2.53936 9.1034V11.872L0.00297063 16.4021L0 4.56445Z" fill="#5B57A2"/>
<path d="M9.75 7.45122L12.1295 5.99281L16.9992 5.98828L9.75 10.4292V7.45122Z" fill="#D90751"/>
<path d="M9.73889 4.53756L9.75231 10.5469L7.20703 8.98303V0L9.73889 4.53756Z" fill="#FAB718"/>
<path d="M17.0015 5.98863L12.1316 5.99316L9.73889 4.53756L7.20703 0L17.0015 5.98863Z" fill="#ED6F26"/>
<path d="M9.75231 16.4274V13.5118L7.20703 11.9775L7.20842 20.9695L9.75231 16.4274Z" fill="#63B22F"/>
<path d="M12.1237 14.9821L2.53919 9.1034L0 4.56445L16.989 14.9761L12.1237 14.9821Z" fill="#1487C9"/>
<path d="M7.20703 20.9692L9.75059 16.4271L12.1241 14.982L16.9895 14.9761L7.20703 20.9692Z" fill="#017F36"/>
<path d="M0.00390625 16.4017L7.22656 11.9772L4.79833 10.4873L2.5403 11.8716L0.00390625 16.4017Z" fill="#984995"/>
</svg>
