<svg width="13" height="21" viewBox="0 0 13 21" fill="none" xmlns="http://www.w3.org/2000/svg">
<path d="M6.50155 0C7.87963 0 8.31266 1.02502 8.67596 2.04843C8.82857 2.48302 12.4097 12.6529 12.5174 12.9581C12.5461 13.0433 12.5267 13.183 12.4004 13.2336C12.2734 13.2835 10.4127 14.0337 10.3097 14.0739C10.2066 14.1149 10.0912 14.0554 10.054 13.9486C10.0153 13.8434 9.243 11.6262 9.15624 11.3788H3.84841C3.76475 11.6262 2.98314 13.8482 2.94828 13.9486C2.91264 14.0506 2.80187 14.1197 2.69187 14.0739C2.58187 14.0289 0.714217 13.2786 0.602669 13.2336C0.495769 13.1903 0.446967 13.0642 0.484149 12.9581C0.615838 12.5773 4.14277 2.57058 4.32249 2.04843C4.67263 1.04028 5.12037 0 6.50155 0ZM0.200631 18.1973C0.0890834 18.1973 0 18.2937 0 18.4109V20.7879C0 20.9052 0.0890834 21 0.200631 21H12.797C12.9109 21 13 20.9052 13 20.7879V18.4109C13 18.2937 12.9109 18.1973 12.797 18.1973H0.200631ZM6.48916 3.32087L4.69509 8.90785H8.31266L6.51239 3.32087H6.48916Z" fill="#EE2A23"/>
</svg>
