<svg width="21" height="21" viewBox="0 0 21 21" fill="none" xmlns="http://www.w3.org/2000/svg">
<path d="M16.2083 0H3.91248C1.75168 0 0 1.75168 0 3.91248V16.2083C0 18.3691 1.75168 20.1208 3.91248 20.1208H16.2083C18.3691 20.1208 20.1208 18.3691 20.1208 16.2083V3.91248C20.1208 1.75168 18.3691 0 16.2083 0Z" fill="#1928DC"/>
<mask id="mask0_2867_138211" style="mask-type:luminance" maskUnits="userSpaceOnUse" x="1" y="4" width="18" height="12">
<path d="M18.4495 4.99512H1.73828V15.1796H18.4495V4.99512Z" fill="white"/>
</mask>
<g mask="url(#mask0_2867_138211)">
<path d="M4.55283 5.0708V9.63322H3.79242V5.72735H2.49868V9.63322H1.73828V5.0708H4.55283Z" fill="white"/>
<path d="M6.03444 9.45387C5.80664 9.24467 5.64098 8.97668 5.55568 8.67939C5.43082 8.26217 5.37142 7.82811 5.37966 7.39269C5.37159 6.94513 5.43093 6.49892 5.55568 6.06902C5.63944 5.76195 5.80489 5.48336 6.03444 5.26286C6.23515 5.09072 6.49084 4.99609 6.75524 4.99609C7.01965 4.99609 7.27534 5.09072 7.47603 5.26286C7.70682 5.48136 7.87201 5.75996 7.95305 6.06726C8.07797 6.49773 8.13731 6.94454 8.12907 7.39269C8.13725 7.82868 8.07787 8.26333 7.95305 8.68115C7.86993 8.97856 7.70532 9.24683 7.4778 9.45563C7.27314 9.62066 7.01815 9.71065 6.75524 9.71065C6.49234 9.71065 6.23735 9.62066 6.03269 9.45563L6.03444 9.45387ZM6.22103 8.29918C6.25077 8.49815 6.3241 8.68808 6.43577 8.85541C6.47093 8.90808 6.51821 8.95155 6.57364 8.98219C6.62908 9.01281 6.69106 9.0297 6.75436 9.03143C6.9427 9.03143 7.09055 8.89413 7.1997 8.61954C7.32598 8.2216 7.3808 7.80446 7.36163 7.38741C7.36647 7.07015 7.34172 6.75311 7.2877 6.44042C7.2593 6.23483 7.18664 6.03786 7.07472 5.86309C7.0433 5.80582 6.99708 5.75804 6.94088 5.72475C6.88467 5.69148 6.82055 5.67392 6.75524 5.67392C6.68992 5.67392 6.6258 5.69148 6.56961 5.72475C6.51341 5.75804 6.46717 5.80582 6.43577 5.86309C6.32518 6.03805 6.25207 6.23403 6.22103 6.43866C6.16636 6.75068 6.14102 7.06715 6.14533 7.3839C6.14053 7.69074 6.16587 7.99731 6.22103 8.29918Z" fill="white"/>
<path d="M10.5007 5.0708V6.82043H10.0976C9.95149 6.82844 9.80556 6.80191 9.67162 6.74299C9.56593 6.68688 9.48495 6.59335 9.44456 6.48072C9.39078 6.324 9.36633 6.15873 9.37239 5.99315V5.0708H8.61199V5.98962C8.58988 6.38596 8.70831 6.7774 8.94644 7.09503C9.07147 7.2339 9.22646 7.34253 9.39967 7.41267C9.57288 7.48281 9.75977 7.51263 9.94621 7.49987H10.5007V9.63322H11.2611V5.0708H10.5007Z" fill="white"/>
<path d="M14.6156 5.72735H13.7231V9.63322H12.9627V5.72735H12.0703V5.0708H14.6156V5.72735Z" fill="white"/>
<path d="M16.1624 5.07094H16.7714C17.0223 5.05737 17.2717 5.11864 17.4878 5.24696C17.6764 5.37298 17.8229 5.55261 17.9085 5.7627C18.0131 6.02332 18.079 6.29791 18.1038 6.57767L18.4559 9.62456H17.6955L17.4491 7.49648H16.1588V9.63335H15.3984V5.07094H16.1624ZM16.1624 6.84873H17.3769L17.3452 6.58645C17.3311 6.41793 17.2962 6.2518 17.2413 6.09184C17.2029 5.98422 17.1274 5.89377 17.0284 5.83661C16.9007 5.77542 16.7596 5.74755 16.6182 5.75566H16.1624V6.84873Z" fill="white"/>
<path d="M2.57614 10.5415C2.82966 10.5348 3.0799 10.6001 3.29781 10.7298C3.51147 10.8658 3.67804 11.0643 3.77482 11.2984C3.89847 11.5966 3.95844 11.9173 3.95084 12.2401C3.95866 12.5453 3.90417 12.849 3.79066 13.1325C3.70659 13.3502 3.57064 13.5442 3.39462 13.6975C3.2756 13.8096 3.12126 13.8768 2.95809 13.8876C2.87359 13.8935 2.78879 13.8808 2.70972 13.8504C2.63064 13.82 2.55921 13.7726 2.50044 13.7116V15.1039H1.73828V10.5415H2.57614ZM2.54269 12.9037C2.56145 12.9852 2.60015 13.0608 2.65533 13.1237C2.67333 13.1458 2.6958 13.1638 2.72129 13.1766C2.74681 13.1893 2.77471 13.1965 2.8032 13.1976C2.87002 13.1939 2.93292 13.1649 2.97922 13.1166C3.05031 13.0427 3.10122 12.9518 3.12707 12.8526C3.16984 12.7009 3.18942 12.5437 3.18515 12.3862C3.18515 11.9602 3.13411 11.6592 3.0285 11.4832C2.98526 11.4018 2.92017 11.3342 2.84056 11.2879C2.76095 11.2415 2.66997 11.2183 2.57789 11.2209H2.50044V12.5516C2.49811 12.6704 2.51232 12.7888 2.54269 12.9037Z" fill="white"/>
<path d="M4.78838 14.9228C4.55957 14.7137 4.39377 14.4449 4.3096 14.1466C4.18462 13.7294 4.12525 13.2953 4.13358 12.8599C4.12551 12.4129 4.18485 11.9673 4.3096 11.538C4.39267 11.2311 4.55826 10.9529 4.78838 10.7336C4.98908 10.5614 5.24476 10.4668 5.50918 10.4668C5.7736 10.4668 6.02926 10.5614 6.22998 10.7336C6.45973 10.9522 6.6248 11.2299 6.70699 11.5362C6.83176 11.9667 6.8911 12.4135 6.88301 12.8616C6.8943 13.2972 6.83789 13.7318 6.71578 14.1501C6.63309 14.4477 6.46843 14.7161 6.24053 14.9246C6.03642 15.0908 5.78123 15.1816 5.51797 15.1816C5.25473 15.1816 4.99953 15.0908 4.79542 14.9246L4.78838 14.9228ZM4.97672 13.7699C5.00758 13.9639 5.08025 14.1489 5.18969 14.312C5.22453 14.3642 5.27124 14.4074 5.32602 14.438C5.3808 14.4686 5.44206 14.4858 5.50477 14.488C5.69252 14.488 5.84039 14.3507 5.94834 14.0762C6.07637 13.6786 6.13182 13.2612 6.11204 12.844C6.11683 12.5268 6.09209 12.2097 6.03811 11.897C6.00889 11.6928 5.93629 11.4971 5.82513 11.3232C5.79372 11.266 5.7475 11.2182 5.69129 11.1849C5.63508 11.1516 5.57096 11.1341 5.50565 11.1341C5.44033 11.1341 5.37623 11.1516 5.32002 11.1849C5.26382 11.2182 5.21758 11.266 5.18618 11.3232C5.07539 11.5034 5.00399 11.7049 4.97672 11.9147C4.92222 12.2267 4.89688 12.5431 4.90104 12.8599C4.8966 13.165 4.92196 13.4697 4.97672 13.7699Z" fill="white"/>
<path d="M7.40631 11.5729C7.5919 11.2291 7.88407 10.9549 8.2389 10.7913C8.65427 10.611 9.1047 10.5256 9.55728 10.5414V11.2261C9.01514 11.2261 8.60149 11.3617 8.31458 11.6362C8.02767 11.9108 7.88333 12.3174 7.88333 12.8684C7.88333 13.4193 8.0259 13.7837 8.31281 14.0407C8.59972 14.2976 9.01689 14.4279 9.55728 14.4279V15.1038C8.77927 15.1038 8.17904 14.9161 7.7566 14.5406C7.33414 14.165 7.12293 13.6047 7.12293 12.8596C7.10621 12.4135 7.20376 11.9706 7.40631 11.5729Z" fill="white"/>
<path d="M9.9637 11.5729C10.1494 11.2286 10.4423 10.9543 10.798 10.7914C11.2106 10.6094 11.6586 10.5216 12.1094 10.5344V11.2191C11.569 11.2191 11.1553 11.3547 10.8667 11.6293C10.578 11.9039 10.4354 12.3175 10.4354 12.8596C10.4354 13.4018 10.578 13.7749 10.8649 14.0319C11.1518 14.2889 11.569 14.4192 12.1076 14.4192V15.1039C11.3296 15.1039 10.7294 14.9161 10.3069 14.5406C9.88449 14.1651 9.67326 13.6048 9.67326 12.8596C9.65872 12.413 9.7587 11.97 9.9637 11.5729Z" fill="white"/>
<path d="M13.2231 10.5415V12.1697L14.5151 11.0802L15.2755 10.4395V15.104H14.5151V11.999L13.2231 13.0885V15.104H12.4609V10.5415H13.2231Z" fill="white"/>
<path d="M16.3932 10.5414V12.1696L17.6852 11.0801L18.4421 10.4429V15.1038H17.6817V11.9989L16.3897 13.0884V15.1038H15.6328V10.5414H16.3932Z" fill="white"/>
</g>
</svg>
