<svg width="24" height="14" viewBox="0 0 24 14" fill="none" xmlns="http://www.w3.org/2000/svg">
<path d="M23.25 0H0.75C0.551088 0 0.360322 0.0790178 0.21967 0.21967C0.0790176 0.360322 0 0.551088 0 0.75L0 12.75C0 12.9489 0.0790176 13.1397 0.21967 13.2803C0.360322 13.421 0.551088 13.5 0.75 13.5H23.25C23.4489 13.5 23.6397 13.421 23.7803 13.2803C23.921 13.1397 24 12.9489 24 12.75V0.75C24 0.551088 23.921 0.360322 23.7803 0.21967C23.6397 0.0790178 23.4489 0 23.25 0ZM18.8175 12H5.1825C5.02619 11.0802 4.58783 10.2317 3.92808 9.57192C3.26834 8.91217 2.41983 8.47381 1.5 8.3175V5.1825C2.41983 5.02619 3.26834 4.58783 3.92808 3.92808C4.58783 3.26834 5.02619 2.41983 5.1825 1.5H18.8175C18.9738 2.41983 19.4122 3.26834 20.0719 3.92808C20.7317 4.58783 21.5802 5.02619 22.5 5.1825V8.3175C21.5802 8.47381 20.7317 8.91217 20.0719 9.57192C19.4122 10.2317 18.9738 11.0802 18.8175 12ZM22.5 3.645C21.9841 3.51033 21.5134 3.24061 21.1364 2.86359C20.7594 2.48657 20.4897 2.01589 20.355 1.5H22.5V3.645ZM3.645 1.5C3.51033 2.01589 3.24061 2.48657 2.86359 2.86359C2.48657 3.24061 2.01589 3.51033 1.5 3.645V1.5H3.645ZM1.5 9.855C2.01589 9.98967 2.48657 10.2594 2.86359 10.6364C3.24061 11.0134 3.51033 11.4841 3.645 12H1.5V9.855ZM20.355 12C20.4897 11.4841 20.7594 11.0134 21.1364 10.6364C21.5134 10.2594 21.9841 9.98967 22.5 9.855V12H20.355Z" fill="#03A753"/>
<path d="M12 2.25C11.11 2.25 10.24 2.51392 9.49994 3.00839C8.75991 3.50285 8.18314 4.20566 7.84254 5.02792C7.50195 5.85019 7.41283 6.75499 7.58647 7.62791C7.7601 8.50082 8.18869 9.30264 8.81802 9.93198C9.44736 10.5613 10.2492 10.9899 11.1221 11.1635C11.995 11.3372 12.8998 11.2481 13.7221 10.9075C14.5443 10.5669 15.2471 9.99009 15.7416 9.25007C16.2361 8.51005 16.5 7.64002 16.5 6.75C16.5 5.55653 16.0259 4.41193 15.182 3.56802C14.3381 2.72411 13.1935 2.25 12 2.25ZM12 9.75C11.4067 9.75 10.8266 9.57405 10.3333 9.24441C9.83994 8.91476 9.45543 8.44623 9.22836 7.89805C9.0013 7.34987 8.94189 6.74667 9.05765 6.16473C9.1734 5.58279 9.45912 5.04824 9.87868 4.62868C10.2982 4.20912 10.8328 3.9234 11.4147 3.80764C11.9967 3.69189 12.5999 3.7513 13.1481 3.97836C13.6962 4.20542 14.1648 4.58994 14.4944 5.08329C14.8241 5.57664 15 6.15666 15 6.75C15 7.54565 14.6839 8.30871 14.1213 8.87132C13.5587 9.43393 12.7957 9.75 12 9.75Z" fill="#03A753"/>
</svg>
