<svg width="15" height="19" viewBox="0 0 15 19" fill="none" xmlns="http://www.w3.org/2000/svg">
<path d="M13.1157 4.61574C13.6617 5.16169 13.9346 5.43466 14.0785 5.78178C14.2222 6.1289 14.2222 6.51494 14.2222 7.28702V14.2222C14.2222 16.0031 14.2222 16.8935 13.669 17.4467C13.1157 18 12.2253 18 10.4444 18H4.77778C2.99691 18 2.10648 18 1.55325 17.4467C1 16.8935 1 16.0031 1 14.2222V4.77778C1 2.99691 1 2.10648 1.55325 1.55325C2.10648 1 2.99691 1 4.77778 1H7.93515C8.70723 1 9.09332 1 9.44041 1.14378C9.78758 1.28756 10.0605 1.56054 10.6065 2.10648L13.1157 4.61574Z" stroke="#03A753" stroke-width="1.5" stroke-linejoin="round"/>
<path d="M4.77734 9.5H10.444" stroke="#03A753" stroke-width="1.5" stroke-linecap="round" stroke-linejoin="round"/>
<path d="M4.77734 12.3335H10.444" stroke="#03A753" stroke-width="1.5" stroke-linecap="round" stroke-linejoin="round"/>
</svg>
