<?xml version="1.0" encoding="UTF-8"?>
<svg width="60" height="30" id="_Слой_2" data-name="Слой 2" xmlns="http://www.w3.org/2000/svg" viewBox="0 0 2593.25 1243.35">
  <defs>
    <style>
      .cls-1 {
        fill: #fffffe;
      }

      .cls-1, .cls-2 {
        stroke-width: 0px;
      }

      .cls-2 {
        fill: #229f38;
      }
    </style>
  </defs>
  <g id="_Слой_1-2" data-name="Слой 1">
    <g id="_СберПей" data-name="СберПей">
      <path class="cls-2" d="M604.02,0h1387.47c1.52,2.13,3.82,1.7,5.94,1.75,7.82.2,15.75-.37,23.45.71,14.27,2.01,28.65,2.94,42.92,5.04,13.29,1.96,26.56,4.06,39.62,6.96,19.24,4.28,38.34,9.3,57.15,15.34,25.49,8.17,50.45,17.72,74.62,29.14,38.56,18.23,74.84,40.25,109,65.87,19.03,14.27,37.21,29.52,54.58,45.68,24.23,22.56,46.15,47.27,66.5,73.45,14.31,18.41,27.38,37.63,39.57,57.39,14.74,23.9,27.67,48.86,38.64,74.76,10.04,23.69,19.16,47.72,25.96,72.57,2.67,9.75,5.55,19.45,7.83,29.29,2.54,10.96,4.4,22.09,6.76,33.09,2.4,11.18,3.9,22.5,5.21,33.83,1.04,9.04,2.97,18.04,2.32,27.24-.1,1.39.44,2.62,1.69,3.41v91.93c-1.19.84-1.73,2.03-1.69,3.44.2,8.17-1.29,16.19-1.93,24.28-.57,7.3-1.85,14.49-2.81,21.7-1.84,13.76-4.68,27.4-7.6,40.98-2.51,11.66-5.26,23.31-8.75,34.7-4.02,13.15-7.96,26.31-12.72,39.26-10.16,27.62-21.79,54.5-35.65,80.49-15.28,28.65-32.52,55.95-51.94,81.98-14.32,19.2-29.9,37.3-46.06,54.9-15.98,17.4-33.7,32.99-51.65,48.35-16.06,13.75-32.94,26.34-50.36,38.25-14.96,10.23-30.48,19.53-46.26,28.45-14.49,8.2-29.36,15.59-44.45,22.55-17.94,8.27-36.31,15.54-54.99,22.02-13.32,4.62-26.78,8.79-40.39,12.48-11.83,3.21-23.77,5.99-35.73,8.69-13.27,2.99-26.7,4.87-40.06,7.28-6.9,1.25-13.9,1.26-20.74,2.38-10.66,1.75-21.41,2.32-32.12,3.23-9.27.78-18.65.34-27.97.34-455.31,0-910.62-.02-1365.93.12-17,0-33.83-1.86-50.77-2.41-.83-.03-1.66-.14-2.48-.31-12.01-2.48-24.26-3.38-36.38-5.14-12.82-1.85-25.5-4.36-38.09-7.08-18.46-3.99-36.63-9.27-54.62-15.15-26.87-8.79-53.19-18.96-78.63-31.2-34.97-16.82-67.88-37.14-99.2-60.09-19.05-13.97-37.17-29.06-54.38-45.14-25.64-23.95-49.34-49.73-70.58-77.77-16.58-21.88-32.05-44.43-45.62-68.28-18.02-31.68-33.67-64.49-45.94-98.8-9.61-26.86-17.21-54.31-23.05-82.29-3.72-17.85-6.42-35.84-9.19-53.82-2.3-14.88-3.24-30.04-3.79-45.03-.81-22.04-1.42-44.13.89-66.27,1.56-14.97,2.45-30.03,4.23-45.02,1.26-10.54,2.94-21.03,4.83-31.41,3.59-19.7,8.06-39.28,13.88-58.46,7.8-25.74,16.81-51.07,27.59-75.73,8.12-18.57,17.17-36.71,27.19-54.33,12.57-22.1,26.34-43.42,41.33-63.99,12.05-16.53,24.61-32.68,38.5-47.61,27.62-29.71,56.64-57.98,89.47-82.11,21.17-15.56,42.86-30.26,65.68-43.32,28.46-16.29,57.94-30.49,88.66-41.85,30.79-11.39,62.17-20.93,94.51-27.31,18.54-3.66,37.15-6.9,55.86-9.03,14.64-1.67,29.39-3.51,44.25-2.68,2.25.13,4.76.57,6.44-1.72Z"/>
      <path class="cls-1" d="M610.72,277.88c-22.46-.9-44.32.8-66.09,5.59-15.77,3.47-31.24,7.76-46.28,13.41-18.99,7.14-37.04,16.27-54.48,26.77-21.62,13.01-41.4,28.35-59.71,45.54-22.87,21.48-42.3,45.9-58.77,72.61-12.77,20.71-23.37,42.52-31.22,65.57-5.3,15.53-9.58,31.31-12.49,47.55-2.63,14.72-4.48,29.51-5.15,44.35-1.03,22.9-.18,45.75,3.42,68.53,2.28,14.44,4.94,28.77,9.09,42.72,8.3,27.94,19.59,54.64,34.57,79.77,12.81,21.5,27.67,41.44,44.6,59.78,9.11,9.87,18.85,19.15,29.16,27.9,17.84,15.13,36.99,28.19,57.43,39.42,23.51,12.91,47.83,23.74,73.98,30.45,17.09,4.39,34.41,8.08,51.81,8.81,29.66,1.25,59.43,2.37,89.02-3.14,15.87-2.96,31.44-6.8,46.73-11.71,17.41-5.59,33.97-13.26,50.22-21.71,26.43-13.76,50.29-31.12,72.24-51.07,10.06-9.15,19.37-19.11,28.29-29.48,12.96-15.07,24.72-31.02,34.39-48.21,18.61-33.09,34.62-67.32,40.74-105.38,2.52-15.71,5.46-31.31,5.62-47.29.24-24.27.63-48.55-2.19-72.73-.12-.99-.14-2.01-.39-2.96-1.19-4.5-2.18-4.73-5.9-1.94-9.57,7.18-19.24,14.21-28.82,21.38-11.17,8.36-22.25,16.83-33.43,25.18-3.62,2.71-5.07,6.02-5.08,10.66-.01,10.27-.19,20.48-1.56,30.79-1.96,14.71-5.05,29.12-9.31,43.17-8.53,28.14-21.37,54.26-38.46,78.38-13.95,19.7-30.21,37.03-48.81,52.27-19.16,15.7-40.29,28.05-63.24,37.41-29.66,12.09-60.3,19.11-92.45,19.29-15.31.09-30.63.15-45.72-2.62-14.84-2.72-29.41-6.6-43.72-11.52-31.55-10.83-59.79-27.41-84.74-49.35-16.76-14.74-31.65-31.32-44.17-49.92-9.96-14.8-18.64-30.34-25.45-46.79-6.53-15.78-11.77-31.99-15.17-48.86-2.5-12.4-4.27-24.88-4.95-37.36-1.28-23.56-.06-46.99,5.25-70.27,4.54-19.89,10.97-38.97,19.67-57.28,9.93-20.93,22.27-40.34,37.32-58.1,12.1-14.29,25.31-27.32,40.05-38.74,17.68-13.7,37.09-24.47,57.66-33.37,24.62-10.66,50.35-17.13,76.85-19.28,25.68-2.09,51.43-.68,76.77,5.22,24.54,5.72,48.22,13.54,70.15,26.18,6.19,3.57,12.45,7.01,18.62,10.6,2.3,1.34,4.23,1.36,6.37-.39,3.08-2.52,6.37-4.8,9.56-7.18,16.22-12.13,32.41-24.31,48.7-36.35,3.18-2.35,2.13-4.07-.3-5.74-10.94-7.54-21.91-15.03-33.35-21.8-18.34-10.87-37.4-20.29-57.42-27.58-17.45-6.36-35.08-12.12-53.45-15.6-12.88-2.44-25.75-4.74-38.82-5.43-9.14-.49-18.32-.09-27.18-.09Z"/>
      <path class="cls-1" d="M1205.93,598.16h.09c0,55.44,0,110.88,0,166.32,0,16.98,0,33.96-.11,50.94-.02,3.76.95,6.02,5.27,6.01,22.48-.08,44.97-.06,67.45-.03,3.59,0,5.11-1.68,5.07-5.2-.05-3.99.13-7.99.14-11.98.01-37.46,0-74.92.03-112.38,0-7.13,1.23-8.28,7.99-8.44,30.91-.75,61.84,1.35,92.75-1.7,8.89-.88,17.94-1.38,26.68-2.85,18.45-3.1,36.62-7.48,54.02-14.92,22.58-9.66,42.27-22.85,57.15-42.65,19.27-25.62,26.89-55.29,28.76-86.54,1.21-20.27-2.25-40.21-7.37-59.94-6.87-26.47-21.93-46.91-43.71-62.77-23.69-17.24-50.95-25.3-79.37-29.91-12.74-2.06-25.7-2.7-38.55-3.91-14.84-1.39-29.86-1.62-44.75-1.96-40.95-.93-81.94-.32-122.91-.32q-8.61,0-8.62,8.46c0,71.26,0,142.51,0,213.77Z"/>
      <path class="cls-1" d="M1772.56,770.58c1.85,1.92,1.2,4.02,1.21,5.9.07,12.32.03,24.64.04,36.96,0,7.77.18,7.96,7.72,7.97,17.99.02,35.98.02,53.97,0,7.65,0,7.97-.24,7.87-7.85-.96-72.86,1.91-145.75-1.65-218.61-.74-15.1-3.37-29.21-10.6-42.49-11.92-21.89-29.85-36.72-53.24-44.75-10.81-3.71-22.23-5-33.6-6.48-13-1.69-26.04-2.56-39.09-3.32-7.61-.45-15.19.59-22.81,1.33-9.92.96-19.7,2.36-29.51,4.03-18.92,3.22-36.28,10.4-53.16,19.18-4.43,2.3-6.15,5.19-6.1,10.2.22,22.64.1,45.29.09,67.93,0,3.66-.07,7.32-.05,10.99,0,.97.02,2.25,1.26,2.34.63.05,1.58-.67,1.96-1.3,1.56-2.59,3.55-4.8,5.56-7.03,15.05-16.67,33.64-27.98,54.56-35.56,9.21-3.33,18.83-5.91,28.57-6.36,14.74-.68,29.61-1.59,44.22,1.85,8.92,2.1,17.49,4.47,24.51,11.24,10.91,10.5,13.1,24.18,15.31,37.97.65,4.08-.27,8.32.84,12.41,2.17,8,.45,10.25-8.02,10.26-19.99.03-39.98.11-59.97-.01-22.3-.13-44.39,1.43-66.28,6.02-15.86,3.32-29.71,10.48-41.92,20.82-15.78,13.37-22.6,31.39-24.19,51.31-1.44,18.09-.49,36.1,5.64,53.61,4.67,13.33,11.55,25.21,21.95,34.51,16.62,14.85,37.32,20.87,58.83,23.24,17.75,1.96,35.43-.19,52.63-5.65,23.1-7.33,41.93-20.43,56.04-40.22,2.44-3.43,4.15-7.42,7.4-10.43Z"/>
      <path class="cls-1" d="M1922.07,503.85c-11.83,0-23.65.03-35.48-.02-3.75-.01-5.34.97-3.49,5.05,2.25,4.97,3.94,10.2,6.03,15.25,7.29,17.64,14.72,35.22,21.97,52.88,8.26,20.1,16.28,40.3,24.58,60.39,7.67,18.56,15.67,36.99,23.36,55.54,9.97,24.07,19.7,48.23,29.68,72.3,7.82,18.86,15.83,37.63,23.8,56.42.96,2.27,1.33,4.48.29,6.75-5.08,11-9.09,22.5-15.32,32.95-8.28,13.9-20.53,21.86-36.73,21.81-11.71-.04-22.01-5.75-31.96-11.57-4.07-2.38-5.13-2.04-5.15,2.46-.1,19.98-.05,39.96-.05,59.93,0,1.87.09,3.81,2.08,4.73,10.29,4.75,20.9,9.26,32.16,10.05,13.02.91,26.12,1.39,39.25-1.25,11.71-2.35,21.47-7.49,30.26-15.19,13.27-11.62,22.55-26.18,30.07-41.81,9.15-19,15.98-38.97,22.94-58.87,7.99-22.86,16.54-45.54,24.67-68.35,9.25-25.94,18.23-51.98,27.47-77.93,8.07-22.66,16.41-45.23,24.51-67.88,7.83-21.87,15.48-43.8,23.28-65.67,4.96-13.91,9.96-27.81,15.14-41.63,1.54-4.11-.41-5.52-3.8-6.12-1.78-.32-3.65-.23-5.48-.23-19.32-.01-38.64-.01-57.96,0-8.16,0-8.04.05-10.55,8.02-6.89,21.83-14.59,43.38-21.21,65.3-6.62,21.91-13.77,43.66-20.92,65.4-8.03,24.43-16.06,48.86-25.69,72.73-.41,1.02-.27,2.58-1.87,2.51-1.31-.06-1.86-1.24-2.31-2.36-2.67-6.62-5.39-13.21-8-19.85-10.58-26.86-21.1-53.74-31.69-80.59-6.09-15.44-12.32-30.83-18.44-46.26-7.88-19.88-15.76-39.77-23.52-59.7-1.49-3.83-3.86-5.33-7.95-5.26-11.32.18-22.65.06-33.98.07Z"/>
      <path class="cls-1" d="M486,576.92c0,11.66.52,23.34-.16,34.96-.58,9.88,1.61,17.28,11.81,20.68,1.52.51,2.74,1.85,4.16,2.72,35.91,21.86,71.11,44.81,106.43,67.59,2.78,1.79,4.71,2.17,7.48.06,8.85-6.74,17.9-13.22,26.85-19.82,13.5-9.95,27-19.9,40.47-29.88,14.14-10.48,28.25-21.01,42.37-31.52,14.78-11,29.56-22,44.31-33.04,14.49-10.85,28.9-21.82,43.43-32.63,16.52-12.29,33.19-24.4,49.69-36.72,17.3-12.91,34.44-26.02,51.74-38.93,5.63-4.2,5.84-4.09,2.53-10.28-9.41-17.58-19.58-34.71-30.71-51.27-6.56-9.77-6.85-9.72-16.04-2.56-12.18,9.49-24.68,18.56-37.03,27.82-14.35,10.75-28.69,21.51-43.04,32.27-14.75,11.06-29.47,22.15-44.24,33.17-14.11,10.52-28.29,20.95-42.41,31.46-14.25,10.62-28.43,21.34-42.7,31.92-14.14,10.48-28.5,20.67-42.45,31.39-3.95,3.03-6.98,3.66-11.08.88-14.84-10.08-30.13-19.47-45.34-28.98-23.81-14.88-47.41-30.08-71.12-45.14-1.22-.77-2.42-2.42-3.9-1.67-1.75.89-1.06,2.98-1.06,4.56-.05,14.32-.03,28.64-.02,42.96Z"/>
      <path class="cls-2" d="M1283.7,529.58c0-24.14-.01-48.27,0-72.41,0-7.22.46-7.68,7.66-7.67,29.31.01,58.65-.77,87.92.37,19.84.78,39.45,4.6,57.81,13.2,16.92,7.93,25.47,22.21,30.47,39.17,3.88,13.16,3.66,26.91,1.66,40.1-3.93,26.02-17.44,45.8-42.23,56.89-9.77,4.37-19.8,7.16-30.44,8.72-24.93,3.66-50.01,4.32-75.02,3.11-10.92-.53-21.85-1.19-32.79-1.31-4.95-.05-5.04-3.23-5.04-6.77.02-24.47,0-48.94,0-73.41Z"/>
      <path class="cls-2" d="M1695.29,761.5c-12.88.54-24.38-1.93-34.84-7.83-10.36-5.84-16.12-15.1-17-27.06-.83-11.33.87-21.87,9.89-30.08,6.35-5.79,14.34-7.39,22.26-9.18,19.44-4.41,39.21-4.27,58.98-4.03,10.32.13,20.65.14,30.97.04,4.15-.04,5.81,1.65,6.21,5.86,3.26,34.11-19.2,56.67-45.71,66.39-10.17,3.73-20.52,6.79-30.76,5.88Z"/>
    </g>
  </g>
</svg>
