<?xml version="1.0" encoding="UTF-8"?>
<svg width="80" height="25" id="_Слой_2" data-name="Слой 2" xmlns="http://www.w3.org/2000/svg" viewBox="0 0 2067.49 632.92">
  <defs>
    <style>
      .cls-1 {
        fill: #ffdd2f;
      }

      .cls-1, .cls-2 {
        stroke-width: 0px;
      }

      .cls-2 {
        fill: #343434;
      }
    </style>
  </defs>
  <g id="_Слой_1-2" data-name="Слой 1">
    <g id="_ТБАНК" data-name="ТБАНК">
      <path class="cls-1" d="M317.74.12c103.7,0,207.39,0,311.09-.02,3.35,0,6.06-.5,6.06,4.75-.17,107.84.46,215.69-.45,323.52-.38,45.59-16.15,86.92-42.63,124.09-22.72,31.89-53.01,54.55-86.83,73.64-61.03,34.44-121.48,69.9-182.13,105.01-3.38,1.96-6.03,2.66-9.83.45-63.93-37.08-127.79-74.27-192.02-110.83-48.96-27.87-84.72-66.97-105.25-119.57-8.83-22.62-14.28-46.07-14.92-70.43-1.58-60.03-.4-120.08-.64-180.13C0,102.63.24,54.66.04,6.69.02,1.48,1.29,0,6.65,0c103.7.17,207.39.12,311.09.12ZM384.05,428.61c-15.39-22.08-20.09-46.19-20.2-71.48-.15-34.16-.04-68.32-.04-102.48,0-3.45.06-6.91-.02-10.36-.05-2.08.54-3.18,2.91-3.15,17.05.18,34.18-.89,51.03,2.83,16.09,3.55,30.53,10.38,42.55,22.68.27-1.28.46-1.78.46-2.28.02-30.9-.08-61.79.13-92.69.03-4.57-2.28-4.25-5.32-4.25-91.99.03-183.98.06-275.97-.08-4.46,0-5.35,1.3-5.32,5.48.18,29.55.08,59.11.12,88.66,0,1.45-.59,3.06.94,4.68,13.62-13.7,30.61-20.65,49.31-23.55,13.68-2.12,27.57-1.25,41.37-1.56,4.72-.11,5.71,1.46,5.69,5.86-.16,37.61.1,75.23-.19,112.84-.11,13.61-2.08,27.06-6.21,40.17-3.2,10.17-7.78,19.62-14.07,28.7h132.83Z"/>
      <path class="cls-2" d="M920.43,167.46c43.96,0,87.93.06,131.89-.1,4.17-.01,5.54.81,5.46,5.27-.3,16.88-.33,33.77.02,50.64.09,4.66-1.55,5.13-5.52,5.12-60.86-.12-121.71-.03-182.57-.19-4.74-.01-6.77.67-6.39,6.07.56,7.83.44,15.74.03,23.58-.24,4.52,1.36,5.28,5.48,5.26,38.39-.16,76.79-.2,115.19-.03,11.68.05,23.38.94,34.79,3.75,35.69,8.77,56.74,33.45,59.99,70.11,3.63,40.95-18.96,75.5-56.77,86.42-16.36,4.73-33.25,5.42-50.15,5.43-60.86.05-121.71-.05-182.57.14-5,.02-5.83-1.51-5.82-6.1.14-83.07.15-166.13-.01-249.2,0-4.97,1.03-6.36,6.22-6.33,43.58.24,87.16.14,130.74.14ZM923.97,321.58c0-.06,0-.12,0-.18-18.61,0-37.22.12-55.83-.1-3.89-.04-4.86,1.15-4.77,4.85.23,10.35.29,20.71-.02,31.05-.14,4.46,1.03,5.79,5.67,5.77,35.11-.21,70.22-.09,105.33-.16,3.62,0,7.29-.37,10.87-.98,11-1.86,18.2-10.09,18.11-20.42-.09-10.28-6.29-16.96-17.84-19.05-2.44-.44-4.94-.75-7.42-.76-18.03-.06-36.06-.03-54.1-.03Z"/>
      <path class="cls-2" d="M1431.6,298.03c0-41.63.06-83.26-.09-124.89-.02-4.36.88-5.86,5.61-5.81,23.03.27,46.07.25,69.11.01,4.39-.05,5.38,1.19,5.35,5.44-.2,28.39-.03,56.78-.19,85.17-.02,3.85.7,5.19,4.92,5.17,39.35-.17,78.71-.16,118.07-.02,3.85.01,4.74-1.14,4.72-4.83-.15-28.39.01-56.78-.18-85.17-.03-4.41.98-5.82,5.65-5.77,23.03.26,46.07.25,69.11,0,4.45-.05,5.32,1.28,5.31,5.47-.13,83.64-.14,167.28.03,250.92,0,4.64-1.57,5.21-5.57,5.18-23.04-.17-46.08-.2-69.11.02-4.28.04-5.46-1-5.43-5.36.21-28.77.02-57.55.2-86.33.03-4.15-.78-5.45-5.26-5.43-39.16.21-78.33.19-117.49.02-4.1-.02-5,1.12-4.98,5.08.18,28.77,0,57.55.2,86.33.03,4.48-1.06,5.75-5.64,5.7-23.03-.25-46.07-.25-69.11,0-4.44.05-5.34-1.25-5.33-5.45.16-41.82.1-83.64.1-125.46Z"/>
      <path class="cls-2" d="M1408.98,428.83h-30.7c-18.05,0-36.1-.11-54.15.09-3.65.04-5.35-1.08-6.64-4.51-3.78-10-8.15-19.78-11.94-29.78-1.18-3.12-2.79-3.87-5.91-3.86-37.25.1-74.51.11-111.76-.02-3.3-.01-4.71,1.18-5.79,4.09-3.73,10.02-7.74,19.94-11.56,29.93-.93,2.44-1.78,4.16-5.07,4.15-28.6-.14-57.2-.08-86.8-.08,3.19-8,6.11-15.51,9.16-22.96,31.91-77.79,63.87-155.56,95.67-233.4,1.53-3.75,3.24-5.14,7.41-5.12,35.33.19,70.67.19,106,0,3.92-.02,5.75,1.18,7.18,4.69,34.34,84.04,68.77,168.04,103.18,252.04.57,1.38,1.02,2.81,1.72,4.74ZM1284.14,332.88c0-.58.1-.98-.01-1.31-11.95-33.28-23.93-66.55-35.84-99.85-.79-2.2-1.56-3.48-4.3-3.53-2.93-.06-3.45,1.73-4.15,3.69-7.47,20.87-14.92,41.75-22.4,62.62-4.55,12.71-9.14,25.41-13.8,38.38h80.5Z"/>
      <path class="cls-2" d="M2067.49,428.83h-6.8c-29.96,0-59.92-.23-89.87.17-6.95.09-11.63-2.02-16.34-6.99-27.56-29.08-55.52-57.78-83.11-86.82-3.67-3.86-7.29-5.61-12.49-5.08-4.54.47-10.59-1.37-13.31.94-2.89,2.46-.85,8.67-.87,13.24-.08,26.29-.12,52.58.04,78.87.03,4.15-.55,5.88-5.42,5.81-23.23-.3-46.47-.23-69.7-.04-3.82.03-4.72-1.07-4.71-4.78.1-83.86.12-167.71-.04-251.57,0-4.58,1.49-5.24,5.54-5.21,23.04.18,46.09.24,69.13-.04,4.58-.05,5.24,1.45,5.21,5.52-.17,28.97,0,57.95-.19,86.92-.03,4.49.79,5.73,5.72,6.24,11.52,1.2,19.42-2.85,27.36-11.3,26.91-28.63,54.76-56.38,82.2-84.51,1.52-1.56,2.82-2.81,5.27-2.8,32.05.08,64.1.05,97.65.05-5.18,5.16-9.51,9.52-13.89,13.82-36.82,36.14-73.63,72.3-110.55,108.36-2.51,2.45-2.61,3.67-.08,6.26,41.02,41.95,81.92,84.03,122.84,126.08,1.86,1.91,3.64,3.89,6.4,6.85Z"/>
      <path class="cls-2" d="M384.05,428.61h-132.83c6.28-9.09,10.87-18.53,14.07-28.7,4.13-13.11,6.1-26.56,6.21-40.17.3-37.61.03-75.23.19-112.84.02-4.41-.96-5.97-5.69-5.86-13.81.31-27.69-.56-41.37,1.56-18.7,2.89-35.68,9.85-49.31,23.55-1.53-1.62-.94-3.23-.94-4.68-.04-29.55.05-59.11-.12-88.66-.03-4.18.86-5.48,5.32-5.48,91.99.14,183.98.11,275.97.08,3.04,0,5.35-.32,5.32,4.25-.22,30.9-.12,61.79-.13,92.69,0,.5-.2,1.01-.46,2.28-12.03-12.3-26.46-19.13-42.55-22.68-16.85-3.72-33.97-2.65-51.03-2.83-2.37-.02-2.95,1.07-2.91,3.15.08,3.45.02,6.91.02,10.36,0,34.16-.11,68.32.04,102.48.11,25.29,4.81,49.41,20.2,71.48Z"/>
    </g>
  </g>
</svg>
