<?xml version="1.0" encoding="UTF-8"?>
<svg width="65" height="25" id="_Слой_2" data-name="Слой 2" xmlns="http://www.w3.org/2000/svg" viewBox="0 0 1789.35 710.56">
  <defs>
    <style>
      .cls-1 {
        fill: #e74026;
      }

      .cls-1, .cls-2, .cls-3 {
        stroke-width: 0px;
      }

      .cls-2 {
        fill: #000;
      }

      .cls-3 {
        fill: #fff;
      }
    </style>
  </defs>
  <g id="_Слой_1-2" data-name="Слой 1">
    <g id="_ЯPAY" data-name="ЯPAY">
      <path class="cls-1" d="M356.45.85c12.65,0,25.34-.58,37.94.19,9.4.57,18.82,2.35,28,4.53,16.75,3.98,33.48,8.16,49.92,13.23,10.39,3.2,20.32,7.97,30.3,12.4,8.87,3.94,17.68,8.08,26.22,12.67,6.44,3.47,12.5,7.67,18.57,11.78,10.01,6.78,20.08,13.51,29.77,20.72,5.84,4.34,11.15,9.43,16.51,14.4,20.18,18.73,38.98,38.77,54.32,61.67,8.86,13.22,16.62,27.21,24.26,41.2,5.08,9.29,9.7,18.94,13.38,28.85,4.77,12.87,8.97,26.01,12.38,39.31,3.9,15.24,7.45,30.65,9.75,46.2,3.7,25.05,5.47,50.29,2.02,75.6-1.84,13.48-2.9,27.1-5.45,40.44-2.46,12.83-6,25.49-9.78,38.01-3.48,11.5-7.6,22.83-12.04,34-2.92,7.36-6.52,14.51-10.5,21.36-8.5,14.63-16.7,29.53-26.36,43.39-22.51,32.26-49.77,59.97-81.87,82.98-17.32,12.42-35.41,23.49-54.57,32.6-13.16,6.26-27.11,10.92-40.88,15.82-10.25,3.65-20.71,6.76-31.19,9.71-5.72,1.61-11.68,2.42-17.53,3.55-29.64,5.72-59.6,5.72-89.55,4.34-13.72-.63-27.42-2.59-41-4.7-10.08-1.57-20.15-3.77-29.91-6.74-11.89-3.62-23.35-8.59-35.15-12.52-19.18-6.39-36.3-16.97-53.9-26.48-9.86-5.33-19.09-12-28.05-18.81-17.88-13.59-34.27-28.85-49.48-45.41-16.84-18.34-31.13-38.47-44.05-59.71-10.92-17.95-19.5-36.99-27.06-56.48-3.45-8.88-6.01-18.16-8.36-27.41-3.42-13.47-6.35-27.06-9.33-40.63-.6-2.73-.32-5.65-.73-8.44-3.14-21.58-3.62-43.31-2.49-64.98.82-15.7,2.99-31.38,5.46-46.93,1.99-12.54,4.67-25.07,8.28-37.24,3.36-11.35,8.28-22.24,12.62-33.3,2.39-6.1,4.82-12.19,7.51-18.15,7.57-16.76,16.98-32.51,27.53-47.51,7.06-10.04,14.54-19.82,22.44-29.21,16.31-19.38,34.13-37.34,54.63-52.27,12.83-9.34,26.69-17.27,39.86-26.16,15.01-10.13,31.75-16.76,48.3-23.57,12.45-5.12,25.61-8.72,38.69-12.03,14.58-3.69,29.34-7.03,44.22-9.15,11.97-1.7,24.23-1.39,36.37-1.9,3.32-.14,6.66-.02,9.99-.02v.81ZM382.48,410.16c-1.84-1.6-2.77-2.55-3.83-3.31-13.47-9.64-26.77-19.53-40.49-28.8-15.82-10.69-30.07-22.95-41.13-38.6-7.44-10.51-12.83-22.15-14.7-34.85-2.29-15.58-4.78-31.4-.41-47.02,2.23-7.97,4.08-16.6,8.57-23.27,12.9-19.14,31.64-30.23,54.56-32.8,16.99-1.91,34.16-2.35,51.26-3,11.15-.43,11.16-.08,11.16,10.98,0,85.73.02,171.46,0,257.19,0,32.63-.06,65.25-.11,97.88,0,3.15-.24,5.77,4.52,5.7,20.31-.31,40.63-.27,60.95-.31,7.21-.01,7.22.04,7.21-7.01-.03-122.35-.06-244.7-.08-367.05,0-16.31.06-32.63.1-48.94,0-3.56-.12-6.44-5.25-6.26-45.7,1.63-91.55-3.05-137.15,3.13-9.02,1.22-18.21,2.04-26.91,4.5-14.51,4.09-28.61,9.35-41.78,17.1-30.11,17.71-49.17,43.57-57.96,77.05-3.94,15.02-5.39,30.44-4.37,46.01.41,6.3-.06,12.8,1.32,18.88,2.58,11.42,5.55,22.86,9.62,33.81,3.03,8.15,7.41,16.01,12.35,23.22,13.27,19.38,30.7,34.82,48.87,49.45,4.01,3.23,8.36,6.08,12.15,9.55,1.12,1.02,1.82,4.17,1.09,5.27-6.32,9.64-13.04,19.02-19.6,28.5-12.72,18.4-25.43,36.82-38.12,55.25-11.39,16.53-22.79,33.04-34.04,49.67-1.18,1.74-1.34,4.18-1.97,6.29,1.98.55,3.96,1.57,5.94,1.58,22.48.12,44.95-.06,67.43.19,5.67.06,9.11-1.38,12.35-6.61,14.87-24.02,30.41-47.63,45.65-71.42,6.36-9.93,12.51-20,18.91-29.91,11.16-17.27,22.43-34.46,33.88-52.02Z"/>
      <path class="cls-2" d="M1170.44,569.47c.21-2.68.04-5.18.65-7.47,1.9-7.18,4.16-14.26,6.14-21.42,3.34-12.1,6.65-24.22,9.81-36.37,1.7-6.53,2.92-13.19,4.6-19.72,1.77-6.86,3.85-13.64,5.77-20.47,1.38-4.91,2.82-9.8,4.07-14.74,2.79-11.05,5.32-22.17,8.27-33.18,3.06-11.43,6.56-22.75,9.69-34.16,1.55-5.66,2.62-11.45,4.08-17.14,1.92-7.45,4.01-14.86,6.03-22.28,1.25-4.62,2.52-9.25,3.75-13.88,3.88-14.61,7.83-29.21,11.58-43.86,2.86-11.18,5.26-22.48,8.25-33.62,4.19-15.59,8.95-31.03,13.1-46.63,5.36-20.15,10.45-40.36,15.42-60.61.72-2.95,2.35-3.22,4.59-3.21,8.16.02,16.32.1,24.48.09,21.15-.02,42.3-.08,63.45-.11.82,0,1.63.12,2.94.22,1.51,6,3.02,12.03,4.55,18.05,1.3,5.12,2.53,10.26,3.96,15.34,1.79,6.36,3.9,12.63,5.62,19.01,2.8,10.38,5.34,20.83,8.09,31.22,3.24,12.27,6.69,24.48,9.86,36.77,2.92,11.31,5.55,22.69,8.43,34.01,1.63,6.38,3.54,12.69,5.26,19.05,1.81,6.7,3.48,13.44,5.3,20.14,3.19,11.73,6.55,23.41,9.64,35.16,1.75,6.66,2.98,13.46,4.63,20.15,1.54,6.24,3.31,12.42,5.02,18.61,1.61,5.84,3.38,11.65,4.91,17.52,1.71,6.56,3.12,13.2,4.86,19.74,2.93,11,6.03,21.96,9.03,32.95,1.48,5.42,2.95,10.84,4.33,16.29,4.02,15.86,7.91,31.76,12.01,47.6,1.72,6.65,3.94,13.18,5.7,19.82.57,2.13.39,4.46.58,7.15-9.67,0-18.62,0-27.56,0-14.99,0-29.98-.13-44.96.09-3.81.06-5.15-1.46-5.98-4.88-4.43-18.3-9.07-36.55-13.62-54.83-2.48-9.97-4.96-19.93-7.33-29.93-.75-3.16-1.54-5.38-5.63-3.76-1.73.69-3.95.18-5.94.18-38.97-.01-77.94.02-116.91-.15-3.26-.01-3.86,1.47-4.49,3.94-3.32,13.09-6.84,26.13-10.08,39.24-2.93,11.84-5.54,23.76-8.41,35.62-.96,3.95-2.01,7.93-3.62,11.64-.57,1.32-2.92,2.63-4.48,2.65-17.15.2-34.31.15-51.46.16-2.32,0-4.65,0-8.01,0ZM1273.09,416.38c1.78.35,2.75.71,3.71.71,24.81-.06,49.62-.16,74.43-.24,6.16-.02,12.32-.03,18.49,0,2.68.01,4.26-.81,3.28-3.86-1.75-5.44-3.78-10.81-5.17-16.35-2.88-11.46-5.39-23.02-8.1-34.52-1.48-6.27-2.93-12.54-4.59-18.76-3.13-11.74-6.57-23.39-9.56-35.16-2.77-10.87-4.97-21.89-7.69-32.77-3.44-13.77-7.09-27.48-10.78-41.19-.99-3.68-2.44-7.23-4.1-12.09-16.88,65.71-33.33,129.72-49.9,194.24Z"/>
      <path class="cls-2" d="M902.02,569.48c0-3.83,0-6.95,0-10.08-.02-134.86-.04-269.72-.07-404.57,0-3.33.07-6.66-.14-9.98-.19-2.98.87-4.17,3.96-4.12,8.32.14,16.65.02,24.97.06,34.48.18,68.97.02,103.43.81,10.44.24,20.9,2.77,31.21,4.95,9.53,2.02,19.02,4.52,28.22,7.69,6.4,2.2,12.31,5.84,18.39,8.92,12.11,6.13,22.35,14.89,31.16,24.89,6.37,7.23,11.41,15.84,15.96,24.41,8.3,15.66,12.02,32.8,13.61,50.32,1.77,19.49-.05,38.76-5.29,57.62-2.34,8.44-4.59,17.06-8.32,24.91-3.49,7.34-8.67,13.94-13.5,20.57-8.2,11.26-19.23,19.49-30.58,27.26-2.89,1.98-6.15,3.53-9.42,4.82-7.23,2.86-14.76,5.03-21.83,8.22-14.01,6.32-29.05,8.1-43.93,9.3-18.06,1.46-36.27.88-54.42,1.18-.83.01-1.68.07-2.5-.06-4.4-.68-5.62,1.13-5.61,5.52.14,46.62.06,93.23.06,139.85,0,7.52.03,7.49-7.8,7.49-20.32-.01-40.65,0-60.97,0-1.81,0-3.63,0-6.59,0ZM977.41,358.68c1.8,0,3.09.01,4.38,0,12.81-.17,25.62-.05,38.42-.58,18.43-.77,35.56-4.87,50.82-16.62,13.26-10.22,19.7-23.94,23.23-39.07,3.48-14.92,3.63-30.38.76-45.6-1.19-6.3-2.32-12.81-4.87-18.61-5.2-11.83-13.03-21.49-24.9-27.81-7.46-3.98-15.13-7.9-23.28-8.48-19.4-1.39-38.91-1.23-58.35-2.08-5.14-.23-6.41,1.34-6.39,6.32.2,46.28.16,92.57.19,138.85,0,4.31,0,8.62,0,13.69Z"/>
      <path class="cls-2" d="M1465.22,140.81c8.94,0,16.72.02,24.5,0,17.64-.05,35.29-.14,52.93-.08,1.16,0,2.9.89,3.37,1.85,6.33,13.08,12.35,26.3,18.72,39.36,5.28,10.83,11,21.44,16.36,32.23,4.15,8.35,7.98,16.86,12.09,25.23,4.29,8.74,8.85,17.35,13.1,26.11,3.93,8.09,7.55,16.34,11.4,24.47,3.99,8.42,8.04,16.81,12.24,25.13.5.99,2.09,2.01,3.13,1.96.78-.03,1.62-1.69,2.19-2.75,2.36-4.43,4.73-8.86,6.89-13.4,2.72-5.73,5.13-11.61,7.86-17.34,3.98-8.34,8.11-16.61,12.19-24.9,1.86-3.77,3.73-7.54,5.62-11.3,4.59-9.15,9.27-18.25,13.78-27.44,4-8.13,7.69-16.42,11.75-24.52,5.46-10.9,11.31-21.6,16.69-32.53,3.47-7.05,6.42-14.36,9.77-21.91h69.54c-.04.74.15,1.62-.16,2.23-5.46,10.61-11.07,21.14-16.46,31.78-4.05,8-7.68,16.22-11.79,24.2-4.01,7.79-8.46,15.34-12.55,23.09-2.89,5.48-5.48,11.12-8.25,16.67-3.27,6.54-6.58,13.06-9.9,19.58-5.04,9.91-10.03,19.84-15.18,29.69-3.3,6.31-6.96,12.43-10.22,18.76-2.75,5.34-5.07,10.91-7.73,16.3-3.24,6.57-6.68,13.04-9.95,19.6-2.76,5.53-5.24,11.21-8.11,16.68-4.41,8.41-9.05,16.7-13.55,25.06-.45.83-.79,1.85-.79,2.77.09,57.24.27,114.47.32,171.71.01,10.35-.2,10.35-10.35,10.36-19.65,0-39.31-.1-58.96.1-4.37.04-5.64-1.34-5.64-5.69.11-56.43-.13-112.85.22-169.28.05-8.31-3.45-14.7-6.88-21.5-2.79-5.54-5.41-11.16-8.3-16.64-5.66-10.71-11.57-21.3-17.14-32.05-3.07-5.92-5.53-12.15-8.5-18.12-3.88-7.79-7.99-15.47-12.02-23.19-4.16-7.95-8.34-15.88-12.51-23.82-3.32-6.32-6.69-12.61-9.92-18.98-2.78-5.47-5.34-11.05-8.08-16.55-2.8-5.62-5.72-11.19-8.57-16.79-4.43-8.71-8.8-17.45-13.29-26.13-3.07-5.92-6.45-11.69-9.41-17.66-3.49-7.04-6.69-14.23-10.48-22.35Z"/>
      <path class="cls-3" d="M382.48,410.16c-11.44,17.56-22.72,34.75-33.88,52.02-6.4,9.91-12.54,19.98-18.91,29.91-15.25,23.79-30.79,47.39-45.65,71.42-3.24,5.23-6.69,6.68-12.35,6.61-22.47-.25-44.95-.07-67.43-.19-1.98-.01-3.96-1.03-5.94-1.58.63-2.11.79-4.55,1.97-6.29,11.25-16.62,22.66-33.14,34.04-49.67,12.69-18.43,25.4-36.84,38.12-55.25,6.56-9.49,13.27-18.87,19.6-28.5.73-1.11.03-4.25-1.09-5.27-3.79-3.46-8.14-6.31-12.15-9.55-18.17-14.63-35.6-30.07-48.87-49.45-4.93-7.2-9.31-15.06-12.35-23.22-4.08-10.96-7.04-22.39-9.62-33.81-1.37-6.08-.91-12.58-1.32-18.88-1.01-15.57.43-30.99,4.37-46.01,8.78-33.48,27.85-59.34,57.96-77.05,13.17-7.75,27.28-13.01,41.78-17.1,8.7-2.46,17.89-3.27,26.91-4.5,45.6-6.18,91.44-1.5,137.15-3.13,5.13-.18,5.26,2.69,5.25,6.26-.04,16.31-.1,32.63-.1,48.94.02,122.35.05,244.7.08,367.05,0,7.06,0,7-7.21,7.01-20.32.04-40.64,0-60.95.31-4.76.07-4.53-2.55-4.52-5.7.05-32.63.1-65.25.11-97.88.01-85.73,0-171.46,0-257.19,0-11.06,0-11.41-11.16-10.98-17.11.66-34.28,1.1-51.26,3-22.92,2.57-41.67,13.66-54.56,32.8-4.49,6.67-6.34,15.3-8.57,23.27-4.38,15.63-1.89,31.44.41,47.02,1.87,12.7,7.26,24.34,14.7,34.85,11.07,15.65,25.31,27.91,41.13,38.6,13.72,9.27,27.02,19.16,40.49,28.8,1.07.76,2,1.72,3.83,3.31Z"/>
    </g>
  </g>
</svg>
