<svg width="15" height="15" viewBox="0 0 15 15" fill="none" xmlns="http://www.w3.org/2000/svg">
<path fill-rule="evenodd" clip-rule="evenodd" d="M5.5617 0.232065C9.50936 -0.780179 13.5544 1.61418 14.5666 5.56162C15.5787 9.50885 13.1847 13.5545 9.23729 14.5666C5.2894 15.5788 1.24416 13.1849 0.232138 9.237C-0.780326 5.28955 1.61425 1.24453 5.5617 0.232065Z" fill="#72B635"/>
<path fill-rule="evenodd" clip-rule="evenodd" d="M3.33024 3.54969C4.3093 3.77012 5.3055 3.90549 6.38499 3.94044C8.18488 3.9989 10.1489 3.94813 12.5011 3.94022L13.3243 3.93758C13.5199 3.9367 13.5758 4.15845 13.3602 4.21976L12.6347 4.42634C8.22202 5.75725 4.72861 7.6613 2.29316 11.6582C2.19602 11.8177 2.0301 11.7872 2.06263 11.5982C2.37843 9.76865 2.72171 7.89755 3.56517 6.22337C3.07531 5.5377 2.49381 4.74303 1.99428 3.62683C1.9378 3.50047 1.89407 3.41146 1.86528 3.333C1.79341 3.13763 1.93055 3.04313 2.09581 3.13016C2.2613 3.21741 2.87181 3.44684 3.33024 3.54969ZM12.2899 5.24541L13.2173 5.24036L14.0406 5.2375C14.2359 5.23706 14.2918 5.45859 14.0762 5.5199L13.3507 5.7267C8.93824 7.05739 5.57647 8.6975 3.14102 12.6948C3.0441 12.8539 2.88411 12.768 2.91071 12.5779C2.95356 12.2729 2.99641 11.9764 3.04235 11.6865C5.34638 8.33599 8.45959 6.52445 12.2899 5.24541Z" fill="#FEFEFE"/>
</svg>
