<svg width="11" height="11" viewBox="0 0 11 11" xmlns="http://www.w3.org/2000/svg" id="blog">
<path d="M4.58333 9.1665H0V10.0832H4.58333V9.1665Z"/>
<path d="M4.58333 6.4165H0V7.33317H4.58333V6.4165Z"/>
<path d="M10.0833 4.58333H0.916667C0.673552 4.58333 0.440394 4.48676 0.268485 4.31485C0.0965771 4.14294 0 3.90978 0 3.66667V0.916667C0 0.673551 0.0965771 0.440394 0.268485 0.268485C0.440394 0.0965771 0.673552 0 0.916667 0H10.0833C10.3264 0 10.5596 0.0965771 10.7315 0.268485C10.9034 0.440394 11 0.673551 11 0.916667V3.66667C11 3.90978 10.9034 4.14294 10.7315 4.31485C10.5596 4.48676 10.3264 4.58333 10.0833 4.58333ZM0.916667 0.916667V3.66667H10.0833V0.916667H0.916667Z"/>
<path d="M10.0819 10.9998H7.33195C7.08883 10.9998 6.85568 10.9033 6.68377 10.7314C6.51186 10.5594 6.41528 10.3263 6.41528 10.0832V7.33317C6.41528 7.09006 6.51186 6.8569 6.68377 6.68499C6.85568 6.51308 7.08883 6.4165 7.33195 6.4165H10.0819C10.3251 6.4165 10.5582 6.51308 10.7301 6.68499C10.902 6.8569 10.9986 7.09006 10.9986 7.33317V10.0832C10.9986 10.3263 10.902 10.5594 10.7301 10.7314C10.5582 10.9033 10.3251 10.9998 10.0819 10.9998ZM7.33195 7.33317V10.0832H10.0819V7.33317H7.33195Z"/>
</svg>
