<svg width="9" height="11" viewBox="0 0 9 11" xmlns="http://www.w3.org/2000/svg" id="blog">
<path d="M1.42105 8.84783H9V0H1.42105C0.637342 0 0 0.6435 0 1.43478V9.66494C0 10.4012 0.637342 11 1.42105 11H9V10.5217H1.42105C0.907579 10.5217 0.473684 10.1293 0.473684 9.66494C0.473684 9.20676 0.889816 8.84783 1.42105 8.84783ZM7.27318 7.10361C7.227 7.15048 7.16613 7.17391 7.10526 7.17391C7.04487 7.17391 6.98424 7.15072 6.93829 7.10409L5.39337 5.55117L4.97653 5.97204L4.53932 5.52272L5.28608 4.76874L7.27247 6.76524C7.36508 6.8585 7.36555 7.00987 7.27318 7.10361ZM2.43616 1.91472L4.26766 3.77539L3.54671 4.5033L2.42289 3.34783C2.02926 2.95039 2.03542 2.3045 2.43616 1.91472ZM1.97266 6.76572L5.05729 3.65128C5.04924 3.63096 5.03763 3.6123 5.03195 3.59102C4.93745 3.23017 4.95568 2.77176 5.27945 2.4487C5.76047 1.94796 6.58137 1.73393 6.93687 2.0888C7.29237 2.46448 7.07803 3.2627 6.597 3.74263C6.255 4.08411 5.8159 4.11209 5.46016 4.02002C5.43553 4.01357 5.41374 4.00065 5.39053 3.99085L2.07071 7.10385C2.02453 7.15048 2.20074 7.17391 2.14011 7.17391C2.07947 7.17391 2.01884 7.15048 1.97266 7.10385C1.88005 7.01035 1.88005 6.85922 1.97266 6.76572Z"/>
</svg>
