<svg width="12" height="9" viewBox="0 0 12 9" xmlns="http://www.w3.org/2000/svg" id="blog">
<path d="M8.1412 7.09254C8.1412 8.10375 8.96047 8.92302 9.97169 8.92302C10.9829 8.92302 11.8022 8.10375 11.8022 7.09254C11.8022 6.08132 10.9829 5.26205 9.97169 5.26205C8.96047 5.26205 8.1412 6.08132 8.1412 7.09254ZM9.37245 7.09254C9.37245 6.76483 9.6393 6.49798 9.967 6.49798C10.2947 6.49798 10.5616 6.76483 10.5616 7.09254C10.5616 7.42025 10.2947 7.68709 9.967 7.68709C9.6393 7.68709 9.37245 7.42025 9.37245 7.09254ZM0 6.7976C0 7.96799 0.950353 8.91834 2.12074 8.91834C3.29112 8.91834 4.24148 7.96799 4.24148 6.7976C4.24148 5.62721 3.29112 4.67686 2.12074 4.67686C0.950353 4.67686 0 5.62721 0 6.7976ZM1.23593 6.7976C1.23593 6.6712 1.26402 6.54948 1.31083 6.4418C1.4466 6.12814 1.76026 5.91279 2.12074 5.91279C2.48122 5.91279 2.79488 6.13282 2.93065 6.4418C2.97746 6.54948 3.00555 6.6712 3.00555 6.7976C3.00555 7.28448 2.60762 7.68241 2.12074 7.68241C1.63386 7.68241 1.23593 7.28916 1.23593 6.7976ZM4.57387 6.4418H7.87904C8.15525 5.55231 8.98856 4.90626 9.967 4.90626V3.3988C9.967 3.0196 9.65802 2.71061 9.27882 2.71061H8.55318V0.627327H7.96799V2.71061H5.84257L4.83135 0.257485C4.76113 0.102994 4.60664 0 4.4381 0H1.51682V2.71061L0.458791 3.67969V4.96244C0.898856 4.5645 1.48405 4.32106 2.12542 4.32106C3.36603 4.32106 4.40065 5.24333 4.57387 6.4418ZM2.12074 2.71061V0.603919H4.30702L5.06543 2.71061H2.12074Z"/>
</svg>
