<svg viewBox="0 0 11 14" xmlns="http://www.w3.org/2000/svg" id="blog">
<path d="M2.87179 2.96973C2.20275 2.96973 1.65845 3.51403 1.65845 4.18307C1.65845 4.8521 2.20275 5.39641 2.87179 5.39641C3.54082 5.39641 4.08513 4.8521 4.08513 4.18307C4.08513 3.51403 3.54082 2.96973 2.87179 2.96973ZM2.87179 5.00985C2.41591 5.00985 2.04501 4.63897 2.04501 4.18307C2.04501 3.72719 2.41589 3.35629 2.87179 3.35629C3.32767 3.35629 3.69857 3.72717 3.69857 4.18307C3.69857 4.63895 3.32767 5.00985 2.87179 5.00985Z"/>
<path d="M8.03341 6.23926C7.36438 6.23926 6.82007 6.78357 6.82007 7.4526C6.82007 8.12164 7.36438 8.66594 8.03341 8.66594C8.70245 8.66594 9.24675 8.12164 9.24675 7.4526C9.24675 6.78357 8.70242 6.23926 8.03341 6.23926ZM8.03341 8.27936C7.57753 8.27936 7.20663 7.90848 7.20663 7.45257C7.20663 6.9967 7.57751 6.62579 8.03341 6.62579C8.48929 6.62579 8.86019 6.99667 8.86019 7.45257C8.86017 7.90848 8.48929 8.27936 8.03341 8.27936Z"/>
<path d="M10.6404 1.64601C10.546 1.55156 10.494 1.42604 10.494 1.29252C10.494 0.803701 10.0963 0.406057 9.6075 0.406057C9.47395 0.406057 9.34844 0.354051 9.25401 0.259622V0.259648C9.0866 0.0922176 8.86399 0 8.62719 0C8.39042 0 8.16781 0.0922176 8.00038 0.259648C7.90595 0.354077 7.78043 0.406083 7.64688 0.406083C7.15809 0.406083 6.76042 0.803752 6.76042 1.29255C6.76042 1.42607 6.70842 1.55161 6.61401 1.64601C6.44658 1.81344 6.35436 2.03606 6.35436 2.27283C6.35436 2.5096 6.44658 2.73221 6.61401 2.89962C6.67568 2.96128 6.71884 3.03637 6.74166 3.11814C6.64034 3.31231 6.29954 4.02077 5.95774 5.35866C5.70978 6.32933 5.42949 7.77345 5.2752 9.72151C5.10747 8.80088 4.88595 8.065 4.68418 7.5201C4.41978 6.80595 4.15576 6.31614 3.98774 6.03964C4.41385 5.97543 4.74162 5.60687 4.74162 5.16314C4.74162 5.02962 4.79363 4.9041 4.88806 4.80968C5.05549 4.64224 5.14771 4.41963 5.14771 4.18286C5.14771 3.94609 5.05549 3.72348 4.88806 3.55607C4.79363 3.46162 4.74162 3.3361 4.74162 3.20255C4.74162 2.71376 4.34395 2.31612 3.85516 2.31612C3.72161 2.31612 3.5961 2.26411 3.50169 2.16968C3.15606 1.82409 2.5937 1.82404 2.24806 2.16968C2.15363 2.26411 2.02812 2.31612 1.8946 2.31612C1.4058 2.31612 1.00813 2.71378 1.00813 3.20255C1.00813 3.3361 0.956128 3.46162 0.861699 3.55605C0.694268 3.72348 0.602051 3.94609 0.602051 4.18286C0.602051 4.41963 0.694268 4.64225 0.861699 4.80965C0.956128 4.9041 1.00813 5.02962 1.00813 5.16314C1.00813 5.65191 1.4058 6.04955 1.8946 6.04955C2.02812 6.04955 2.15363 6.10156 2.24806 6.19596C2.41549 6.36342 2.63811 6.45564 2.87488 6.45564C3.11165 6.45564 3.33426 6.36342 3.50169 6.19599C3.52772 6.16996 3.55627 6.14752 3.58657 6.12815C3.72937 6.34911 4.03055 6.86304 4.32908 7.67432C4.39243 7.84648 4.4578 8.03876 4.52277 8.25009C4.22261 8.1808 3.77036 8.13134 3.33838 8.29773C2.61762 8.57524 2.25762 9.33627 2.24262 9.36852C2.22056 9.41603 2.21873 9.47045 2.23757 9.51935C2.25638 9.56821 2.29422 9.60738 2.34247 9.62782C2.36542 9.63755 2.75473 9.79939 3.23396 9.79939C3.43792 9.79939 3.65822 9.77003 3.87339 9.68719C4.26353 9.53697 4.54776 9.24522 4.72897 9.00395C4.96655 9.98781 5.15757 11.263 5.15757 12.8209C5.15757 12.9277 5.24412 13.0142 5.35085 13.0142C5.45758 13.0142 5.54413 12.9277 5.54413 12.8209C5.54413 11.9176 5.71527 11.1822 5.91557 10.6306C6.11475 10.8654 6.44577 11.1728 6.8884 11.2977C7.04419 11.3417 7.20003 11.3592 7.34934 11.3592C7.91238 11.3592 8.38257 11.1106 8.40732 11.0973C8.45346 11.0725 8.48752 11.03 8.50178 10.9796C8.51601 10.9292 8.50917 10.8752 8.48284 10.8299C8.46495 10.7992 8.03622 10.0746 7.29296 9.86482C6.91494 9.75808 6.53682 9.80747 6.25218 9.88393C6.42241 9.57428 6.58412 9.35823 6.68236 9.23884C6.79474 9.29049 6.91959 9.31949 7.05113 9.31949C7.18465 9.31949 7.31017 9.3715 7.4046 9.4659C7.57203 9.63336 7.79464 9.72557 8.03141 9.72557C8.26818 9.72557 8.4908 9.63336 8.65823 9.46593C8.75266 9.3715 8.87817 9.31949 9.01172 9.31949C9.50051 9.31949 9.89818 8.92182 9.89818 8.43305C9.89818 8.29951 9.95019 8.17399 10.0446 8.07956C10.3903 7.73392 10.3903 7.17157 10.0446 6.82593C9.95019 6.73148 9.89818 6.60596 9.89818 6.47241C9.89818 5.98362 9.50051 5.58598 9.01172 5.58598C8.87817 5.58598 8.75266 5.53397 8.65823 5.43954C8.49075 5.27211 8.26813 5.17992 8.03136 5.17992C7.79459 5.17992 7.57195 5.27214 7.40455 5.43957C7.31012 5.534 7.1846 5.586 7.05108 5.586C6.56228 5.586 6.16462 5.98367 6.16462 6.47244C6.16462 6.59587 6.1197 6.71216 6.03841 6.80366C6.13297 6.2908 6.23182 5.84995 6.32592 5.47942C6.53394 4.66027 6.74326 4.08058 6.89285 3.71852C7.04925 3.97102 7.3287 4.13965 7.64694 4.13965C7.78046 4.13965 7.90597 4.19166 8.0004 4.28611C8.17322 4.4589 8.40021 4.5453 8.62722 4.5453C8.85423 4.5453 9.08124 4.4589 9.25406 4.28608C9.34849 4.19165 9.474 4.13965 9.60752 4.13965C10.0963 4.13965 10.494 3.74198 10.494 3.25321C10.494 3.11966 10.546 2.99415 10.6404 2.89972C10.8078 2.73229 10.9 2.50968 10.9 2.2729C10.9 2.03606 10.8078 1.81342 10.6404 1.64601ZM3.22835 5.92269C3.13392 6.0171 3.0084 6.06913 2.87488 6.06913C2.74133 6.06913 2.61582 6.0171 2.52139 5.92267C2.35393 5.75526 2.13134 5.66304 1.89457 5.66304C1.61894 5.66304 1.39467 5.43878 1.39467 5.16314C1.39467 4.92637 1.30245 4.70378 1.13502 4.53633C1.04059 4.44192 0.988587 4.31641 0.988587 4.18286C0.988587 4.04931 1.04059 3.9238 1.13502 3.82937C1.30245 3.66194 1.39467 3.4393 1.39467 3.20255C1.39467 2.92692 1.61894 2.70268 1.89457 2.70268C2.13134 2.70268 2.35396 2.61046 2.52139 2.44303C2.61884 2.34557 2.74685 2.29682 2.87485 2.29682C3.00289 2.29682 3.13089 2.34555 3.22832 2.443C3.39575 2.61046 3.61836 2.70268 3.85516 2.70268C4.1308 2.70268 4.35506 2.92692 4.35506 3.20255C4.35506 3.43932 4.44728 3.66194 4.61471 3.82939C4.70914 3.9238 4.76114 4.04931 4.76114 4.18286C4.76114 4.31641 4.70914 4.44192 4.61471 4.53635C4.44728 4.70378 4.35506 4.9264 4.35506 5.16314C4.35506 5.43878 4.1308 5.66304 3.85516 5.66304C3.61839 5.66304 3.39578 5.75526 3.22835 5.92269ZM3.73447 9.32643C3.35922 9.47086 2.94567 9.40378 2.70325 9.3396C2.83934 9.12967 3.10011 8.80365 3.47724 8.65844C3.85239 8.51399 4.26592 8.58106 4.50846 8.6453C4.37237 8.8552 4.11161 9.18124 3.73447 9.32643ZM7.18788 10.2368C7.57444 10.3459 7.8651 10.6471 8.02081 10.8439C7.78516 10.9301 7.37989 11.0348 6.99341 10.9257C6.60682 10.8166 6.31611 10.5154 6.16045 10.3187C6.39607 10.2324 6.80134 10.1277 7.18788 10.2368ZM6.29156 7.09925C6.45899 6.93182 6.55118 6.70921 6.55118 6.47244C6.55118 6.1968 6.77544 5.97256 7.05108 5.97256C7.28785 5.97256 7.51044 5.88034 7.67789 5.71291C7.77232 5.61851 7.89784 5.56648 8.03139 5.56648C8.16491 5.56648 8.29043 5.61851 8.38485 5.71291V5.71294C8.55231 5.88034 8.7749 5.97256 9.01167 5.97256C9.2873 5.97256 9.51157 6.1968 9.51157 6.47244C9.51157 6.70921 9.60379 6.93182 9.77122 7.09928C9.96613 7.29419 9.96613 7.61131 9.77122 7.80624C9.60379 7.97367 9.51157 8.19631 9.51157 8.43305C9.51157 8.70869 9.2873 8.93293 9.01167 8.93293C8.7749 8.93293 8.55228 9.02515 8.38485 9.19258C8.29043 9.28698 8.16491 9.33901 8.03139 9.33901C7.89784 9.33901 7.77232 9.28698 7.67789 9.19255C7.51044 9.02515 7.28785 8.93293 7.05108 8.93293C6.77544 8.93293 6.55118 8.70869 6.55118 8.43305C6.55118 8.19628 6.45896 7.97367 6.29153 7.80621C6.1971 7.71181 6.1451 7.58629 6.1451 7.45275C6.1451 7.3192 6.19713 7.19366 6.29156 7.09925ZM6.16459 8.43305C6.16459 8.65043 6.24336 8.84966 6.37371 9.00403C6.19964 9.21563 5.88601 9.6513 5.62072 10.3112C5.67849 9.39618 5.76474 8.58488 5.86491 7.87444C5.9053 7.94889 5.95659 8.01795 6.01813 8.07951C6.11258 8.17396 6.16459 8.29951 6.16459 8.43305ZM10.367 2.62632C10.1996 2.79378 10.1074 3.01639 10.1074 3.25314C10.1074 3.52877 9.88313 3.75301 9.6075 3.75301C9.37073 3.75301 9.14809 3.84523 8.98068 4.01266C8.78578 4.20757 8.46863 4.20757 8.27373 4.01268C8.10629 3.84523 7.88368 3.75301 7.64688 3.75301C7.37125 3.75301 7.14698 3.52877 7.14698 3.25314C7.14698 3.01636 7.05477 2.79375 6.88733 2.62629C6.79291 2.53189 6.7409 2.40638 6.7409 2.27283C6.7409 2.13928 6.79291 2.01376 6.88733 1.91934C7.05477 1.75191 7.14696 1.52929 7.14696 1.29255C7.14696 1.01691 7.37122 0.792644 7.64686 0.792644C7.88363 0.792644 8.10622 0.700427 8.27367 0.532996C8.3681 0.438593 8.49362 0.386561 8.62714 0.386561C8.76069 0.386561 8.8862 0.438593 8.98063 0.532996C9.14809 0.700401 9.37068 0.792644 9.60745 0.792644C9.88309 0.792644 10.1074 1.01691 10.1074 1.29255C10.1074 1.52929 10.1996 1.75188 10.367 1.91936C10.4614 2.01376 10.5134 2.13928 10.5134 2.27283C10.5134 2.40638 10.4615 2.53189 10.367 2.62632Z"/>
<path d="M8.62789 1.05957C7.95886 1.05957 7.41455 1.60388 7.41455 2.27291C7.41455 2.94195 7.95886 3.48625 8.62789 3.48625C9.29693 3.48625 9.84124 2.94195 9.84124 2.27291C9.84124 1.60388 9.29693 1.05957 8.62789 1.05957ZM8.62789 3.09967C8.17202 3.09967 7.80111 2.72879 7.80111 2.27289C7.80111 1.81701 8.17199 1.44611 8.62789 1.44611C9.08377 1.44611 9.45467 1.81698 9.45467 2.27289C9.45467 2.72879 9.08377 3.09967 8.62789 3.09967Z"/>
</svg>
