<svg viewBox="0 0 12 12" xmlns="http://www.w3.org/2000/svg" id="blog">
<path d="M5.6744 7.99997C2.79442 7.99997 2.28423 5.12973 2.19385 2.85323C2.16871 2.21998 2.15614 1.90336 2.394 1.61041C2.63185 1.31747 2.91654 1.26943 3.4859 1.17337C4.04793 1.07854 4.7826 1 5.6744 1C6.56615 1 7.30084 1.07854 7.86284 1.17337C8.43224 1.26943 8.71689 1.31747 8.95474 1.61041C9.19264 1.90336 9.18004 2.21998 9.15489 2.85323C9.06454 5.12973 8.55434 7.99997 5.6744 7.99997Z" stroke-width="0.749997"/>
<path d="M5.67285 8V9.49999" stroke-width="0.749997" stroke-linecap="round"/>
<path d="M7.42235 11H3.92236L4.09197 10.1519C4.13872 9.91825 4.34392 9.75 4.58226 9.75H6.76245C7.0008 9.75 7.206 9.91825 7.25275 10.1519L7.42235 11Z" stroke-width="0.749997" stroke-linecap="round" stroke-linejoin="round"/>
<path d="M9.17431 2.5L9.64861 2.6581C10.1437 2.82311 10.3912 2.90562 10.5327 3.10204C10.6743 3.29846 10.6743 3.55936 10.6743 4.08116V4.11743C10.6743 4.5478 10.6743 4.76298 10.5707 4.93903C10.4671 5.11509 10.279 5.21959 9.90276 5.42859L8.42432 6.24998" stroke-width="0.749997"/>
<path d="M2.1733 2.5L1.699 2.6581C1.20397 2.82311 0.956454 2.90562 0.814889 3.10204C0.67332 3.29846 0.673325 3.55936 0.67334 4.08116V4.11743C0.673355 4.5478 0.67336 4.76298 0.776955 4.93903C0.880544 5.11509 1.06865 5.21959 1.44486 5.42859L2.9233 6.24998" stroke-width="0.749997"/>
<path d="M5.24702 3.01125C5.43702 2.67042 5.53201 2.5 5.67406 2.5C5.81611 2.5 5.91111 2.67042 6.10111 3.01125L6.15026 3.09943C6.20421 3.19629 6.23121 3.24472 6.27331 3.27667C6.31541 3.30862 6.36781 3.32048 6.47266 3.3442L6.56811 3.3658C6.93706 3.44928 7.12156 3.49102 7.16546 3.63216C7.20936 3.77329 7.08356 3.92035 6.83206 4.21448L6.76696 4.29058C6.69551 4.37416 6.65976 4.41595 6.64366 4.46765C6.62761 4.51935 6.63301 4.57511 6.64381 4.68663L6.65366 4.78815C6.69166 5.18059 6.71071 5.37679 6.59581 5.46404C6.48086 5.55124 6.30816 5.47174 5.96271 5.31269L5.87336 5.27154C5.77516 5.22634 5.72611 5.20374 5.67406 5.20374C5.62201 5.20374 5.57296 5.22634 5.47477 5.27154L5.38542 5.31269C5.03997 5.47174 4.86727 5.55124 4.75232 5.46404C4.63744 5.37679 4.65645 5.18059 4.69447 4.78815L4.70432 4.68663C4.71512 4.57511 4.72052 4.51935 4.70447 4.46765C4.68837 4.41595 4.65263 4.37416 4.58116 4.29058L4.51608 4.21448C4.26456 3.92035 4.1388 3.77329 4.18269 3.63216C4.22658 3.49102 4.41105 3.44928 4.78002 3.3658L4.87547 3.3442C4.98032 3.32048 5.03272 3.30862 5.07482 3.27667C5.11692 3.24472 5.14392 3.19629 5.19787 3.09943L5.24702 3.01125Z" stroke-width="0.749997"/>
<path d="M8.67258 11H2.67261" stroke-width="0.749997" stroke-linecap="round"/>
</svg>
