<svg viewBox="0 0 12 8" xmlns="http://www.w3.org/2000/svg" id="blog">
<path d="M12 3.94211C12 4.09147 11.9407 4.23471 11.8351 4.34032C11.7294 4.44593 11.5862 4.50527 11.4368 4.50527C11.2875 4.50527 11.1442 4.44593 11.0386 4.34032C10.933 4.23471 10.8737 4.09147 10.8737 3.94211V2.07317L7.73802 5.80579C7.65402 5.90591 7.53781 5.9737 7.40931 5.99753C7.28081 6.02137 7.14802 5.99977 7.03369 5.93644L4.02568 4.26499L0.947076 7.34359C0.84032 7.44306 0.69912 7.49722 0.553224 7.49464C0.407327 7.49207 0.268126 7.43297 0.164945 7.32979C0.061765 7.22661 0.00266191 7.0874 8.77378e-05 6.94151C-0.00248643 6.79561 0.0516693 6.65441 0.151146 6.54766L3.5301 3.1687C3.61654 3.08218 3.7288 3.02615 3.84991 3.00908C3.97102 2.99201 4.09439 3.01483 4.20138 3.07409L7.17486 4.72603L10.1979 1.12632H8.05789C7.90853 1.12632 7.76529 1.06698 7.65968 0.961372C7.55407 0.855759 7.49473 0.712517 7.49473 0.563159C7.49473 0.4138 7.55407 0.270558 7.65968 0.164945C7.76529 0.0593325 7.90853 0 8.05789 0H11.4368C11.5862 0 11.7294 0.0593325 11.8351 0.164945C11.9407 0.270558 12 0.4138 12 0.563159V3.94211Z"/>
</svg>
