<svg viewBox="0 0 12 5" xmlns="http://www.w3.org/2000/svg" id="blog">
<path d="M10.2593 4.96213C10.0583 4.96213 9.86407 4.93928 9.67673 4.89359C9.49396 4.84789 9.32718 4.77935 9.17639 4.68797C9.0256 4.59201 8.89766 4.47092 8.79257 4.32471C8.68747 4.17849 8.61437 4.00486 8.57324 3.80381H9.17639C9.22665 3.93175 9.30662 4.04141 9.41628 4.1328C9.52594 4.22418 9.64931 4.29501 9.78639 4.34527C9.92804 4.39096 10.0674 4.41381 10.2045 4.41381C10.4284 4.41381 10.6271 4.37725 10.8008 4.30415C10.979 4.23104 11.1206 4.11909 11.2257 3.9683C11.3308 3.81294 11.3834 3.61418 11.3834 3.37201C11.3834 3.03845 11.2828 2.78257 11.0818 2.60436C10.8807 2.42616 10.6203 2.33706 10.3004 2.33706C10.1085 2.33706 9.93033 2.37133 9.76583 2.43987C9.60591 2.50841 9.45969 2.60208 9.32718 2.72088H8.71032L8.92965 0.0546875H11.8289V0.603004H9.46426L9.32718 2.12458C9.45055 2.02406 9.60134 1.9441 9.77954 1.8847C9.95774 1.82073 10.1771 1.78874 10.4375 1.78874C10.7482 1.78874 11.0201 1.85271 11.2531 1.98065C11.4907 2.10859 11.6735 2.28908 11.8015 2.52211C11.934 2.75058 12.0002 3.02245 12.0002 3.33774C12.0002 3.67587 11.9225 3.96602 11.7672 4.20819C11.6164 4.45036 11.4085 4.6377 11.1435 4.77022C10.883 4.89816 10.5883 4.96213 10.2593 4.96213Z"/>
<path d="M6.1201 4.95542C5.79111 4.95542 5.50781 4.89373 5.27021 4.77036C5.03718 4.64242 4.84526 4.47107 4.69448 4.25631C4.54826 4.03699 4.44088 3.79024 4.37234 3.51608C4.3038 3.23736 4.26953 2.94492 4.26953 2.63878C4.26953 2.2778 4.3038 1.93967 4.37234 1.62439C4.44545 1.30454 4.5574 1.02353 4.70818 0.781352C4.86354 0.539179 5.06459 0.349552 5.31133 0.212473C5.55808 0.0708244 5.85508 0 6.20235 0C6.43538 0 6.65243 0.0411238 6.85348 0.123371C7.05909 0.20105 7.2373 0.319852 7.38809 0.479777C7.53887 0.635134 7.65082 0.827045 7.72393 1.05551H7.10022C7.01797 0.886446 6.89231 0.758505 6.72325 0.671688C6.55419 0.584872 6.37827 0.541463 6.1955 0.541463C5.98531 0.541463 5.80482 0.582587 5.65403 0.664835C5.50324 0.742513 5.3753 0.847607 5.27021 0.980117C5.16969 1.11263 5.08744 1.26341 5.02347 1.43248C4.96407 1.60154 4.92066 1.77746 4.89324 1.96023C4.86583 2.14301 4.85212 2.32121 4.85212 2.49484C4.95721 2.33492 5.0783 2.20469 5.21538 2.10417C5.35703 2.00364 5.5101 1.93053 5.67459 1.88484C5.84366 1.83458 6.01501 1.80945 6.18864 1.80945C6.50849 1.80945 6.78494 1.8757 7.01797 2.00821C7.25557 2.13615 7.44063 2.31664 7.57314 2.54967C7.70565 2.77814 7.77191 3.04316 7.77191 3.34473C7.77191 3.66459 7.70108 3.9456 7.55943 4.18777C7.41779 4.42995 7.22131 4.61957 6.96999 4.75665C6.72325 4.88916 6.43995 4.95542 6.1201 4.95542ZM6.10639 4.41395C6.31201 4.41395 6.4925 4.37054 6.64786 4.28373C6.80778 4.19234 6.93344 4.07125 7.02482 3.92047C7.11621 3.76511 7.1619 3.59376 7.1619 3.40642C7.1619 3.20537 7.1185 3.02717 7.03168 2.87181C6.94486 2.71645 6.82378 2.59308 6.66842 2.5017C6.51763 2.41031 6.33943 2.36462 6.13381 2.36462C5.94647 2.36462 5.76826 2.40803 5.5992 2.49484C5.43014 2.57709 5.29306 2.69589 5.18796 2.85125C5.08744 3.00204 5.03718 3.18252 5.03718 3.39271C5.03718 3.58462 5.08287 3.75826 5.17425 3.91361C5.27021 4.0644 5.39815 4.18549 5.55808 4.27687C5.72257 4.36826 5.90534 4.41395 6.10639 4.41395Z"/>
<path d="M1.76832 4.95542C1.57641 4.95542 1.38222 4.93714 1.18574 4.90058C0.993825 4.85946 0.813337 4.79549 0.644273 4.70867C0.479778 4.62186 0.338129 4.50534 0.219327 4.35912C0.105094 4.2129 0.0319852 4.03242 0 3.81766H0.616857C0.671689 3.97302 0.763075 4.0941 0.891015 4.18092C1.01896 4.26774 1.1606 4.32942 1.31596 4.36598C1.47589 4.39796 1.62896 4.41395 1.77518 4.41395C1.88027 4.41395 1.9945 4.40481 2.11787 4.38654C2.24125 4.36826 2.36005 4.32942 2.47428 4.27002C2.59308 4.21062 2.68904 4.1238 2.76215 4.00957C2.83526 3.89077 2.87181 3.73541 2.87181 3.5435C2.87181 3.36073 2.83754 3.21451 2.769 3.10485C2.70046 2.99061 2.60908 2.90608 2.49484 2.85125C2.38061 2.79185 2.25267 2.75301 2.11102 2.73473C1.97394 2.71645 1.83458 2.70732 1.69293 2.70732H1.22686V2.17271H1.50787C1.6678 2.17271 1.81859 2.159 1.96023 2.13158C2.10188 2.0996 2.22754 2.05162 2.3372 1.98765C2.44687 1.92368 2.5314 1.83915 2.5908 1.73405C2.65477 1.62896 2.68675 1.49873 2.68675 1.34338C2.68675 1.11948 2.63878 0.950416 2.54282 0.836183C2.45143 0.721951 2.33263 0.644273 2.18641 0.603149C2.0402 0.562025 1.88712 0.541463 1.7272 0.541463C1.59926 0.541463 1.46675 0.562025 1.32967 0.603149C1.19716 0.639703 1.07836 0.701389 0.973263 0.788206C0.868169 0.870454 0.797345 0.982402 0.76079 1.12405H0.164495C0.191911 0.923001 0.255881 0.751651 0.356406 0.610003C0.456931 0.468354 0.580302 0.351837 0.72652 0.260451C0.877308 0.169064 1.0418 0.10281 1.22001 0.0616857C1.40278 0.0205619 1.58784 0 1.77518 0C1.9808 0 2.17271 0.0228465 2.35091 0.0685396C2.53368 0.109663 2.69361 0.180488 2.83069 0.281013C2.96777 0.376968 3.07515 0.504909 3.15282 0.664835C3.23507 0.82476 3.2762 1.01896 3.2762 1.24742C3.2762 1.41649 3.24878 1.57184 3.19395 1.71349C3.13912 1.85514 3.05687 1.97851 2.9472 2.08361C2.84211 2.1887 2.7096 2.27552 2.54967 2.34406C2.75529 2.38061 2.92664 2.45372 3.06372 2.56338C3.20537 2.67305 3.31046 2.80784 3.379 2.96777C3.45211 3.12312 3.48867 3.29904 3.48867 3.49552C3.48867 3.80167 3.43384 4.05069 3.32417 4.2426C3.21451 4.43451 3.07286 4.58302 2.89923 4.68811C2.72559 4.78864 2.53825 4.85946 2.3372 4.90058C2.13615 4.93714 1.94653 4.95542 1.76832 4.95542Z"/>
</svg>
