<svg viewBox="0 0 12 10" xmlns="http://www.w3.org/2000/svg" id="blog">
<path d="M11.0094 8.07803H9.81224V3.91594H10.3717V6.69067C10.3717 6.81426 10.4719 6.91443 10.5954 6.91443C10.719 6.91443 10.8192 6.81426 10.8192 6.69067V3.91594H11.0094C11.133 3.91594 11.2332 3.81577 11.2332 3.69218C11.2332 3.56859 11.133 3.46842 11.0094 3.46842H8.81646V0.223764C8.81646 0.100177 8.71626 0 8.5927 0H2.64048C2.51691 0 2.41671 0.100177 2.41671 0.223764V3.46839H0.223764C0.100199 3.46839 0 3.56859 0 3.69218C0 3.81577 0.100199 3.91594 0.223764 3.91594H0.41396V8.07803H0.223764C0.100199 8.07803 0 8.17821 0 8.3018V9.17449C0 9.29808 0.100199 9.39826 0.223764 9.39826H11.0094C11.133 9.39826 11.2332 9.29808 11.2332 9.17449V8.3018C11.2332 8.17821 11.133 8.07803 11.0094 8.07803ZM8.81648 3.91594H9.36471V8.07803H8.81648V3.91594ZM2.86424 0.447528H8.36893V3.46839H7.83051V1.25309C7.83051 1.1295 7.73031 1.02933 7.60674 1.02933H3.62643C3.50286 1.02933 3.40266 1.1295 3.40266 1.25309V3.46839H2.86424V0.447528ZM8.36893 3.91594V8.07803H7.83051V3.91594H8.36893ZM5.82916 3.46839V1.47685H7.38296V3.46839H5.82916ZM7.38296 3.91594V8.07803H6.83611V3.91594H7.38296ZM6.38858 3.91594V8.07803H5.82916V3.91594H6.38858ZM3.85021 3.46839V1.47685H5.38163V3.46839H3.85021ZM5.38163 3.91594V8.07803H4.84459V3.91594H5.38163ZM4.39704 3.91594V8.07803H3.85021V3.91594H4.39704ZM2.86424 3.91594H3.40266V8.07803H2.86424V3.91594ZM1.84608 3.91594H2.41669V8.07803H1.84608V3.91594ZM0.86151 3.91594H1.39855V8.07803H0.86151V3.91594ZM10.7856 8.95073H0.447528V8.52558H10.7856L10.7856 8.95073Z"/>
</svg>
