<svg viewBox="0 0 13 10" fill="none" xmlns="http://www.w3.org/2000/svg" id="blog">
<path d="M2.94067 2.9502H8.76412" stroke-width="0.64705" stroke-linecap="round" stroke-linejoin="round"/>
<path fill-rule="evenodd" clip-rule="evenodd" d="M3.57557 4.91657L4.22262 4.90441C4.55439 4.89818 4.83253 5.14279 4.87594 5.46383L4.88182 5.55135V6.18758C4.88182 6.5402 4.59948 6.82789 4.24692 6.83452L3.59988 6.84667C3.2681 6.8529 2.98997 6.60829 2.94656 6.28725L2.94067 6.19973V5.5635C2.94067 5.21088 3.22302 4.92319 3.57557 4.91657Z" stroke-width="0.64705" stroke-linecap="round" stroke-linejoin="round"/>
<path fill-rule="evenodd" clip-rule="evenodd" d="M2.2941 1H9.41165C10.1264 1 10.7057 1.57939 10.7057 2.2941V8.77412H2.2941C1.57939 8.77412 1 8.19473 1 7.48002V2.2941C1 1.57939 1.57939 1 2.2941 1Z" stroke-width="0.64705" stroke-linecap="round" stroke-linejoin="round"/>
<path d="M6.17749 4.8916H8.76569" stroke-width="0.64705" stroke-linecap="round" stroke-linejoin="round"/>
<path d="M6.17749 6.83252H8.76569" stroke-width="0.64705" stroke-linecap="round" stroke-linejoin="round"/>
<path d="M10.3811 8.77413C11.2745 8.77413 11.9987 8.0499 11.9987 7.15651V2.95068H10.7046" stroke-width="0.64705" stroke-linecap="round" stroke-linejoin="round"/>
</svg>
