<svg viewBox="0 0 11 10" xmlns="http://www.w3.org/2000/svg" id="blog">
<path d="M9.02925 4.09603C9.02925 4.49527 8.69157 4.81901 8.27503 4.81901C7.85849 4.81901 7.52075 4.49527 7.52075 4.09603C7.52075 3.69673 7.85849 3.37305 8.27503 3.37305C8.69157 3.37305 9.02925 3.69673 9.02925 4.09603Z"/>
<path fill-rule="evenodd" clip-rule="evenodd" d="M8.77381 1.63924C8.201 1.56541 7.46904 1.56542 6.54493 1.56543H4.47691C3.5528 1.56542 2.82086 1.56541 2.24803 1.63924C1.6585 1.71521 1.18133 1.87528 0.805031 2.23598C0.428731 2.59667 0.26173 3.05404 0.18247 3.61912C0.105453 4.1682 0.105463 4.86978 0.105469 5.75551V5.80995C0.105463 6.69568 0.105453 7.39726 0.18247 7.94634C0.26173 8.51143 0.428731 8.96879 0.805031 9.32949C1.18133 9.6902 1.65849 9.85025 2.24803 9.92625C2.82086 10 3.5528 10 4.47691 10H6.54493C7.46904 10 8.201 10 8.77381 9.92625C9.36333 9.85025 9.84052 9.6902 10.2168 9.32949C10.5931 8.96879 10.7601 8.51143 10.8393 7.94634C10.9164 7.39726 10.9164 6.69568 10.9164 5.80995V5.75557C10.9164 4.86978 10.9164 4.1682 10.8393 3.61912C10.7601 3.05404 10.5931 2.59667 10.2168 2.23598C9.84052 1.87528 9.36333 1.71521 8.77381 1.63924ZM2.34853 2.35576C1.84263 2.42095 1.55117 2.54321 1.33837 2.74719C1.12556 2.95117 0.998012 3.23055 0.929995 3.71546C0.875438 4.10442 0.863227 4.59053 0.860502 5.22637L1.11501 5.01291C1.72264 4.50329 2.63844 4.53253 3.20936 5.07978L5.36638 7.14731C5.58233 7.35434 5.92233 7.38256 6.17222 7.21423L6.32217 7.11326C7.04137 6.62877 8.0144 6.68487 8.66781 7.24855L9.96928 8.37127C10.0225 8.22856 10.0626 8.05824 10.0918 7.85002C10.1613 7.35472 10.1621 6.70179 10.1621 5.78276C10.1621 4.86367 10.1613 4.21074 10.0918 3.71546C10.0238 3.23055 9.89625 2.95117 9.6835 2.74719C9.47068 2.54321 9.17922 2.42095 8.67333 2.35576C8.15656 2.28916 7.47542 2.28839 6.5166 2.28839H4.50524C3.54644 2.28839 2.86527 2.28916 2.34853 2.35576Z"/>
<path d="M8.25759 0.059671C7.79283 -1.59565e-05 7.20109 -1.05228e-05 6.46346 2.88092e-07H4.79334C4.05568 -1.05228e-05 3.46395 -1.59565e-05 2.99919 0.059671C2.51789 0.121477 2.11662 0.253165 1.79835 0.557167C1.6148 0.732493 1.49118 0.934241 1.40698 1.16178C1.67953 1.03746 1.98766 0.964192 2.33362 0.919381C2.91977 0.843451 3.66874 0.843456 4.61431 0.843462H6.73049C7.67607 0.843456 8.42499 0.843451 9.01116 0.919381C9.31332 0.958522 9.58662 1.01937 9.83257 1.11697C9.749 0.907668 9.62987 0.720898 9.45841 0.557167C9.14013 0.253165 8.73889 0.121477 8.25759 0.059671Z"/>
</svg>
