<svg width="16" height="18" viewBox="0 0 16 18" fill="none" xmlns="http://www.w3.org/2000/svg">
<path d="M2.52344 18V15.9H0.273438V13.35H2.52344V11.675H0.273438V9.04995H2.52344V0.324951H8.77344C9.75677 0.324951 10.6484 0.424951 11.4484 0.62495C12.2484 0.808284 12.9401 1.12495 13.5234 1.57495C14.1234 2.02495 14.5818 2.60828 14.8984 3.32495C15.2318 4.04162 15.3984 4.92495 15.3984 5.97495C15.3984 7.32495 15.1068 8.42495 14.5234 9.27495C13.9401 10.1083 13.1568 10.7166 12.1734 11.0999C11.1901 11.4833 10.0901 11.675 8.87344 11.675H5.64844V13.35H11.2984V15.9H5.64844V18H2.52344ZM5.64844 9.04995H8.64844C9.33177 9.04995 9.94844 8.94995 10.4984 8.74995C11.0484 8.54995 11.4818 8.23328 11.7984 7.79995C12.1151 7.34995 12.2734 6.75828 12.2734 6.02495C12.2734 4.99162 11.9818 4.25828 11.3984 3.82495C10.8151 3.39162 9.9401 3.17495 8.77344 3.17495H5.64844V9.04995Z" fill="white"/>
</svg>
