<svg width="25" height="19" viewBox="0 0 25 19" fill="none" xmlns="http://www.w3.org/2000/svg">
<path d="M14.9196 0H9.94614C5.25714 0 2.91265 -1.41561e-07 1.45595 1.39124C0.40713 2.39294 0.113473 3.83422 0.03125 6.23437H24.8345C24.7523 3.83422 24.4586 2.39294 23.4097 1.39124C21.9531 -1.41561e-07 19.6085 0 14.9196 0Z" fill="white"/>
<path d="M9.94687 19H14.9203C19.6093 19 21.9539 19 23.4105 17.6087C24.8672 16.2176 24.8672 13.9783 24.8672 9.5C24.8672 8.97524 24.8672 8.48112 24.8648 8.01562H0.00234988C-6.94781e-08 8.48112 0 8.97524 0 9.5C0 13.9783 1.4822e-07 16.2176 1.45668 17.6087C2.91338 19 5.25786 19 9.94687 19Z" fill="white"/>
<path fill-rule="evenodd" clip-rule="evenodd" d="M4.03906 14.2498C4.03906 13.7579 4.45657 13.3591 4.97158 13.3591H9.94502C10.46 13.3591 10.8775 13.7579 10.8775 14.2498C10.8775 14.7416 10.46 15.1404 9.94502 15.1404H4.97158C4.45657 15.1404 4.03906 14.7416 4.03906 14.2498Z" fill="#03A753"/>
<path fill-rule="evenodd" clip-rule="evenodd" d="M12.125 14.25C12.125 13.7581 12.5425 13.3594 13.0575 13.3594H14.9226C15.4376 13.3594 15.8551 13.7581 15.8551 14.25C15.8551 14.7419 15.4376 15.1406 14.9226 15.1406H13.0575C12.5425 15.1406 12.125 14.7419 12.125 14.25Z" fill="#03A753"/>
</svg>
