<svg width="21" height="17" viewBox="0 0 21 17" fill="none" xmlns="http://www.w3.org/2000/svg">
<path d="M20.4478 4.31933C20.2421 4.15514 19.9924 4.04954 19.727 4.01459C19.4616 3.97965 19.1913 4.01676 18.9469 4.12169L14.4023 6.05378L11.7562 1.49783C11.6317 1.28346 11.4496 1.10484 11.2286 0.980474C11.0077 0.856108 10.756 0.790527 10.4996 0.790527C10.2433 0.790527 9.99156 0.856108 9.77061 0.980474C9.54966 1.10484 9.36751 1.28346 9.24303 1.49783L6.59685 6.05369L2.05149 4.12136C1.80694 4.01742 1.5369 3.98085 1.27179 4.01575C1.00667 4.05066 0.757009 4.15565 0.5509 4.31892C0.344792 4.48219 0.190422 4.69725 0.105169 4.9399C0.0199159 5.18254 0.00716517 5.44312 0.0683519 5.69232L2.35445 15.0022C2.39795 15.1824 2.47941 15.3523 2.59384 15.5014C2.70828 15.6505 2.8533 15.7757 3.02003 15.8695C3.18764 15.9638 3.37337 16.025 3.56619 16.0494C3.75901 16.0738 3.95498 16.0609 4.14247 16.0114C8.30132 14.9132 12.6935 14.9127 16.8526 16.0102C17.04 16.0596 17.2358 16.0725 17.4286 16.0481C17.6213 16.0238 17.8069 15.9626 17.9745 15.8683C18.1411 15.7746 18.2861 15.6495 18.4005 15.5005C18.515 15.3515 18.5965 15.1818 18.64 15.0017L20.9301 5.69308C20.9924 5.44387 20.9802 5.18294 20.8949 4.94004C20.8097 4.69714 20.6547 4.48206 20.4478 4.31933ZM14.0894 11.9661C14.0797 12.0559 14.0515 12.143 14.0065 12.2224C13.9615 12.3018 13.9005 12.3719 13.8271 12.4288C13.7537 12.4856 13.6694 12.528 13.5788 12.5536C13.4883 12.5792 13.3933 12.5875 13.2994 12.5779C11.438 12.3909 9.56122 12.3909 7.6998 12.5779C7.51059 12.5963 7.32146 12.5422 7.17385 12.4275C7.02624 12.3128 6.93218 12.1468 6.91229 11.9658C6.89239 11.7849 6.94827 11.6038 7.06769 11.4622C7.18712 11.3206 7.36034 11.2301 7.54942 11.2104C9.51082 11.0134 11.4884 11.0134 13.4498 11.2104C13.5437 11.2199 13.6347 11.2469 13.7176 11.29C13.8006 11.3331 13.8738 11.3914 13.9332 11.4615C13.9926 11.5317 14.037 11.6124 14.0638 11.699C14.0906 11.7855 14.0993 11.8763 14.0894 11.9661Z" fill="white"/>
</svg>
