<svg width="18" height="26" viewBox="0 0 18 26" fill="none" xmlns="http://www.w3.org/2000/svg">
<path d="M8.99903 0.812501C7.15871 0.811794 5.36308 1.37942 3.85756 2.43779C2.35204 3.49617 1.21009 4.99365 0.587797 6.72555C-0.0344969 8.45746 -0.106771 10.3393 0.380854 12.1138C0.86848 13.8884 1.89221 15.469 3.31212 16.6397V24.375C3.3121 24.5135 3.3475 24.6497 3.41494 24.7707C3.48238 24.8917 3.57964 24.9934 3.69746 25.0662C3.81528 25.139 3.94976 25.1805 4.08813 25.1867C4.22649 25.1929 4.36415 25.1637 4.48802 25.1017L8.99892 22.8459L13.5113 25.1018C13.6352 25.1637 13.7728 25.1929 13.9112 25.1867C14.0495 25.1805 14.184 25.139 14.3018 25.0661C14.4196 24.9933 14.5168 24.8916 14.5843 24.7706C14.6517 24.6497 14.6871 24.5135 14.6871 24.375V16.6387C16.1067 15.4679 17.1301 13.8872 17.6175 12.1127C18.1049 10.3382 18.0324 8.45655 17.41 6.72482C16.7876 4.99309 15.6456 3.4958 14.1402 2.43757C12.6347 1.37934 10.8392 0.811793 8.99903 0.812501ZM8.99903 17.0625C7.55275 17.0625 6.13895 16.6336 4.93642 15.8301C3.73388 15.0266 2.79662 13.8846 2.24316 12.5484C1.68969 11.2122 1.54488 9.74189 1.82703 8.3234C2.10919 6.90492 2.80563 5.60195 3.82831 4.57928C4.85098 3.55661 6.15394 2.86016 7.57243 2.57801C8.99091 2.29585 10.4612 2.44067 11.7974 2.99413C13.1336 3.5476 14.2756 4.48486 15.0791 5.68739C15.8827 6.88993 16.3115 8.30372 16.3115 9.75C16.3093 11.6887 15.5382 13.5474 14.1673 14.9183C12.7964 16.2892 10.9377 17.0603 8.99903 17.0625Z" fill="white"/>
</svg>
