<svg width="15" height="15" viewBox="0 0 15 15" fill="none" xmlns="http://www.w3.org/2000/svg">
<path d="M6.15113 11.9004C6.80933 11.2389 7.87431 11.2389 8.53182 11.9004C9.19202 12.5629 9.19202 13.638 8.53182 14.3005C7.87431 14.9647 6.80933 14.9647 6.15113 14.3005C5.4965 13.638 5.4965 12.5629 6.15113 11.9004Z" fill="#E51A4B"/>
<path d="M8.98058 9.05029C8.32418 9.71174 8.32418 10.7861 8.98058 11.4503C9.63897 12.1108 10.7058 12.1108 11.3631 11.4503C12.0195 10.7861 12.0195 9.71174 11.3631 9.05029C10.7058 8.38884 9.63897 8.38884 8.98058 9.05029Z" fill="#E51A4B"/>
<path d="M11.8115 6.1997C11.154 6.86097 11.154 7.93625 11.8115 8.59682C12.469 9.26297 13.5349 9.26297 14.1932 8.59682C14.8489 7.93625 14.8489 6.86097 14.1932 6.1997C13.5349 5.5363 12.469 5.5363 11.8115 6.1997Z" fill="#E51A4B"/>
<path d="M3.32457 9.05029C2.66525 9.71174 2.66525 10.7868 3.32457 11.4503C3.98203 12.1108 5.04793 12.1108 5.70632 11.4503C6.3629 10.7868 6.3629 9.71174 5.70632 9.05029C5.04793 8.38884 3.98203 8.38884 3.32457 9.05029Z" fill="#E51A4B"/>
<path d="M0.493793 6.1997C-0.164598 6.86278 -0.164598 7.93625 0.493793 8.59682C1.15112 9.26297 2.21697 9.26297 2.87448 8.59682C3.53269 7.93625 3.53269 6.86278 2.87448 6.1997C2.21697 5.5363 1.15112 5.5363 0.493793 6.1997Z" fill="#E51A4B"/>
<path d="M6.15113 6.1997C5.4965 6.86097 5.4965 7.93625 6.15113 8.59682C6.80933 9.26297 7.87431 9.26297 8.5347 8.59682C9.19202 7.93625 9.19202 6.86097 8.5347 6.1997C7.87431 5.5363 6.80933 5.5363 6.15113 6.1997Z" fill="#E51A4B"/>
<path d="M3.32457 3.34856C2.66525 4.01159 2.66525 5.08506 3.32457 5.74851C3.98203 6.41104 5.04793 6.41104 5.70632 5.74851C6.3629 5.08506 6.3629 4.01159 5.70632 3.34856C5.04793 2.68492 3.98203 2.68492 3.32457 3.34856Z" fill="#E51A4B"/>
<path d="M8.98058 3.34856C8.32418 4.01159 8.32418 5.08506 8.98058 5.74851C9.63897 6.41104 10.7058 6.41104 11.3631 5.74851C12.0195 5.08506 12.0195 4.01159 11.3631 3.34856C10.7058 2.68492 9.63897 2.68492 8.98058 3.34856Z" fill="#E51A4B"/>
<path fill-rule="evenodd" clip-rule="evenodd" d="M6.15113 0.497449C6.80933 -0.165816 7.87431 -0.165816 8.5347 0.497449C9.19202 1.16085 9.19202 2.234 8.5347 2.89634C7.87431 3.55886 6.80933 3.55886 6.15113 2.89634C5.4965 2.234 5.4965 1.16085 6.15113 0.497449Z" fill="#B0CB1F"/>
</svg>
