<svg width="15" height="15" viewBox="0 0 15 15" fill="none" xmlns="http://www.w3.org/2000/svg">
<path d="M12.0832 0H2.91675C1.30587 0 0 1.30587 0 2.91675V12.0832C0 13.6941 1.30587 15 2.91675 15H12.0832C13.6941 15 15 13.6941 15 12.0832V2.91675C15 1.30587 13.6941 0 12.0832 0Z" fill="#1928DC"/>
<mask id="mask0_1_85211" style="mask-type:luminance" maskUnits="userSpaceOnUse" x="1" y="3" width="13" height="9">
<path d="M13.7551 3.72388H1.29688V11.3164H13.7551V3.72388Z" fill="white"/>
</mask>
<g mask="url(#mask0_1_85211)">
<path d="M3.39512 3.78027V7.18155H2.82823V4.26973H1.86375V7.18155H1.29688V3.78027H3.39512Z" fill="white"/>
<path d="M4.50042 7.04787C4.33059 6.89192 4.2071 6.69213 4.1435 6.4705C4.05042 6.15946 4.00614 5.83587 4.01228 5.51127C4.00627 5.17761 4.0505 4.84497 4.1435 4.52448C4.20595 4.29556 4.32929 4.08786 4.50042 3.92349C4.65005 3.79515 4.84066 3.72461 5.03777 3.72461C5.23489 3.72461 5.42551 3.79515 5.57512 3.92349C5.74717 4.08638 5.87033 4.29407 5.93074 4.52316C6.02386 4.84408 6.0681 5.17718 6.06196 5.51127C6.06806 5.8363 6.02379 6.16033 5.93074 6.47182C5.86877 6.69353 5.74605 6.89353 5.57644 7.04919C5.42386 7.17222 5.23378 7.23931 5.03777 7.23931C4.84178 7.23931 4.65169 7.17222 4.49912 7.04919L4.50042 7.04787ZM4.63952 6.18706C4.6617 6.33539 4.71636 6.47698 4.79961 6.60172C4.82582 6.64099 4.86107 6.6734 4.90239 6.69624C4.94372 6.71906 4.98993 6.73166 5.03712 6.73294C5.17753 6.73294 5.28775 6.63059 5.36912 6.42588C5.46326 6.12922 5.50413 5.81824 5.48984 5.50733C5.49345 5.27081 5.47499 5.03446 5.43472 4.80135C5.41355 4.64809 5.35938 4.50124 5.27595 4.37095C5.25253 4.32826 5.21807 4.29264 5.17617 4.26782C5.13427 4.24302 5.08646 4.22993 5.03777 4.22993C4.98908 4.22993 4.94128 4.24302 4.89939 4.26782C4.85749 4.29264 4.82302 4.32826 4.79961 4.37095C4.71717 4.50138 4.66266 4.64749 4.63952 4.80004C4.59877 5.03265 4.57987 5.26858 4.58309 5.50471C4.57951 5.73346 4.5984 5.96202 4.63952 6.18706Z" fill="white"/>
<path d="M7.82793 3.78027V5.08462H7.52743C7.41851 5.09059 7.30972 5.07081 7.20987 5.02689C7.13108 4.98506 7.07071 4.91533 7.0406 4.83136C7.00051 4.71453 6.98228 4.59132 6.98679 4.46788V3.78027H6.41992V4.46525C6.40344 4.76072 6.49172 5.05254 6.66925 5.28933C6.76246 5.39286 6.878 5.47384 7.00713 5.52613C7.13626 5.57842 7.27559 5.60065 7.41458 5.59114H7.82793V7.18155H8.39481V3.78027H7.82793Z" fill="white"/>
<path d="M10.8955 4.26973H10.2302V7.18155H9.66334V4.26973H8.99805V3.78027H10.8955V4.26973Z" fill="white"/>
<path d="M12.048 3.78043H12.502C12.6891 3.77032 12.875 3.81599 13.0361 3.91165C13.1767 4.0056 13.286 4.13951 13.3497 4.29614C13.4278 4.49043 13.4768 4.69514 13.4954 4.90369L13.7578 7.17515H13.191L13.0073 5.58867H12.0454V7.1817H11.4785V3.78043H12.048ZM12.048 5.10577H12.9535L12.9298 4.91024C12.9193 4.78461 12.8933 4.66076 12.8524 4.54151C12.8237 4.46128 12.7674 4.39385 12.6936 4.35124C12.5984 4.30562 12.4933 4.28484 12.3879 4.29089H12.048V5.10577Z" fill="white"/>
<path d="M1.9215 7.85875C2.1105 7.85374 2.29705 7.90242 2.4595 7.99916C2.61879 8.10053 2.74296 8.24852 2.81512 8.423C2.90729 8.64532 2.952 8.88444 2.94634 9.12503C2.95217 9.35261 2.91154 9.579 2.82692 9.79034C2.76424 9.95266 2.66289 10.0973 2.53167 10.2116C2.44295 10.2951 2.32788 10.3453 2.20624 10.3533C2.14324 10.3577 2.08003 10.3482 2.02108 10.3256C1.96213 10.3029 1.90887 10.2676 1.86506 10.2221V11.26H1.29688V7.85875H1.9215ZM1.89656 9.61975C1.91054 9.68053 1.9394 9.73689 1.98054 9.78377C1.99395 9.80026 2.01071 9.8137 2.02971 9.82321C2.04873 9.83271 2.06953 9.83806 2.09077 9.83888C2.14058 9.83612 2.18748 9.81454 2.22199 9.77852C2.27499 9.72343 2.31294 9.65566 2.33221 9.58168C2.3641 9.46862 2.3787 9.35138 2.37552 9.23395C2.37552 8.91639 2.33746 8.692 2.25873 8.56078C2.22649 8.50014 2.17797 8.44971 2.11862 8.41516C2.05927 8.38062 1.99145 8.36333 1.9228 8.36525H1.86506V9.35731C1.86332 9.44582 1.87392 9.53415 1.89656 9.61975Z" fill="white"/>
<path d="M3.57271 11.1247C3.40213 10.9688 3.27853 10.7684 3.21578 10.546C3.12261 10.235 3.07835 9.91138 3.08456 9.58677C3.07854 9.25355 3.12278 8.92132 3.21578 8.60129C3.2777 8.37254 3.40116 8.16513 3.57271 8.00161C3.72233 7.87328 3.91294 7.80273 4.11006 7.80273C4.30719 7.80273 4.49778 7.87328 4.64742 8.00161C4.8187 8.16459 4.94176 8.37163 5.00303 8.59998C5.09604 8.92091 5.14028 9.254 5.13425 9.58809C5.14267 9.91278 5.10061 10.2368 5.00958 10.5486C4.94794 10.7705 4.82518 10.9706 4.65528 11.126C4.50312 11.2499 4.31287 11.3176 4.11661 11.3176C3.92037 11.3176 3.73012 11.2499 3.57796 11.126L3.57271 11.1247ZM3.71311 10.2652C3.73612 10.4098 3.79029 10.5477 3.87189 10.6693C3.89786 10.7083 3.93268 10.7405 3.97352 10.7633C4.01436 10.7861 4.06003 10.7989 4.10678 10.8006C4.24675 10.8006 4.35698 10.6982 4.43746 10.4935C4.53291 10.1971 4.57424 9.88598 4.5595 9.57496C4.56306 9.33844 4.54462 9.10209 4.50438 8.86898C4.4826 8.71669 4.42847 8.57082 4.34561 8.4412C4.32219 8.3985 4.28773 8.36289 4.24583 8.33808C4.20393 8.31327 4.15612 8.30018 4.10743 8.30018C4.05874 8.30018 4.01095 8.31327 3.96905 8.33808C3.92715 8.36289 3.89268 8.3985 3.86927 8.4412C3.78667 8.5755 3.73345 8.72576 3.71311 8.88211C3.67249 9.11474 3.6536 9.35063 3.65669 9.58677C3.65338 9.81421 3.67229 10.0414 3.71311 10.2652Z" fill="white"/>
<path d="M5.52122 8.62775C5.65958 8.37148 5.87739 8.16703 6.14191 8.04513C6.45158 7.91067 6.78737 7.84702 7.12477 7.85881V8.36926C6.7206 8.36926 6.41222 8.4703 6.19833 8.675C5.98444 8.87971 5.87684 9.18282 5.87684 9.59356C5.87684 10.0043 5.98313 10.2759 6.19702 10.4675C6.41091 10.6591 6.7219 10.7562 7.12477 10.7562V11.2601C6.54476 11.2601 6.09729 11.1201 5.78237 10.8402C5.46742 10.5602 5.30996 10.1425 5.30996 9.58699C5.2975 9.25447 5.37022 8.92429 5.52122 8.62775Z" fill="white"/>
<path d="M7.42849 8.62766C7.56696 8.37099 7.78533 8.16645 8.05049 8.04504C8.35808 7.90937 8.69203 7.84392 9.02809 7.85345V8.3639C8.62524 8.3639 8.31686 8.46495 8.10166 8.66966C7.88646 8.87437 7.78017 9.18273 7.78017 9.5869C7.78017 9.99106 7.88646 10.2693 8.10035 10.4608C8.31425 10.6524 8.62524 10.7495 9.02677 10.7495V11.26C8.44677 11.26 7.9993 11.12 7.68437 10.8401C7.36944 10.5601 7.21197 10.1424 7.21197 9.5869C7.20113 9.25392 7.27566 8.9237 7.42849 8.62766Z" fill="white"/>
<path d="M9.86117 7.85882V9.07263L10.8243 8.26037L11.3912 7.78271V11.2601H10.8243V8.94534L9.86117 9.75761V11.2601H9.29297V7.85882H9.86117Z" fill="white"/>
<path d="M12.2251 7.85864V9.07244L13.1882 8.26018L13.7525 7.78516V11.2599H13.1856V8.94515L12.2225 9.75742V11.2599H11.6582V7.85864H12.2251Z" fill="white"/>
</g>
</svg>
