<svg width="21" height="17" viewBox="0 0 21 17" fill="none" xmlns="http://www.w3.org/2000/svg">
<path d="M20.4488 4.31933C20.2431 4.15514 19.9934 4.04954 19.728 4.01459C19.4626 3.97965 19.1923 4.01676 18.9479 4.12169L14.4033 6.05378L11.7572 1.49783C11.6327 1.28346 11.4505 1.10484 11.2296 0.980474C11.0087 0.856108 10.757 0.790527 10.5006 0.790527C10.2442 0.790527 9.99253 0.856108 9.77159 0.980474C9.55064 1.10484 9.36849 1.28346 9.24401 1.49783L6.59783 6.05369L2.05247 4.12136C1.80791 4.01742 1.53788 3.98085 1.27276 4.01575C1.00765 4.05066 0.757986 4.15565 0.551877 4.31892C0.345768 4.48219 0.191398 4.69725 0.106145 4.9399C0.0208925 5.18254 0.00814174 5.44312 0.0693285 5.69232L2.35543 15.0022C2.39893 15.1824 2.48038 15.3523 2.59482 15.5014C2.70926 15.6505 2.85427 15.7757 3.02101 15.8695C3.18862 15.9638 3.37435 16.025 3.56716 16.0494C3.75998 16.0738 3.95596 16.0609 4.14344 16.0114C8.3023 14.9132 12.6945 14.9127 16.8535 16.0102C17.0409 16.0596 17.2368 16.0725 17.4295 16.0481C17.6223 16.0238 17.8079 15.9626 17.9754 15.8683C18.1421 15.7746 18.2871 15.6495 18.4015 15.5005C18.5159 15.3515 18.5974 15.1818 18.641 15.0017L20.9311 5.69308C20.9934 5.44387 20.9812 5.18294 20.8959 4.94004C20.8106 4.69714 20.6557 4.48206 20.4488 4.31933ZM14.0904 11.9661C14.0806 12.0559 14.0524 12.143 14.0074 12.2224C13.9624 12.3018 13.9015 12.3719 13.8281 12.4288C13.7547 12.4856 13.6703 12.528 13.5798 12.5536C13.4892 12.5792 13.3943 12.5875 13.3004 12.5779C11.439 12.3909 9.5622 12.3909 7.70078 12.5779C7.51156 12.5963 7.32243 12.5422 7.17482 12.4275C7.02721 12.3128 6.93316 12.1468 6.91326 11.9658C6.89336 11.7849 6.94925 11.6038 7.06867 11.4622C7.18809 11.3206 7.36132 11.2301 7.5504 11.2104C9.5118 11.0134 11.4894 11.0134 13.4508 11.2104C13.5447 11.2199 13.6357 11.2469 13.7186 11.29C13.8016 11.3331 13.8748 11.3914 13.9342 11.4615C13.9936 11.5317 14.038 11.6124 14.0648 11.699C14.0916 11.7855 14.1003 11.8763 14.0904 11.9661Z" fill="white"/>
</svg>
