<svg width="26" height="26" viewBox="0 0 26 26" fill="none" xmlns="http://www.w3.org/2000/svg">
<path d="M13 15.4375C16.1411 15.4375 18.6875 12.8911 18.6875 9.75C18.6875 6.60888 16.1411 4.0625 13 4.0625C9.85888 4.0625 7.3125 6.60888 7.3125 9.75C7.3125 12.8911 9.85888 15.4375 13 15.4375Z" fill="white"/>
<path d="M13 0.812501C11.1597 0.811794 9.36406 1.37942 7.85854 2.43779C6.35302 3.49617 5.21107 4.99365 4.58877 6.72555C3.96648 8.45746 3.89421 10.3393 4.38183 12.1138C4.86946 13.8884 5.89319 15.469 7.3131 16.6397V24.375C7.31308 24.5135 7.34848 24.6497 7.41592 24.7707C7.48336 24.8917 7.58061 24.9934 7.69843 25.0662C7.81626 25.139 7.95074 25.1805 8.0891 25.1867C8.22747 25.1929 8.36513 25.1637 8.489 25.1017L12.9999 22.8459L17.5123 25.1018C17.6362 25.1637 17.7738 25.1929 17.9122 25.1867C18.0505 25.1805 18.185 25.139 18.3028 25.0661C18.4206 24.9933 18.5178 24.8916 18.5853 24.7706C18.6527 24.6497 18.6881 24.5135 18.6881 24.375V16.6387C20.1077 15.4679 21.1311 13.8872 21.6185 12.1127C22.1058 10.3382 22.0334 8.45655 21.411 6.72482C20.7886 4.99309 19.6466 3.4958 18.1412 2.43757C16.6357 1.37934 14.8402 0.811793 13 0.812501ZM13 17.0625C11.5537 17.0625 10.1399 16.6336 8.93739 15.8301C7.73486 15.0266 6.7976 13.8846 6.24413 12.5484C5.69067 11.2122 5.54585 9.74189 5.82801 8.3234C6.11016 6.90492 6.80661 5.60195 7.82928 4.57928C8.85195 3.55661 10.1549 2.86016 11.5734 2.57801C12.9919 2.29585 14.4622 2.44067 15.7984 2.99413C17.1346 3.5476 18.2766 4.48486 19.0801 5.68739C19.8836 6.88993 20.3125 8.30372 20.3125 9.75C20.3103 11.6887 19.5392 13.5474 18.1683 14.9183C16.7974 16.2892 14.9387 17.0603 13 17.0625Z" fill="white"/>
</svg>
