<svg width="23" height="18" viewBox="0 0 23 18" fill="none" xmlns="http://www.w3.org/2000/svg">
<path d="M22.425 12.375H21.85V8.57812C21.85 8.12813 21.6775 7.70625 21.3325 7.39687L17.7675 3.88125C17.4513 3.57187 17.02 3.375 16.56 3.375H14.95V1.6875C14.95 0.759375 14.1737 0 13.225 0H1.725C0.77625 0 0 0.759375 0 1.6875V12.9375C0 13.8656 0.77625 14.625 1.725 14.625H2.3C2.3 16.4813 3.8525 18 5.75 18C7.6475 18 9.2 16.4813 9.2 14.625H13.8C13.8 16.4813 15.3525 18 17.25 18C19.1475 18 20.7 16.4813 20.7 14.625H22.425C22.7412 14.625 23 14.3719 23 14.0625V12.9375C23 12.6281 22.7412 12.375 22.425 12.375ZM5.75 16.3125C4.80125 16.3125 4.025 15.5531 4.025 14.625C4.025 13.6969 4.80125 12.9375 5.75 12.9375C6.69875 12.9375 7.475 13.6969 7.475 14.625C7.475 15.5531 6.69875 16.3125 5.75 16.3125ZM17.25 16.3125C16.3013 16.3125 15.525 15.5531 15.525 14.625C15.525 13.6969 16.3013 12.9375 17.25 12.9375C18.1987 12.9375 18.975 13.6969 18.975 14.625C18.975 15.5531 18.1987 16.3125 17.25 16.3125ZM20.125 9H14.95V5.0625H16.5312L20.125 8.57812V9Z" fill="white"/>
</svg>
