<svg width="24" height="23" viewBox="0 0 24 23" fill="none" xmlns="http://www.w3.org/2000/svg">
<path d="M3.56869 22L16.9525 1.11185H20.6456L7.35043 22H3.56869ZM18.5775 22.2069C17.5926 22.2069 16.7358 22 16.0071 21.5864C15.298 21.1531 14.7366 20.5622 14.323 19.8137C13.9291 19.0653 13.7321 18.2085 13.7321 17.2433C13.7321 16.2388 13.9291 15.3623 14.323 14.6138C14.7366 13.8654 15.3078 13.2843 16.0366 12.8707C16.7654 12.4571 17.6222 12.2502 18.607 12.2502C19.5721 12.2502 20.3994 12.4571 21.0888 12.8707C21.7979 13.2646 22.3494 13.8358 22.7433 14.5843C23.1372 15.3131 23.3342 16.1797 23.3342 17.1842C23.3342 18.1888 23.1274 19.0653 22.7137 19.8137C22.3198 20.5622 21.7683 21.1531 21.0592 21.5864C20.3502 22 19.5229 22.2069 18.5775 22.2069ZM18.5479 19.4296C19.0206 19.4296 19.3949 19.3312 19.6706 19.1342C19.9661 18.9175 20.1729 18.6418 20.2911 18.3069C20.4092 17.9721 20.4683 17.6176 20.4683 17.2433C20.4683 16.8691 20.3994 16.5146 20.2615 16.1797C20.1433 15.8449 19.9464 15.579 19.6706 15.382C19.3949 15.1653 19.0206 15.057 18.5479 15.057C17.8388 15.057 17.3267 15.2835 17.0116 15.7365C16.6964 16.1896 16.5487 16.7017 16.5684 17.2729C16.5684 17.8441 16.726 18.3463 17.0411 18.7797C17.3563 19.213 17.8585 19.4296 18.5479 19.4296ZM5.75501 10.8026C4.77018 10.8026 3.91338 10.5957 3.18461 10.1821C2.47554 9.74879 1.92403 9.15789 1.5301 8.40942C1.15587 7.66095 0.96875 6.80415 0.96875 5.83902C0.96875 4.8345 1.16572 3.958 1.55965 3.20953C1.95358 2.46106 2.51493 1.88002 3.2437 1.46639C3.97247 1.05276 4.82927 0.845947 5.8141 0.845947C6.77923 0.845947 7.61634 1.05276 8.32541 1.46639C9.03449 1.86032 9.57614 2.43152 9.95038 3.17999C10.3443 3.90876 10.5413 4.77541 10.5413 5.77993C10.5413 6.76476 10.3443 7.64126 9.95038 8.40942C9.55645 9.15789 9.00494 9.74879 8.29587 10.1821C7.58679 10.5957 6.73984 10.8026 5.75501 10.8026ZM5.75501 8.02534C6.22773 8.02534 6.60196 7.92686 6.87772 7.72989C7.15347 7.51323 7.36028 7.23748 7.49816 6.90264C7.63603 6.5481 7.70497 6.19356 7.70497 5.83902C7.70497 5.46479 7.63603 5.11025 7.49816 4.77541C7.36028 4.44057 7.15347 4.17466 6.87772 3.9777C6.60196 3.76104 6.22773 3.6527 5.75501 3.6527C5.04594 3.6527 4.53383 3.87922 4.21868 4.33224C3.90354 4.78526 3.74596 5.28752 3.74596 5.83902C3.76566 6.41022 3.92323 6.92233 4.21868 7.37535C4.53383 7.80868 5.04594 8.02534 5.75501 8.02534Z" fill="white"/>
</svg>
