<svg viewBox="0 0 19 19" xmlns="http://www.w3.org/2000/svg" id="icon">
<path d="M14.2312 2.91797L13.8735 3.06813C13.3247 3.29779 13.0001 3.59701 12.7208 3.89955C12.9769 4.01879 13.2232 4.17117 13.4572 4.35335C13.9795 4.77844 14.3317 5.23776 14.6077 5.84725L15.0229 6.75816L14.0292 6.6356C13.317 6.54948 12.84 6.70847 12.3774 6.86195C12.1886 6.92599 11.9953 6.99003 11.7933 7.03419C11.8065 7.11811 11.8165 7.20313 11.8231 7.28704C11.8673 7.79053 11.7999 8.30174 11.6255 8.80633C11.3925 9.43901 11.0745 9.92041 10.5876 10.3797L10.2596 10.6878L9.88755 10.436C9.33438 10.0595 8.94241 9.63444 8.61669 9.05697C8.39917 8.65065 8.25895 8.2355 8.19933 7.8093C7.97187 7.84905 7.74663 7.85678 7.5258 7.86561C7.03998 7.88438 6.53649 7.90315 5.90162 8.2366L5.01499 8.70365L5.08014 7.70441C5.1232 7.03751 5.28992 6.48433 5.62337 5.91018C5.82543 5.57673 6.06282 5.28745 6.33665 5.04454C6.27371 4.98933 6.21188 4.93192 6.15115 4.8756C5.79341 4.54547 5.42352 4.20319 4.73785 3.99009L3.78057 3.69197L4.36686 3.17634C1.05666 4.17337 0 7.08498 0 10.3532C0 14.931 4.25314 18.642 9.5 18.642C14.7458 18.642 19 14.931 19 10.3532C19 6.97899 17.7821 3.77368 14.2312 2.91797Z"/>
<path d="M6.99248 5.22368C6.64467 5.46548 6.34656 5.78126 6.10696 6.17765C5.87178 6.58176 5.68186 7.04992 5.6388 7.72565C7.04437 6.98698 7.91995 7.55561 8.74033 6.9925C8.72266 7.16917 8.71824 7.34362 8.7337 7.51918C8.76351 7.94206 8.88497 8.35832 9.10469 8.76685C9.33435 9.17428 9.6402 9.57508 10.2022 9.95601C10.6946 9.49117 10.9331 9.0462 11.0955 8.60675C11.2478 8.16951 11.3019 7.74001 11.2633 7.31712C11.2401 7.04219 11.1772 6.77057 11.0789 6.50227C11.9677 6.63035 12.5993 5.88064 14.0965 6.06503C13.816 5.44782 13.4727 5.07682 13.1105 4.78202C12.7461 4.49605 12.3564 4.30724 11.9445 4.20456C11.8595 4.18247 11.7756 4.16702 11.6884 4.15377C12.2073 3.71874 12.5408 3.00436 13.6571 2.53841C13.1061 2.14203 12.6236 1.98966 12.1632 1.91457C11.7038 1.84722 11.2721 1.87593 10.8636 1.99186C10.4551 2.10449 10.0686 2.30213 9.70866 2.59472C9.57064 2.71176 9.43704 2.84647 9.30785 2.99442C8.8121 1.39232 8.2269 0.113726 8.1739 0L7.79077 0.177766C7.80291 0.20537 8.41461 1.53696 8.9203 3.18544C8.8938 3.16115 8.86509 3.13796 8.83639 3.11808C8.45104 2.86082 8.04803 2.70072 7.62956 2.62785C7.2133 2.55277 6.77827 2.56491 6.32889 2.67533C5.8773 2.79568 5.41246 2.99221 4.90234 3.43939C6.25491 3.86007 6.57511 4.71688 7.32041 5.02603C7.20778 5.08676 7.09737 5.1508 6.99248 5.22368ZM9.80361 4.40772C9.80913 4.40772 9.81465 4.41103 9.81907 4.41213C9.79919 4.42097 9.77822 4.43201 9.75834 4.44195C9.7727 4.4309 9.78815 4.41986 9.80361 4.40772Z"/>
</svg>
