<svg viewBox="0 0 22 24" xmlns="http://www.w3.org/2000/svg" id="icon">
<path d="M21.9961 10.7908C21.9961 10.4682 21.7272 10.2531 21.4405 10.271C20.6339 10.3427 19.9887 10.1097 19.5585 9.75125C19.9528 9.7154 20.383 9.69748 20.8311 9.69748C21.1358 9.69748 21.3688 9.46448 21.3688 9.15978C21.3688 8.85508 21.1358 8.62208 20.8311 8.62208C20.0245 8.62208 19.2897 8.67585 18.5727 8.80131C19.0208 7.81553 20.1321 7.54668 20.15 7.54668C20.4368 7.49291 20.6518 7.22406 20.5981 6.93729C20.5622 6.65052 20.2755 6.43544 19.9887 6.48921C19.3972 6.57882 17.7124 7.24199 17.3719 9.05224C16.655 9.23147 15.9739 9.4824 15.3645 9.75125C15.2928 9.10601 15.4003 8.12023 16.3861 7.54668C16.637 7.4033 16.7266 7.06275 16.5833 6.81183C16.4399 6.5609 16.0993 6.47128 15.8484 6.61467C14.2532 7.52876 14.1457 9.26732 14.3608 10.271C13.8231 10.5936 13.3391 10.9521 12.8911 11.3464C12.7477 10.5578 12.7118 9.28524 13.4288 8.67585C13.6618 8.47869 13.6797 8.13815 13.5004 7.92307C13.3033 7.69007 12.9807 7.67215 12.7477 7.85138C11.4213 8.96262 11.6902 11.221 12.0666 12.2247C11.7081 12.6369 11.3676 13.0671 11.1883 13.4972V8.80131C11.1883 8.04854 11.26 7.36745 11.4572 6.75806C11.6723 6.95521 11.8874 7.0986 12.1741 7.22406C12.5147 7.34953 12.8731 7.42122 13.2316 7.42122C13.6618 7.42122 14.074 7.3316 14.4145 7.15237C14.6834 7.00898 14.773 6.68636 14.6296 6.41751C14.4862 6.14866 14.1636 6.05905 13.8948 6.20243C13.5363 6.39959 12.9807 6.39959 12.5505 6.22036C12.3354 6.13074 12.0845 5.96943 11.9053 5.68266C12.425 4.84026 13.1958 4.15918 14.1636 3.69317C14.7192 4.49972 15.8305 5.23458 17.336 5.23458C17.6407 5.23458 17.8737 5.00157 17.8737 4.69688C17.8737 4.39218 17.6407 4.15918 17.336 4.15918C16.3323 4.15918 15.6154 3.72902 15.2032 3.28094C15.4182 3.20924 15.6333 3.15547 15.8663 3.1017H15.8842C16.6012 2.94039 17.3898 2.8687 18.2322 2.8687C18.5369 2.8687 18.7699 2.6357 18.7699 2.331C18.7699 2.0263 18.5369 1.7933 18.2322 1.7933C17.6228 1.7933 17.0493 1.82915 16.5116 1.90084C16.6908 1.50653 16.9955 1.11221 17.569 1.07637C17.8737 1.05844 18.0888 0.789595 18.0709 0.502822C18.053 0.216049 17.7841 -0.016954 17.4973 0.000969353C16.2786 0.108509 15.5437 1.09429 15.3107 2.15177C14.9343 2.24138 14.5938 2.36685 14.2532 2.49231C14.2353 2.49231 14.2174 2.49231 14.1995 2.51023C14.1815 2.51023 14.1636 2.52816 14.1457 2.52816C13.7335 2.70739 13.3391 2.90455 12.9807 3.11963C12.3713 2.49231 12.4609 1.64991 12.7477 1.20183C12.909 0.950905 12.8552 0.628285 12.6043 0.449052C12.3534 0.287742 12.0307 0.341512 11.8515 0.592439C11.26 1.47068 11.26 2.77908 12.1024 3.74694C11.6006 4.19502 11.1883 4.69688 10.8657 5.27042C10.8299 5.32419 10.794 5.37796 10.7582 5.44966C10.3459 6.22036 10.095 7.11652 10.0233 8.10231C9.55732 7.97684 8.87623 7.76176 8.10553 7.4033C8.10553 7.4033 8.08761 7.4033 8.08761 7.38537C7.76499 7.22406 7.42445 7.04483 7.06598 6.84767C7.47822 6.05905 7.72914 4.69688 7.06598 3.49602C6.92259 3.24509 6.59997 3.13755 6.33112 3.29886C6.0802 3.44225 5.97266 3.76486 6.13397 4.03371C6.58205 4.84026 6.40282 5.75435 6.18774 6.23828C5.45288 5.66474 4.7718 4.9478 4.26994 4.05164C5.04065 3.65732 5.86512 2.85078 5.88304 1.59614C5.88304 1.29145 5.65004 1.05844 5.36327 1.05844C5.36327 1.05844 5.36327 1.05844 5.34534 1.05844C5.05857 1.05844 4.80764 1.29145 4.80764 1.57822C4.78972 2.38477 4.2341 2.85078 3.82186 3.06586C3.55301 2.331 3.3917 1.4886 3.3917 0.538669C3.3917 0.233972 3.1587 0.000969353 2.854 0.000969353C2.54931 0.000969353 2.3163 0.233972 2.3163 0.538669C2.3163 0.968828 2.35215 1.36314 2.40592 1.75745C2.10122 1.61407 1.74276 1.38106 1.52768 0.986751C1.38429 0.717902 1.06167 0.628285 0.792821 0.771672C0.523971 0.950905 0.434355 1.27352 0.577741 1.54237C1.07959 2.43854 1.95784 2.88662 2.63892 2.99416C2.88985 3.8724 3.28416 4.64311 3.75017 5.30627C3.24831 5.44966 2.42384 5.50343 1.45598 5.09119C1.18713 4.98365 0.864514 5.10911 0.756974 5.37796C0.649434 5.64681 0.774897 5.96943 1.04375 6.07697C1.74276 6.36374 2.388 6.47128 2.96154 6.47128C3.58886 6.47128 4.10863 6.3279 4.48502 6.16659C4.95103 6.65052 5.45288 7.06275 5.95473 7.42122C5.99058 7.45707 6.02643 7.47499 6.06227 7.49291C6.33112 7.67215 6.59997 7.83346 6.86882 7.97684C6.43866 8.20985 5.73965 8.37116 4.73595 8.10231C4.44918 8.03061 4.1624 8.19192 4.07279 8.47869C4.00109 8.80131 4.18033 9.08809 4.4671 9.1777C4.91518 9.30317 5.32742 9.35694 5.72173 9.35694C6.70751 9.35694 7.53199 9.01639 8.03384 8.56831C8.87623 8.92678 9.75448 9.14186 10.1129 9.26732V17.3507C9.93371 17.046 9.73655 16.7593 9.55732 16.4725C9.52147 16.3829 9.44978 16.3112 9.39601 16.2574C9.19885 15.9706 8.98377 15.7018 8.76869 15.4509C9.55732 14.483 9.7724 13.0312 9.30639 11.7228C9.21678 11.436 8.89416 11.2927 8.62531 11.4002C8.33853 11.4898 8.19515 11.8124 8.28476 12.0813C8.64323 13.1029 8.42815 14.0528 7.99799 14.6622C7.6216 14.3038 7.19144 13.9632 6.70751 13.6227C6.67167 13.6048 6.65374 13.5689 6.6179 13.551H6.59997C6.52828 13.4972 6.45659 13.4614 6.38489 13.4255C6.47451 12.6369 6.45659 11.1134 5.3095 10.0022C5.09442 9.7871 4.75387 9.80502 4.55672 10.0201C4.34164 10.2352 4.35956 10.5757 4.57464 10.7729C5.2378 11.4181 5.36327 12.2784 5.36327 12.8878C4.80764 12.6369 4.18033 12.4397 3.49924 12.2964C3.28416 11.5257 2.53138 10.5578 0.613588 10.2889C0.326815 10.2531 0.0400417 10.4503 0.00419511 10.755C-0.0316515 11.0417 0.165505 11.3285 0.470201 11.3643C1.43806 11.4898 1.93991 11.8304 2.20876 12.135C1.95784 12.1171 1.70691 12.0992 1.45598 12.0992C1.15129 12.0992 0.918284 12.3322 0.918284 12.6369C0.918284 12.9416 1.15129 13.1746 1.45598 13.1746C1.83237 13.1746 2.20876 13.1925 2.56723 13.2463C2.19084 13.4793 1.67106 13.6227 1.0079 13.5331C0.721128 13.4972 0.434355 13.6944 0.398508 13.9812C0.362661 14.2679 0.559818 14.5547 0.846591 14.5905C1.04375 14.6264 1.22298 14.6264 1.40221 14.6264C2.65685 14.6264 3.46339 13.9812 3.87563 13.4972C4.4671 13.6585 5.0048 13.8736 5.48873 14.1425C5.52457 14.1783 5.56042 14.1962 5.61419 14.2142C5.05857 14.8952 4.18033 15.2537 3.03323 15.2537C2.72854 15.2537 2.49554 15.4867 2.49554 15.7914C2.49554 16.0961 2.72854 16.3291 3.03323 16.3291C4.87934 16.3291 5.93681 15.5763 6.52828 14.8056C6.92259 15.1103 7.29898 15.4329 7.6216 15.7914C7.6216 15.8093 7.63953 15.8093 7.63953 15.8273C7.65745 15.8452 7.65745 15.8452 7.67537 15.8631C7.90838 16.114 8.10553 16.365 8.30269 16.6338C7.89045 16.9743 7.13767 17.2611 5.90096 16.9564C5.61419 16.8847 5.32742 17.064 5.2378 17.3507C5.16611 17.6375 5.34534 17.9243 5.63211 18.0139C6.09812 18.1394 6.51036 18.1752 6.88675 18.1752C7.80084 18.1752 8.49984 17.8705 8.93 17.5479C9.70071 18.9101 10.1129 20.3798 10.1129 21.6344V22.5126C10.1129 22.8173 10.3459 23.0503 10.6506 23.0503C10.9553 23.0503 11.1883 22.8173 11.1883 22.5126V17.1357C11.1883 17.0998 11.1525 17.064 11.1525 17.0102C11.1525 15.4688 11.9411 13.784 13.3212 12.4577C13.9485 13.2463 14.9164 13.7123 15.938 13.7123C16.3144 13.7123 16.6729 13.6585 17.0493 13.5331C17.336 13.4435 17.4794 13.1208 17.3719 12.852C17.2823 12.5652 16.9596 12.4218 16.6908 12.5294C15.7409 12.8699 14.6834 12.5294 14.1278 11.7766C14.5221 11.4719 14.9881 11.1851 15.5437 10.8983C15.9201 11.3643 16.637 11.9379 17.6228 11.9379C17.802 11.9379 17.9992 11.92 18.1964 11.8841C18.4831 11.8304 18.6803 11.5436 18.6086 11.2389C18.5548 10.9521 18.268 10.755 17.9634 10.8266C17.3002 10.97 16.8521 10.7012 16.5653 10.4503C17.0851 10.2531 17.6587 10.0918 18.268 9.96633C18.7878 10.737 19.7915 11.3823 21.1537 11.3823C21.2792 11.3823 21.4046 11.3823 21.5122 11.3643C21.8169 11.3464 22.0319 11.0776 21.9961 10.7908Z"/>
</svg>
