<svg width="20" height="20" viewBox="0 0 20 20" xmlns="http://www.w3.org/2000/svg" id="icon">
<path d="M19.4507 9.40433C19.1617 9.15633 16.5753 6.981 14.7753 6.981C12.5313 6.981 11.448 8.938 11.188 9.973L11.1487 10.1313C10.8139 10.3223 10.4998 10.5474 10.2113 10.803C9.90365 11.0775 9.62982 11.3876 9.39567 11.727C9.377 11.638 9.35867 11.549 9.336 11.463C9.07133 10.496 8.64667 9.64067 8.189 8.80933C7.819 8.15233 7.41033 7.524 6.98233 6.911L7.00333 6.86867C7.45133 5.96467 7.847 3.78167 6.14067 1.99267C4.751 0.535 1.13 0.118 0.722 0.076L0 0L0.071 0.745333C0.111667 1.17333 0.508 4.963 1.89533 6.417C2.66767 7.22667 3.63367 7.655 4.68933 7.655C5.55667 7.655 6.27167 7.36767 6.59033 7.215C6.97102 7.83096 7.32219 8.46468 7.64267 9.114C8.03933 9.937 8.39967 10.795 8.58133 11.652C8.625 11.865 8.32467 20 8.32467 20H9.80933C9.80933 20 9.57733 13.2863 9.61833 13.125C9.79167 12.454 10.169 11.823 10.6663 11.309C10.8801 11.0906 11.1137 10.8926 11.3643 10.7177C11.7987 11.5897 12.8693 12.7703 14.7753 12.7703C16.5753 12.7703 19.1617 10.5953 19.4507 10.3473L20 9.87567L19.4507 9.40433Z"/>
</svg>
