<svg viewBox="0 0 22 22" xmlns="http://www.w3.org/2000/svg" id="icon">
<path d="M22 9.34841C22 6.60847 19.7784 4.38685 17.0378 4.38685C16.6605 4.38685 16.2932 4.42982 15.9408 4.5097C15.7118 1.98125 13.5875 0 11 0C8.41182 0 6.28753 1.98125 6.05928 4.5097C5.70612 4.42982 5.33887 4.38685 4.96225 4.38685C2.22161 4.38685 0 6.60847 0 9.34841C0 11.3935 1.23737 13.1498 3.00377 13.9092C2.56132 14.6517 2.30622 15.5198 2.30622 16.447C2.30622 19.187 4.52783 21.4092 7.26842 21.4092C8.75622 21.4092 10.0903 20.7533 11 19.716C11.909 20.7533 13.2438 21.4092 14.7316 21.4092C17.4722 21.4092 19.6938 19.1869 19.6938 16.447C19.6938 15.5198 19.4386 14.6517 18.9955 13.9092C20.7626 13.1498 22 11.3934 22 9.34841ZM11 15.7118C8.69846 15.7118 6.83203 13.8467 6.83203 11.5438C6.83203 9.24228 8.69851 7.37653 11 7.37653C13.3015 7.37653 15.1673 9.24232 15.1673 11.5438C15.1673 13.8467 13.3015 15.7118 11 15.7118Z"/>
</svg>
