<svg viewBox="0 0 22 22" xmlns="http://www.w3.org/2000/svg" id="icon">
<path d="M21.8104 13.5805C21.1621 12.6612 20.5136 12.6396 18.869 13.505L15.7083 15.4374C15.4613 15.5689 15.0764 15.6514 14.6311 15.7024C14.2851 15.7423 13.9709 15.8926 13.6818 16.0865C13.6444 16.1118 13.6041 16.1276 13.5619 16.1276H9.99993C8.90032 16.1276 8.90032 16.6793 8.90032 16.8607C8.90032 17.063 8.73611 17.2272 8.5338 17.2272C8.33149 17.2272 8.16728 17.063 8.16728 16.8607C8.16728 15.9425 8.85234 15.3946 9.99998 15.3946H13.0067C13.2446 15.3946 13.4209 15.1552 13.3311 14.9346C13.2812 14.8121 13.2123 14.685 13.124 14.5533C12.55 13.6964 11.5651 13.1851 10.49 13.1851H9.06015C8.28381 13.1851 7.53758 12.945 6.9599 12.5095C5.64474 11.5177 3.57567 12.5894 2.56583 13.2312V12.4622H0V21.9922H2.56575V20.8926H7.33003C8.08068 20.8926 8.83027 20.8358 9.5725 20.7233L14.3239 20.0009C14.4966 19.9987 14.6722 19.9781 14.8279 19.9429C15.2656 19.8814 15.6842 19.6724 16.0382 19.3382L21.5942 15.0116L21.603 15.0046C22.0359 14.6599 22.1297 14.0328 21.8104 13.5805ZM1.8327 13.7476V20.8925V21.259H0.733089V13.1952H1.8327V13.7476Z"/>
<path d="M6.59699 6.59749C9.02237 6.59749 10.9954 4.62442 10.9954 2.19904C10.9954 1.99673 10.8312 1.83252 10.6289 1.83252C8.20354 1.83252 6.23047 3.80559 6.23047 6.23097C6.23047 6.43328 6.39468 6.59749 6.59699 6.59749Z"/>
<path d="M8.3027 7.97836C8.11285 8.04949 8.0168 8.26061 8.08789 8.45008C8.50024 9.55115 9.31615 10.4253 10.3846 10.9117C10.9656 11.176 11.5832 11.3087 12.203 11.3087C12.7242 11.3087 13.2465 11.2149 13.7494 11.0265C13.9393 10.9557 14.0353 10.7442 13.9642 10.5548C13.5519 9.45369 12.7363 8.5795 11.6675 8.09309C10.599 7.60703 9.40377 7.56601 8.3027 7.97836Z"/>
<path d="M13.2165 6.16769C13.2734 6.16769 13.3309 6.1545 13.3848 6.12663C15.5382 5.01125 16.3827 2.35165 15.2673 0.197874C15.2226 0.111753 15.1456 0.0465061 15.0529 0.0171688C14.9601 -0.0121685 14.8593 -0.00370667 14.7732 0.041008C12.6198 1.15673 11.7753 3.81598 12.8907 5.96976C12.9559 6.09549 13.0838 6.16769 13.2165 6.16769Z"/>
</svg>
