<svg viewBox="0 0 22 25" xmlns="http://www.w3.org/2000/svg" id="icon">
<path d="M19.9324 22.2807C19.6102 22.1454 19.2995 22.0671 19.0367 22.041C18.9596 20.8649 18.3328 19.3612 18.3328 18.3896C18.3328 15.5897 18.3328 9.98917 18.3328 7.18922C18.3328 6.01195 18.0427 3.66106 17.4225 2.40187C17.6501 2.27868 17.8837 2.10816 18.1016 1.89031C18.7485 1.24402 19.0118 0.458773 18.6902 0.137149C18.3686 -0.184476 17.5833 0.0788923 16.9365 0.725175C16.6707 0.990364 16.4746 1.2774 16.3521 1.54744C15.2585 1.34415 13.3136 1.53895 11.9755 1.53895H9.3267C7.70886 1.53895 5.6893 1.09838 4.52903 1.92732C4.438 1.72949 4.31603 1.51953 4.15946 1.31017C3.67217 0.659637 3.07504 0.283397 2.82563 0.470303C2.57622 0.657209 2.7698 1.33565 3.2571 1.98619C3.46949 2.27019 3.70191 2.49714 3.91855 2.65249C3.31535 3.77879 2.97006 6.02348 2.97006 7.18983C2.97006 9.98978 2.97006 15.5909 2.97006 18.3902C2.97006 19.4188 2.45425 20.8947 2.43119 22.0829C2.23275 22.1247 2.01915 22.1891 1.80008 22.2813C1.05063 22.5968 0.541494 23.0847 0.662254 23.3718C0.781802 23.6564 1.48695 23.6339 2.23639 23.3184C2.36868 23.2626 2.49005 23.2013 2.60474 23.1363C2.6897 23.3244 2.80621 23.4907 2.96945 23.6279C4.16371 24.6285 7.78411 24.0393 9.3267 24.0393H11.9755C13.668 24.0393 17.4304 24.5703 18.6562 23.3924C18.7703 23.282 18.851 23.1509 18.9123 23.0071C19.0798 23.1193 19.2758 23.2274 19.4943 23.3196C20.2437 23.6358 20.9489 23.6582 21.0702 23.3712C21.1904 23.0841 20.6819 22.5956 19.9324 22.2807ZM6.85929 15.9204C6.85079 15.9204 6.8429 15.9204 6.83441 15.9204C6.80103 15.918 6.76948 15.9083 6.73731 15.898C6.46606 15.8081 6.24153 15.4216 6.08618 14.8402C6.04309 14.677 6.00486 14.5004 5.9733 14.3093C5.94539 14.1418 5.92172 13.9664 5.90352 13.7807C5.85012 13.2352 5.8398 12.6156 5.88228 11.962C6.02064 9.84657 6.65903 8.16077 7.31624 8.16077C7.32473 8.16077 7.33262 8.16077 7.34112 8.16138C7.87028 8.19596 8.24713 9.32529 8.30963 10.863C8.31509 10.9971 8.31813 11.1331 8.31874 11.2732C8.31934 11.4122 8.31752 11.553 8.31327 11.6968C8.30903 11.8358 8.30235 11.9766 8.29325 12.1198C8.17795 13.8833 7.71493 15.3433 7.18334 15.7827C7.07714 15.8707 6.96852 15.9204 6.85929 15.9204ZM8.26533 15.2153C8.62762 14.3608 8.8303 13.2145 8.89948 12.1592C8.9189 11.8497 8.92861 11.4996 8.92193 11.1337C10.0737 10.1287 11.1897 9.50674 11.8378 9.50674C12.0162 9.50674 12.1588 9.55346 12.2571 9.65177C12.6503 10.045 12.2201 11.1501 11.271 12.3898C10.9512 12.8067 10.5731 13.2394 10.1477 13.6654C9.58157 14.2322 9.00628 14.7073 8.46862 15.0787C8.40005 15.1261 8.33269 15.1716 8.26533 15.2153ZM12.9914 14.5301C11.2904 15.3542 9.68412 15.7153 8.92375 15.5017C9.51299 15.0818 10.0883 14.5835 10.5774 14.0944C11.1606 13.5113 11.8645 12.6878 12.3651 11.8588C14.2991 11.022 16.0025 10.8181 16.2987 11.4298C16.6233 12.0985 15.1426 13.4864 12.9914 14.5301Z"/>
</svg>
