<svg viewBox="0 0 20 25" xmlns="http://www.w3.org/2000/svg" id="icon">
<path d="M3.15789 20.1087H20V0H3.15789C1.41632 0 0 1.4625 0 3.26087V21.9658C0 23.6391 1.41632 25 3.15789 25H20V23.913H3.15789C2.01684 23.913 1.05263 23.0212 1.05263 21.9658C1.05263 20.9245 1.97737 20.1087 3.15789 20.1087ZM16.1626 16.1446C16.06 16.2511 15.9247 16.3043 15.7895 16.3043C15.6553 16.3043 15.5205 16.2516 15.4184 16.1457L11.9853 12.6163L11.0589 13.5728L10.0874 12.5516L11.7468 10.838L16.1611 15.3755C16.3668 15.5875 16.3679 15.9315 16.1626 16.1446ZM5.41368 4.35163L9.48368 8.58043L7.88158 10.2348L5.38421 7.6087C4.50947 6.70543 4.52316 5.2375 5.41368 4.35163ZM4.38368 15.3766L11.2384 8.29837C11.2205 8.25217 11.1947 8.20978 11.1821 8.16141C10.9721 7.3413 11.0126 6.29946 11.7321 5.56522C12.8011 4.42717 14.6253 3.94076 15.4153 4.74728C16.2053 5.60109 15.7289 7.41522 14.66 8.50598C13.9 9.28206 12.9242 9.34565 12.1337 9.13641C12.0789 9.12174 12.0305 9.09239 11.9789 9.07011L4.60158 16.1451C4.49895 16.2511 4.89053 16.3043 4.75579 16.3043C4.62105 16.3043 4.48632 16.2511 4.38368 16.1451C4.1779 15.9326 4.1779 15.5891 4.38368 15.3766Z"/>
</svg>
