<svg viewBox="0 0 21 24" xmlns="http://www.w3.org/2000/svg" id="icon">
<path d="M15.0749 4.94631C14.9233 4.73478 14.6693 4.41239 14.3677 4.03907C14.0654 3.66502 13.7138 3.23666 13.3561 2.79692C12.9117 2.24931 12.4609 1.68871 12.0781 1.18213C12.1856 1.5118 12.2999 1.8558 12.4138 2.19423C12.7081 3.0703 12.9945 3.90277 13.1403 4.39492C13.6974 6.2778 14.0294 8.81157 14.0305 11.6112C14.0294 14.4104 13.6974 16.9438 13.1407 18.8266C12.953 19.4597 12.7382 20.0153 12.4951 20.4934C12.6618 20.4171 12.8274 20.3366 12.9891 20.2413C13.7631 19.7852 14.4728 19.116 15.0748 18.2753C16.2802 16.5959 17.0469 14.2327 17.0457 11.6112C17.047 8.98922 16.2806 6.62636 15.0749 4.94631Z"/>
<path d="M8.00973 20.2409C8.17226 20.3366 8.33898 20.4179 8.50681 20.495C8.26265 20.0158 8.04734 19.4613 7.85854 18.8267C7.30144 16.9435 6.96956 14.4101 6.96841 11.6109C6.96951 8.81133 7.30144 6.27756 7.85817 4.39468C8.00434 3.90253 8.29072 3.07011 8.58504 2.19399C8.69898 1.85556 8.81366 1.51156 8.92074 1.18115C8.69248 1.48344 8.44034 1.80472 8.1783 2.13282C7.64895 2.79511 7.08461 3.47754 6.63118 4.03883C6.32963 4.41215 6.0756 4.73459 5.92404 4.94607C4.7183 6.62612 3.95193 8.98903 3.95313 11.6109C3.95197 14.2324 4.7183 16.5956 5.92404 18.2753C6.52604 19.1157 7.2358 19.7849 8.00973 20.2409Z"/>
<path d="M2.78711 11.6109C2.78822 8.73914 3.61838 6.12866 4.99274 4.20859C5.17504 3.95452 5.43515 3.62568 5.74242 3.24512C6.00673 2.91739 6.30676 2.55167 6.6113 2.17725L6.55244 2.22509C5.73103 2.88627 4.85376 3.56829 4.14778 4.13037C3.67798 4.50447 3.28157 4.82801 3.04188 5.04332C1.14647 6.74766 0.000737514 9.06267 0 11.6109C0.000737514 14.1583 1.14647 16.4741 3.04188 18.1777C3.83028 18.886 4.74963 19.4822 5.76367 19.9391C5.49291 19.6501 5.2316 19.3463 4.99269 19.0132C3.61801 17.0931 2.78822 14.4822 2.78711 11.6109Z"/>
<path d="M11.177 20.4122C11.4714 19.9945 11.7736 19.3192 12.0265 18.4618C12.5365 16.7445 12.8647 14.3045 12.8635 11.6109C12.8647 8.91686 12.5366 6.47726 12.0262 4.75922C11.8966 4.321 11.6085 3.47945 11.3134 2.60218C11.0175 1.7215 10.7141 0.802461 10.5379 0.145843C10.5246 0.0965221 10.5121 0.0486298 10.4992 0C10.4859 0.0485837 10.4737 0.0956924 10.4604 0.145475C10.2843 0.802461 9.98081 1.72145 9.68498 2.60213C9.38988 3.47936 9.10165 4.32091 8.97175 4.75954C8.46176 6.47721 8.13362 8.91677 8.13477 11.6108C8.13362 14.3044 8.46172 16.7444 8.97212 18.4617C9.16199 19.105 9.37808 19.6458 9.59989 20.0521C9.82049 20.4596 10.051 20.7254 10.2253 20.8428C10.3431 20.9225 10.4243 20.943 10.4991 20.9442C10.5739 20.9431 10.6552 20.9226 10.7729 20.8428C10.8887 20.7635 11.0308 20.6215 11.177 20.4122Z"/>
<path d="M17.9569 5.04262C17.6071 4.72816 16.9228 4.18318 16.153 3.57446C15.5769 3.11877 14.9503 2.62353 14.3613 2.14502C14.6754 2.53088 14.9841 2.90761 15.2564 3.24447C15.5637 3.62498 15.8238 3.95386 16.0061 4.20794C17.3804 6.12801 18.2106 8.73849 18.2117 11.6103C18.2106 14.4816 17.3804 17.0925 16.0061 19.0125C15.7672 19.3456 15.5059 19.6494 15.2351 19.9384C16.2491 19.4815 17.1685 18.8853 17.9573 18.177C19.8527 16.4734 20.9984 14.1577 20.9991 11.6102C20.9984 9.06198 19.8527 6.74697 17.9569 5.04262Z"/>
<path d="M8.96079 20.8871C8.84002 20.7094 8.59812 20.6634 8.42038 20.7842L6.45739 22.1194C6.27965 22.2402 6.23374 22.4821 6.35446 22.6598C6.47523 22.8372 6.71713 22.8835 6.89487 22.7627L8.85786 21.4275C9.03523 21.3067 9.08156 21.0644 8.96079 20.8871Z"/>
<path d="M9.91171 21.0496C9.70811 20.9813 9.48745 21.091 9.41914 21.2945L8.81719 23.0874C8.74883 23.291 8.85859 23.5116 9.06214 23.58C9.26569 23.6483 9.4863 23.5386 9.55471 23.3351L10.1566 21.5422C10.225 21.3386 10.1153 21.118 9.91171 21.0496Z"/>
<path d="M12.5804 20.7842C12.4027 20.6634 12.1608 20.7094 12.04 20.8871C11.9192 21.0644 11.9653 21.3067 12.1429 21.4275L14.1059 22.7627C14.2837 22.8835 14.5256 22.8372 14.6463 22.6598C14.7671 22.4821 14.7212 22.2402 14.5434 22.1194L12.5804 20.7842Z"/>
<path d="M11.5801 21.2945C11.5117 21.091 11.2911 20.9813 11.0875 21.0496C10.884 21.118 10.7743 21.3386 10.8426 21.5422L11.4445 23.3351C11.5128 23.5386 11.7335 23.6483 11.937 23.58C12.1406 23.5116 12.2503 23.291 12.182 23.0874L11.5801 21.2945Z"/>
</svg>
